<svg width="23" height="17" viewBox="0 0 23 17" fill="none" xmlns="http://www.w3.org/2000/svg">
<path d="M19.76 2.03C17.15 0.0499988 14.59 0 14.35 0L14.06 0.290001C16.91 1.16 18.46 2.42 18.79 2.71C14.2 0.249999 8.84 0.249996 4.44 2.23C3.96 2.42 3.62 2.57 3.47 2.67C3.95 2.28 5.55 1.08 8.4 0.25L8.21 0.0100021C7.97 0.0100021 5.41 0.0600009 2.75 2.04C2.75 2.04 0 7.06 0 13.3C0 13.3 1.59 16.1 5.89 16.25C5.89 16.25 6.61 15.38 7.15 14.66C5.02 14.03 4.06 12.78 3.86 12.44C4.1 12.63 4.54 12.83 4.58 12.88C7.82 14.67 12.45 15.3 16.66 13.56C17.34 13.27 18.01 12.93 18.83 12.45C18.59 12.79 17.57 14.09 15.35 14.72C15.93 15.44 16.65 16.27 16.65 16.27C20.9 16.12 22.54 13.32 22.54 13.32C22.56 7.04999 19.76 2.03 19.76 2.03ZM7.68 11.5C6.57 11.5 5.7 10.53 5.7 9.37C5.7 8.16 6.57 7.2 7.68 7.2C8.74 7.2 9.66 8.17 9.61 9.37C9.61 10.53 8.74 11.5 7.68 11.5ZM14.73 11.5C13.62 11.5 12.75 10.53 12.75 9.37C12.75 8.16 13.62 7.2 14.73 7.2C15.79 7.2 16.66 8.17 16.66 9.37C16.67 10.53 15.8 11.5 14.73 11.5Z" fill="url(#paint0_linear_899_3895)"/>
<defs>
<linearGradient id="paint0_linear_899_3895" x1="-11.8479" y1="16.3931" x2="53.3652" y2="16.3931" gradientUnits="userSpaceOnUse">
<stop stop-color="#E426B2"/>
<stop offset="1" stop-color="#51C2FA"/>
</linearGradient>
</defs>
</svg>
