<svg width="33" height="32" viewBox="0 0 33 32" fill="none" xmlns="http://www.w3.org/2000/svg">
<path d="M8.25 32C7.10417 32 6.13021 31.5942 5.32812 30.7826C4.52604 29.971 4.125 28.9855 4.125 27.8261C4.125 26.6667 4.52604 25.6812 5.32812 24.8696C6.13021 24.058 7.10417 23.6522 8.25 23.6522C8.57083 23.6522 8.86875 23.687 9.14375 23.7565C9.41875 23.8261 9.68229 23.9188 9.93437 24.0348L11.8937 21.5652C11.2521 20.8464 10.8052 20.0348 10.5531 19.1304C10.301 18.2261 10.2438 17.3217 10.3813 16.4174L7.59688 15.4783C7.20729 16.058 6.71458 16.5217 6.11875 16.8696C5.52292 17.2174 4.85833 17.3913 4.125 17.3913C2.97917 17.3913 2.00521 16.9855 1.20312 16.1739C0.401042 15.3623 0 14.3768 0 13.2174C0 12.058 0.401042 11.0725 1.20312 10.2609C2.00521 9.44928 2.97917 9.04348 4.125 9.04348C5.27083 9.04348 6.24479 9.44928 7.04688 10.2609C7.84896 11.0725 8.25 12.058 8.25 13.2174V13.4957L11.0344 14.4696C11.4927 13.6348 12.106 12.9275 12.8741 12.3478C13.6414 11.7681 14.5063 11.3971 15.4688 11.2348V8.2087C14.575 7.95362 13.8357 7.46064 13.2509 6.72974C12.667 5.99977 12.375 5.14783 12.375 4.17391C12.375 3.01449 12.776 2.02899 13.5781 1.21739C14.3802 0.405797 15.3542 0 16.5 0C17.6458 0 18.6198 0.405797 19.4219 1.21739C20.224 2.02899 20.625 3.01449 20.625 4.17391C20.625 5.14783 20.3271 5.99977 19.7313 6.72974C19.1354 7.46064 18.4021 7.95362 17.5312 8.2087V11.2348C18.4937 11.3971 19.3591 11.7681 20.1272 12.3478C20.8945 12.9275 21.5073 13.6348 21.9656 14.4696L24.75 13.4957V13.2174C24.75 12.058 25.151 11.0725 25.9531 10.2609C26.7552 9.44928 27.7292 9.04348 28.875 9.04348C30.0208 9.04348 30.9948 9.44928 31.7969 10.2609C32.599 11.0725 33 12.058 33 13.2174C33 14.3768 32.599 15.3623 31.7969 16.1739C30.9948 16.9855 30.0208 17.3913 28.875 17.3913C28.1417 17.3913 27.4716 17.2174 26.8647 16.8696C26.257 16.5217 25.7698 16.058 25.4031 15.4783L22.6188 16.4174C22.7563 17.3217 22.699 18.2201 22.4469 19.1123C22.1948 20.0056 21.7479 20.8232 21.1063 21.5652L23.0656 24C23.3177 23.8841 23.5813 23.7969 23.8563 23.7384C24.1313 23.6809 24.4292 23.6522 24.75 23.6522C25.8958 23.6522 26.8698 24.058 27.6719 24.8696C28.474 25.6812 28.875 26.6667 28.875 27.8261C28.875 28.9855 28.474 29.971 27.6719 30.7826C26.8698 31.5942 25.8958 32 24.75 32C23.6042 32 22.6302 31.5942 21.8281 30.7826C21.026 29.971 20.625 28.9855 20.625 27.8261C20.625 27.3623 20.6997 26.9162 20.8491 26.4877C20.9976 26.0582 21.1979 25.6696 21.45 25.3217L19.4906 22.8522C18.551 23.3855 17.5487 23.6522 16.4835 23.6522C15.4174 23.6522 14.4146 23.3855 13.475 22.8522L11.55 25.3217C11.8021 25.6696 12.0028 26.0582 12.1523 26.4877C12.3008 26.9162 12.375 27.3623 12.375 27.8261C12.375 28.9855 11.974 29.971 11.1719 30.7826C10.3698 31.5942 9.39583 32 8.25 32ZM4.125 14.6087C4.51458 14.6087 4.84137 14.4751 5.10538 14.208C5.36846 13.9418 5.5 13.6116 5.5 13.2174C5.5 12.8232 5.36846 12.4925 5.10538 12.2254C4.84137 11.9592 4.51458 11.8261 4.125 11.8261C3.73542 11.8261 3.40908 11.9592 3.146 12.2254C2.882 12.4925 2.75 12.8232 2.75 13.2174C2.75 13.6116 2.882 13.9418 3.146 14.208C3.40908 14.4751 3.73542 14.6087 4.125 14.6087ZM8.25 29.2174C8.63958 29.2174 8.96637 29.0838 9.23037 28.8167C9.49346 28.5505 9.625 28.2203 9.625 27.8261C9.625 27.4319 9.49346 27.1017 9.23037 26.8355C8.96637 26.5683 8.63958 26.4348 8.25 26.4348C7.86042 26.4348 7.53363 26.5683 7.26963 26.8355C7.00654 27.1017 6.875 27.4319 6.875 27.8261C6.875 28.2203 7.00654 28.5505 7.26963 28.8167C7.53363 29.0838 7.86042 29.2174 8.25 29.2174ZM16.5 5.56522C16.8896 5.56522 17.2164 5.43165 17.4804 5.16452C17.7435 4.89832 17.875 4.56812 17.875 4.17391C17.875 3.77971 17.7435 3.44904 17.4804 3.18191C17.2164 2.91571 16.8896 2.78261 16.5 2.78261C16.1104 2.78261 15.7841 2.91571 15.521 3.18191C15.257 3.44904 15.125 3.77971 15.125 4.17391C15.125 4.56812 15.257 4.89832 15.521 5.16452C15.7841 5.43165 16.1104 5.56522 16.5 5.56522ZM16.5 20.8696C17.4625 20.8696 18.276 20.5333 18.9406 19.8609C19.6052 19.1884 19.9375 18.3652 19.9375 17.3913C19.9375 16.4174 19.6052 15.5942 18.9406 14.9217C18.276 14.2493 17.4625 13.913 16.5 13.913C15.5375 13.913 14.724 14.2493 14.0594 14.9217C13.3948 15.5942 13.0625 16.4174 13.0625 17.3913C13.0625 18.3652 13.3948 19.1884 14.0594 19.8609C14.724 20.5333 15.5375 20.8696 16.5 20.8696ZM24.75 29.2174C25.1396 29.2174 25.4659 29.0838 25.729 28.8167C25.993 28.5505 26.125 28.2203 26.125 27.8261C26.125 27.4319 25.993 27.1017 25.729 26.8355C25.4659 26.5683 25.1396 26.4348 24.75 26.4348C24.3604 26.4348 24.0341 26.5683 23.771 26.8355C23.507 27.1017 23.375 27.4319 23.375 27.8261C23.375 28.2203 23.507 28.5505 23.771 28.8167C24.0341 29.0838 24.3604 29.2174 24.75 29.2174ZM28.875 14.6087C29.2646 14.6087 29.5909 14.4751 29.854 14.208C30.118 13.9418 30.25 13.6116 30.25 13.2174C30.25 12.8232 30.118 12.4925 29.854 12.2254C29.5909 11.9592 29.2646 11.8261 28.875 11.8261C28.4854 11.8261 28.1591 11.9592 27.896 12.2254C27.632 12.4925 27.5 12.8232 27.5 13.2174C27.5 13.6116 27.632 13.9418 27.896 14.208C28.1591 14.4751 28.4854 14.6087 28.875 14.6087Z" fill="url(#paint0_linear_2723_1209)"/>
<defs>
<linearGradient id="paint0_linear_2723_1209" x1="21.2143" y1="0" x2="21.2143" y2="32" gradientUnits="userSpaceOnUse">
<stop stop-color="#E426B2"/>
<stop offset="1" stop-color="#51C2FA"/>
</linearGradient>
</defs>
</svg>
