<svg width="34" height="34" viewBox="0 0 34 34" fill="none" xmlns="http://www.w3.org/2000/svg">
<path d="M18.8667 33.9833L16.15 27.6C18.7667 26.6333 21.2167 25.3333 23.4833 23.8167L18.8667 33.9833ZM6.38333 17.8333L0 15.1167L10.1667 10.5C8.65 12.7667 7.35 15.2167 6.38333 17.8333ZM33 0.983347C33 0.983347 24.75 -2.55165 15.3167 6.88335C11.6667 10.5333 9.48333 14.55 8.06667 18.0667C7.6 19.3167 7.91667 20.6833 8.83333 21.6167L12.3833 25.15C13.3 26.0833 14.6667 26.3833 15.9167 25.9167C20.1142 24.3162 23.9255 21.8454 27.1 18.6667C36.5333 9.23335 33 0.983347 33 0.983347ZM21.2167 12.7667C19.9167 11.4667 19.9167 9.35001 21.2167 8.05001C22.5167 6.75001 24.6333 6.75001 25.9333 8.05001C27.2167 9.35001 27.2333 11.4667 25.9333 12.7667C24.6333 14.0667 22.5167 14.0667 21.2167 12.7667ZM11.7833 24.55L9.43333 22.2L11.7833 24.55ZM7.38333 33.6667L13.45 27.6C12.8833 27.45 12.3333 27.2 11.8333 26.85L5.03333 33.6667H7.38333ZM0.316667 33.6667H2.66667L10.6167 25.7333L8.25 23.3833L0.316667 31.3167V33.6667ZM0.316667 28.95L7.13333 22.15C6.78333 21.65 6.53333 21.1167 6.38333 20.5333L0.316667 26.6V28.95Z" fill="#F8F8F8"/>
</svg>
