<svg width="35" height="32" viewBox="0 0 35 32" fill="none" xmlns="http://www.w3.org/2000/svg">
<path d="M30.625 4.35745H9.36523L9.16016 3.54043C8.93229 2.49645 8.4196 1.64539 7.62207 0.987234C6.82454 0.329078 5.87891 0 4.78516 0H1.43555C1.02539 0 0.683594 0.13617 0.410156 0.408511C0.136719 0.680851 0 1.04397 0 1.49787C0 1.90638 0.136719 2.24681 0.410156 2.51915C0.683594 2.79149 1.02539 2.92766 1.43555 2.92766H4.78516C5.65104 2.92766 6.15234 3.31348 6.28906 4.08511L9.63867 21.5149C9.91211 22.4681 10.4476 23.2397 11.2451 23.8298C12.0426 24.4199 12.9199 24.7149 13.877 24.7149H27.6855C28.1413 24.7149 28.5059 24.5787 28.7793 24.3064C29.0527 24.034 29.1895 23.6936 29.1895 23.2851C29.1895 22.2865 28.6882 21.7872 27.6855 21.7872H13.877C13.2389 21.7872 12.7832 21.5149 12.5098 20.9702L12.373 20.3574H27.002C27.9134 20.3574 28.7451 20.0851 29.4971 19.5404C30.249 18.9957 30.7617 18.2922 31.0352 17.4298L35 9.05532V8.71489C35 7.48936 34.5784 6.45674 33.7354 5.61702C32.8923 4.7773 31.8555 4.35745 30.625 4.35745ZM13.125 17.4298H11.8262L9.91211 7.28511H13.125V17.4298ZM18.9355 17.4298H16.0645V7.28511H18.9355V17.4298ZM24.8145 17.4298H21.875V7.28511H24.8145V17.4298ZM28.4375 16.2723V16.4085C28.3008 16.8624 28.0501 17.1574 27.6855 17.2936V7.28511H30.625C31.4453 7.28511 31.9238 7.67092 32.0605 8.44255L28.4375 16.2723ZM17.5 29.0723C17.5 29.8894 17.2152 30.5816 16.6455 31.1489C16.0758 31.7163 15.3809 32 14.5605 32C13.7858 32 13.1136 31.7163 12.5439 31.1489C11.9743 30.5816 11.6895 29.8894 11.6895 29.0723C11.6895 28.2553 11.9743 27.5631 12.5439 26.9957C13.1136 26.4284 13.7858 26.1447 14.5605 26.1447C15.3809 26.1447 16.0758 26.4284 16.6455 26.9957C17.2152 27.5631 17.5 28.2553 17.5 29.0723ZM29.1895 29.0723C29.1895 29.8894 28.9046 30.5816 28.335 31.1489C27.7653 31.7163 27.0703 32 26.25 32C25.4297 32 24.7347 31.7163 24.165 31.1489C23.5954 30.5816 23.3105 29.8894 23.3105 29.0723C23.3105 28.2553 23.5954 27.5631 24.165 26.9957C24.7347 26.4284 25.4297 26.1447 26.25 26.1447C27.0703 26.1447 27.7653 26.4284 28.335 26.9957C28.9046 27.5631 29.1895 28.2553 29.1895 29.0723Z" fill="url(#paint0_linear_2723_1203)"/>
<defs>
<linearGradient id="paint0_linear_2723_1203" x1="22.5" y1="0" x2="22.5" y2="32" gradientUnits="userSpaceOnUse">
<stop stop-color="#E426B2"/>
<stop offset="1" stop-color="#51C2FA"/>
</linearGradient>
</defs>
</svg>
