<svg width="23" height="19" viewBox="0 0 23 19" fill="none" xmlns="http://www.w3.org/2000/svg">
<path d="M6.78908 18.0611C4.51908 18.0611 2.26908 18.0611 0.0090836 18.0611C-0.0109164 17.8511 -0.0109164 17.6811 0.149084 17.5011C0.929084 16.5811 1.67908 15.6511 2.44908 14.7211C2.65908 14.4611 2.74908 14.1611 2.70908 13.8211C2.69908 13.7611 2.69908 13.7011 2.69908 13.6411C2.69908 10.3611 2.69908 7.09109 2.70908 3.81109C2.70908 3.45109 2.60908 3.1611 2.36908 2.8911C1.71908 2.1411 1.09908 1.3611 0.459084 0.601096C0.299084 0.421096 0.269084 0.2411 0.309084 0.0111001C0.359084 0.0111001 0.399084 0.00109031 0.449084 0.00109031C2.55908 0.00109031 4.65908 0.00109031 6.76908 0.00109031C6.88908 0.00109031 6.92908 0.041105 6.97908 0.141105C8.62908 3.77111 10.2791 7.39111 11.9391 11.0211C11.9591 11.0711 11.9891 11.1211 12.0191 11.1911C12.1091 10.9811 12.1791 10.7911 12.2591 10.6011C13.6591 7.1111 15.0591 3.6211 16.4491 0.131095C16.4791 0.0510952 16.5191 -0.00890969 16.6291 0.00109031C18.6491 0.00109031 20.6591 0.00109031 22.6791 0.00109031C22.7191 0.00109031 22.7491 0.00110008 22.7991 0.0111001C22.8291 0.2211 22.8191 0.401088 22.6391 0.561088C22.0691 1.08109 21.5191 1.62109 20.9591 2.16109C20.8391 2.28109 20.7791 2.42109 20.7791 2.59109C20.7791 2.67109 20.7891 2.76109 20.7891 2.84109C20.7891 6.97109 20.7891 11.1111 20.7891 15.2411C20.7891 15.3311 20.7891 15.4211 20.7791 15.5111C20.7791 15.6811 20.8291 15.8211 20.9591 15.9411C21.5391 16.5011 22.1091 17.0711 22.6891 17.6311C22.8291 17.7711 22.7391 17.9311 22.7691 18.0911C19.7791 18.0911 16.8091 18.0911 13.8291 18.0911C13.7991 17.8811 13.8091 17.7011 13.9891 17.5311C14.5491 17.0211 15.0791 16.4811 15.6291 15.9511C15.7791 15.8111 15.8391 15.6511 15.8391 15.4511C15.8391 12.0311 15.8391 8.61111 15.8391 5.18111C15.8391 5.16111 15.8391 5.14109 15.8191 5.12109C15.7991 5.16109 15.7791 5.21109 15.7591 5.25109C14.0991 9.46109 12.4391 13.6711 10.7891 17.8911C10.7391 18.0111 10.6891 18.0611 10.5591 18.0511C10.4291 18.0411 10.3091 18.0411 10.1791 18.0511C10.0691 18.0611 10.0191 18.0211 9.96908 17.9211C9.42908 16.7311 8.88908 15.5511 8.33908 14.3611C6.94908 11.3311 5.55908 8.2911 4.16908 5.2611C4.14908 5.2211 4.12908 5.18111 4.07908 5.14111C4.07908 5.20111 4.07908 5.25109 4.07908 5.31109C4.07908 8.08109 4.07908 10.8511 4.07908 13.6211C4.07908 13.8311 4.07908 14.0511 4.11908 14.2511C4.14908 14.4011 4.23908 14.5611 4.33908 14.6811C5.09908 15.6211 5.86908 16.5511 6.64908 17.4811C6.80908 17.6811 6.80908 17.8511 6.78908 18.0611Z" fill="url(#paint0_linear_899_3897)"/>
<defs>
<linearGradient id="paint0_linear_899_3897" x1="-11.9909" y1="18.2279" x2="54.0091" y2="18.228" gradientUnits="userSpaceOnUse">
<stop stop-color="#E426B2"/>
<stop offset="1" stop-color="#51C2FA"/>
</linearGradient>
</defs>
</svg>
