<svg width="40" height="39" viewBox="0 0 40 39" fill="none" xmlns="http://www.w3.org/2000/svg">
<path d="M35.301 25.4073L39.5885 27.5523C40.1385 27.8273 40.1385 28.6123 39.5885 28.8873L20.6685 38.3498C20.4612 38.4532 20.2327 38.5071 20.001 38.5071C19.7694 38.5071 19.5408 38.4532 19.3335 38.3498L0.413539 28.8873C0.289943 28.825 0.186071 28.7296 0.113496 28.6117C0.04092 28.4939 0.00249147 28.3582 0.00249147 28.2198C0.00249147 28.0814 0.04092 27.9457 0.113496 27.8278C0.186071 27.71 0.289943 27.6146 0.413539 27.5523L4.70354 25.4073L17.996 32.0548C19.2585 32.6848 20.746 32.6848 22.006 32.0548L35.2985 25.4048L35.301 25.4073ZM19.3335 0.15729C19.5408 0.0538465 19.7694 0 20.001 0C20.2327 0 20.4612 0.0538465 20.6685 0.15729L39.5885 9.61729C39.712 9.67999 39.8158 9.77566 39.8882 9.8937C39.9607 10.0117 39.999 10.1475 39.999 10.286C39.999 10.4245 39.9607 10.5603 39.8882 10.6784C39.8158 10.7964 39.712 10.8921 39.5885 10.9548L20.6685 20.4123C20.4612 20.5157 20.2327 20.5696 20.001 20.5696C19.7694 20.5696 19.5408 20.5157 19.3335 20.4123L0.413539 10.9548C0.289288 10.8927 0.18478 10.7973 0.111736 10.6792C0.0386918 10.5611 0 10.4249 0 10.286C0 10.1472 0.0386918 10.011 0.111736 9.8929C0.18478 9.77477 0.289288 9.67934 0.413539 9.61729L19.3335 0.15729Z" fill="url(#paint0_linear_899_3878)"/>
<path d="M35.301 16.4398L39.5885 18.5848C40.1385 18.8598 40.1385 19.6448 39.5885 19.9198L20.6685 29.3798C20.4612 29.4832 20.2327 29.5371 20.001 29.5371C19.7693 29.5371 19.5408 29.4832 19.3335 29.3798L0.413489 19.9198C0.289893 19.8575 0.186021 19.7621 0.113445 19.6442C0.0408699 19.5264 0.00244141 19.3907 0.00244141 19.2523C0.00244141 19.1139 0.0408699 18.9782 0.113445 18.8603C0.186021 18.7425 0.289893 18.6471 0.413489 18.5848L4.70349 16.4398L17.996 23.0873C19.2585 23.7173 20.746 23.7173 22.006 23.0873L35.2985 16.4398H35.301Z" fill="url(#paint1_linear_899_3878)"/>
<defs>
<linearGradient id="paint0_linear_899_3878" x1="20.0005" y1="0" x2="20.0005" y2="38.5071" gradientUnits="userSpaceOnUse">
<stop stop-color="#E426B2"/>
<stop offset="1" stop-color="#51C2FA"/>
</linearGradient>
<linearGradient id="paint1_linear_899_3878" x1="20.0017" y1="16.4398" x2="20.0017" y2="29.5371" gradientUnits="userSpaceOnUse">
<stop stop-color="#E426B2"/>
<stop offset="1" stop-color="#51C2FA"/>
</linearGradient>
</defs>
</svg>
