<svg width="23" height="19" viewBox="0 0 23 19" fill="none" xmlns="http://www.w3.org/2000/svg">
<path d="M20.15 5.15C20.15 11.23 15.52 18.24 7.06 18.24C4.45 18.24 2.03 17.49 0 16.18C0.37 16.22 0.73 16.24 1.11 16.24C3.26 16.24 5.24 15.51 6.82 14.27C4.8 14.23 3.1 12.9 2.52 11.08C2.8 11.12 3.09 11.15 3.39 11.15C3.8 11.15 4.22 11.09 4.6 10.99C2.49 10.56 0.91 8.71 0.91 6.47V6.41C1.52 6.75 2.23 6.96 2.99 6.99C1.75 6.16 0.94 4.75 0.94 3.16C0.94 2.31 1.17 1.52 1.57 0.839996C3.83 3.63 7.24 5.45 11.06 5.65C10.99 5.31 10.95 4.95 10.95 4.6C10.95 2.07 13 0 15.55 0C16.87 0 18.07 0.549997 18.91 1.45C19.95 1.25 20.95 0.869996 21.83 0.339996C21.49 1.41 20.76 2.31 19.81 2.88C20.74 2.78 21.63 2.52 22.46 2.17C21.83 3.08 21.05 3.89 20.15 4.55C20.15 4.75 20.15 4.95 20.15 5.15Z" fill="url(#paint0_linear_899_3896)"/>
<defs>
<linearGradient id="paint0_linear_899_3896" x1="-11.8058" y1="18.378" x2="53.1755" y2="18.378" gradientUnits="userSpaceOnUse">
<stop stop-color="#E426B2"/>
<stop offset="1" stop-color="#51C2FA"/>
</linearGradient>
</defs>
</svg>
