<svg xmlns="http://www.w3.org/2000/svg" xmlns:xlink="http://www.w3.org/1999/xlink" viewBox="0 0 630.57 630.57"><defs><style>.cls-1{fill:#fff;}.cls-2{fill:url(#radial-gradient);}.cls-3{fill:#0d0a16;stroke:#000;stroke-miterlimit:10;stroke-width:4.54px;}.cls-4{fill:#eb9b2d;}.cls-5{fill:#eaeae8;}.cls-6{fill:#e48014;}.cls-7{fill:#fffff2;}.cls-8{fill:#151110;}</style><radialGradient id="radial-gradient" cx="316.42" cy="316.5" r="288.49" gradientTransform="translate(0.11 -2.46) rotate(0.23)" gradientUnits="userSpaceOnUse"><stop offset="0" stop-color="#ed807d"/><stop offset="0.18" stop-color="#ef6f6c"/><stop offset="0.53" stop-color="#f64341"/><stop offset="1" stop-color="red"/></radialGradient></defs><g id="Layer_2" data-name="Layer 2"><g id="Layer_1-2" data-name="Layer 1"><circle class="cls-1" cx="315.28" cy="315.28" r="315.28"/><circle class="cls-2" cx="315.28" cy="315.28" r="288.49"/><path class="cls-3" d="M478.33,295.53s15.79-35.18,19.49-77.58,6.89-76.88-7.47-88.71-50.3,17.26-50.3,17.26-32.22,25.94-52.86,52.26c-19.33-7.21-44.19-11.59-71.32-11.7s-52,4.08-71.4,11.14C224,171.71,192,145.52,192,145.52s-35.71-29.37-50.16-17.65-11.55,46.23-8.17,88.65,18.88,77.73,18.88,77.73c-27.48,55.4-28.73,101.18-27.46,114.36s9,45.82,58.55,81.84,95.9,52.75,129.91,52.88a8.88,8.88,0,0,0,.9-.05,6.84,6.84,0,0,0,.91.06c34,.13,80.43-16.24,130.31-51.86s57.83-68.21,59.2-81.38S505.37,351.14,478.33,295.53Z"/><path class="cls-4" d="M499.44,401.19h0a186.48,186.48,0,0,0-2.93-31.46,253.82,253.82,0,0,0-8-32.93,281.64,281.64,0,0,0-15.43-38.71l-1.19-2.45,1.12-2.48a232.79,232.79,0,0,0,8.17-22.44c2.49-8,4.63-16.11,6.36-24.11A238.38,238.38,0,0,0,492,217.45l.12-1.35c1.77-20.28,3.45-39.44,2.88-54.23s-3.3-24-8.37-28.13a7.8,7.8,0,0,0-5.09-1.5c-3,0-6.8.89-11.24,2.67a88.21,88.21,0,0,0-12.59,6.44,142,142,0,0,0-14,9.68h0c-.08.07-8.09,6.53-18.47,16.08C408,183,397.52,195,391.78,202.36l-2.63,3.36-4-1.49A172.91,172.91,0,0,0,353.49,196a240.59,240.59,0,0,0-75.31-.29,171.61,171.61,0,0,0-31.71,8l-4,1.46-2.6-3.38c-10.3-13.35-23.73-26.68-33.18-35.51-10.31-9.63-18.27-16.16-18.35-16.22h0a140.8,140.8,0,0,0-13.92-9.8,89.85,89.85,0,0,0-12.54-6.54c-4.43-1.81-8.2-2.74-11.22-2.75a7.77,7.77,0,0,0-5.1,1.46c-5.1,4.14-7.92,13.32-8.59,28.06s.84,34,2.46,54.26l.1,1.34a237.08,237.08,0,0,0,4.25,29.19c1.66,8,3.73,16.14,6.17,24.16a223.89,223.89,0,0,0,8,22.49l1.1,2.5-1.21,2.45a280.49,280.49,0,0,0-15.74,38.58,254,254,0,0,0-8.26,32.86,187.66,187.66,0,0,0-3.17,31.34h0c0,2.42,0,4.36.11,5.8,0,.16,0,.32,0,.47,0,.4,0,.75.07,1.05a2.66,2.66,0,0,0,0,.3c0,.34.05.6.07.8a63,63,0,0,0,2.89,13.43c.05.13.09.27.14.4.1.31.2.61.31.92s.14.42.22.64c.2.56.41,1.13.63,1.7l.32.83.3.74A91.22,91.22,0,0,0,141.31,438c9.57,16.52,25,32.57,45.78,47.68q4.29,3.12,8.61,6.08c9.09,6.24,18.23,11.94,27.25,17a288,288,0,0,0,26.91,13.34h0q3.39,1.46,6.74,2.79a198.3,198.3,0,0,0,30.54,9.45,127.64,127.64,0,0,0,26.45,3.12h.25l.66-.07.65.08h.25a128.44,128.44,0,0,0,26.48-2.91,198.44,198.44,0,0,0,30.6-9.22q3.19-1.23,6.42-2.58h0a286.08,286.08,0,0,0,27.36-13.28q9.9-5.44,19.93-11.87l1.3-.84,2.05-1.33q6.39-4.2,12.76-8.74a207.2,207.2,0,0,0,25.09-20.88c.25-.26.51-.51.76-.76l1.4-1.42,1.14-1.18c.22-.23.43-.46.65-.68.38-.41.77-.82,1.14-1.23.62-.66,1.22-1.33,1.82-2q3.18-3.57,6-7.17l1.4-1.86.3-.4a107.5,107.5,0,0,0,6.47-9.75,92.54,92.54,0,0,0,4.37-8.31,68.84,68.84,0,0,0,6.27-21.59C499.19,408.48,499.43,405.66,499.44,401.19Z"/><path class="cls-5" d="M499.09,409.5c-.69,6.57-3.09,17.09-10.64,29.9-9.69,16.45-25.22,32.38-46.15,47.33a364.34,364.34,0,0,1-36,22.78,286.08,286.08,0,0,1-27.36,13.28q-3.22,1.35-6.42,2.58a198.44,198.44,0,0,1-30.6,9.22,128.44,128.44,0,0,1-26.48,2.91h-.25l-.65-.08-.66.07h-.25a127.64,127.64,0,0,1-26.45-3.12,198.3,198.3,0,0,1-30.54-9.45q-3.35-1.33-6.74-2.79A288,288,0,0,1,223,508.79a364.53,364.53,0,0,1-35.86-23.07c-20.81-15.11-36.21-31.16-45.78-47.68-7.45-12.87-9.76-23.41-10.39-30a82,82,0,0,1-.29-8.42,107.92,107.92,0,0,1,25.31-2.87c32.89.13,62,14.89,80.27,37.59,7.81-37.88,40.15-66.21,78.75-66.06S385.67,397,393.18,435c18.41-22.56,47.67-37.09,80.57-37a108.36,108.36,0,0,1,25.69,3.17C499.43,405.66,499.19,408.48,499.09,409.5Z"/><path class="cls-5" d="M130.63,399.64a81.88,81.88,0,0,0,.29,8.41c.63,6.58,2.94,17.12,10.39,30,9.57,16.52,25,32.57,45.78,47.68A364.53,364.53,0,0,0,223,508.79a288,288,0,0,0,26.91,13.34"/><path class="cls-5" d="M499.44,401.18c0,4.48-.25,7.3-.35,8.32-.69,6.57-3.09,17.09-10.64,29.9-9.69,16.45-25.22,32.38-46.15,47.33a364.34,364.34,0,0,1-36,22.78,286.08,286.08,0,0,1-27.36,13.28"/><path class="cls-6" d="M225.43,209.67a211.45,211.45,0,0,0-59.86,61.91c-8.39-22.16-18.73-74.75-17.25-95.91,1.73-24.75,14.94-18.9,33.2-6.08C193.84,178.25,208.2,190.45,225.43,209.67Z"/><path class="cls-6" d="M405.72,210.38a211.49,211.49,0,0,1,59.38,62.38c8.56-22.09,19.32-74.6,18-95.77-1.53-24.77-14.79-19-33.15-6.34C437.56,179.21,423.11,191.29,405.72,210.38Z"/><path class="cls-7" d="M211.93,293.77s3.66-14.7,16.65-15.22,18.12,6.69,21.78,11.53,9.49,18.26-2.53,20.17-31.35,3.26-34.33.36C208.7,305.93,211.93,293.77,211.93,293.77Z"/><path class="cls-7" d="M418.56,294.58S415,279.85,402,279.23s-18.17,6.55-21.86,11.36-9.63,18.18,2.37,20.19,31.32,3.51,34.32.63C421.7,306.77,418.56,294.58,418.56,294.58Z"/><path class="cls-8" d="M201.14,336.14s-.36-11.36,7.07-9.54,47.15,22.17,54.55,30.29,13.5,16.23,6.64,16.53-35.22-1.69-50.71-11.15S201.07,355.1,201.14,336.14Z"/><path class="cls-8" d="M429,337s.45-11.36-7-9.59-47.32,21.8-54.79,29.86-13.63,16.13-6.77,16.48,35.23-1.41,50.79-10.75S428.94,356,429,337Z"/><path d="M339.13,423.63s-8.05,13.31-22.81,14.16c-.53,0-1.06,0-1.6,0s-1.12,0-1.67-.07c-14.71-1-22.7-14.33-22.7-14.33-6.81-14.49-3.49-28.62.45-32.12s12.43-2.81,12.43-2.81l23.29.09s8.5-.62,12.41,2.91S346.05,409.19,339.13,423.63Z"/><path d="M355.83,459.57c-1.31.9-7.14,6.1-8.13,9s-3.07,12.9-4.05,13-3.19.8-3.09-4.84c.07-3.9.43-9.45.64-12.5L288,464c.19,3.05.5,8.6.54,12.51.06,5.64-2.14,4.89-3.13,4.81s-3-10.15-3.95-13-6.75-8.12-8.05-9-1.71-3.52,0-4.5c1.33-.75,9.15,3.8,12.7,5.94l20.35.08a8.06,8.06,0,0,1,6.55-6.85l.07-16.15c.55,0,1.11.06,1.67.07s1.07,0,1.6,0l-.07,16.14a8,8,0,0,1,6.5,6.9l20.36.08c3.56-2.11,11.42-6.59,12.74-5.83C357.56,456.06,357.14,458.68,355.83,459.57Z"/><polygon points="317.9 472.25 311.2 472.23 298.04 472.17 303.41 478.57 307.51 474.34 314.51 482.45 321.57 474.39 325.64 478.66 331.06 472.3 317.9 472.25"/></g></g></svg>