<svg xmlns="http://www.w3.org/2000/svg" viewBox="0 0 216.14 171.42"><defs><style>.cls-1,.cls-2{fill:#4f6ae6;}.cls-2{stroke:#fff;stroke-width:3px;}.cls-2,.cls-3,.cls-4,.cls-5{stroke-miterlimit:10;}.cls-3,.cls-4,.cls-5{fill:#fff;}.cls-3{stroke:#4f6ae6;stroke-width:0.75px;}.cls-4,.cls-5{stroke:#2d307b;stroke-width:0.5px;}.cls-5{fill-rule:evenodd;}</style></defs><g id="Layer_2" data-name="Layer 2"><g id="Layer_1-2" data-name="Layer 1"><path class="cls-1" d="M149.39,27.47h0a.81.81,0,0,0-.22-.45l-.23-.23c0-.23-.23-.23-.45-.45l-.23-.23-.23-.23L112.39.91a3.4,3.4,0,0,0-4.09,0L74.24,24.07,41.32.68a3.4,3.4,0,0,0-4.09,0l-35.64,25c-.23,0-.23.22-.45.22a.23.23,0,0,0-.23.23c-.23.23-.46.68-.68.91v.23A2.82,2.82,0,0,0,0,28.61v114.2a3.88,3.88,0,0,0,1.59,2.95l35.64,25h.23l.23.22h.23a3.21,3.21,0,0,0,1.59.46,4.13,4.13,0,0,0,1.58-.46h.23a.22.22,0,0,0,.23-.22h.23l33.6-23.62L109,170.74h.23l.22.22h.23a3.28,3.28,0,0,0,1.59.46,5.75,5.75,0,0,0,1.59-.46h.23a.22.22,0,0,0,.22-.22h.23l35.65-25,.22-.23V27.47ZM7.27,35.65,32.92,53.58,7.27,71.52Zm28.38,125.1L7.27,141V85.59L25.2,98.08l10.45,7.27Zm71.29.22L78.56,141.22V85.59l28.38,20ZM108.3,56.53l31.33,22-27.7,19.52-1.59,1.14L77,75.6h-.23a.22.22,0,0,1-.23-.22h-.22a.23.23,0,0,1-.23-.23H73.33a.22.22,0,0,0-.22.23h-.23a.22.22,0,0,0-.23.22h-.22L39.28,99.22l-1.59-1.14L10,78.56l31.33-22a3.53,3.53,0,0,0,0-5.9L10,28.61,39.28,8.17,72.2,31.33a3.4,3.4,0,0,0,4.09,0L110.34,8.17l29.29,20.44-31.33,22a3.53,3.53,0,0,0,0,5.9Z"/><circle class="cls-2" cx="177.64" cy="44.26" r="37"/><path class="cls-3" d="M177.63,6.82l-.5,1.71V58l.5.5,23-13.59Z"/><path class="cls-3" d="M177.63,6.82,154.65,45l23,13.59V6.82Z"/><path class="cls-3" d="M177.63,62.89l-.28.34V80.87l.28.83,23-32.39Z"/><path class="cls-3" d="M177.63,81.7V62.89l-23-13.58Z"/><path class="cls-3" d="M177.63,58.54l23-13.59-23-10.44Z"/><path class="cls-3" d="M154.65,45l23,13.59v-24Z"/><circle class="cls-2" cx="177.64" cy="127.59" r="37"/><path class="cls-4" d="M170.41,96.8c-.83-.12-.88-.15-.48-.2a13.18,13.18,0,0,1,3.75.33c2.86.68,5.43,2.42,8.17,5.48l.71.83,1-.15a22.29,22.29,0,0,1,12.72,1.58,17.19,17.19,0,0,1,2.87,1.67,3.88,3.88,0,0,1,.27,1.11,6.73,6.73,0,0,1-.43,4.32,1.17,1.17,0,0,0-.12,1.28,1.18,1.18,0,0,0,1.08.68c1,0,1.94-1.51,2.42-3.62l.2-.83.35.4a15.51,15.51,0,0,1,3.85,7.62l.08.6-.36-.52a6.81,6.81,0,0,0-1.91-2c-1.35-.91-2.78-1.19-6.56-1.39a27.15,27.15,0,0,1-7.27-1.11c-3.26-1.08-4.92-2.46-8.77-7.59a38,38,0,0,0-3.85-4.53,13.54,13.54,0,0,0-7.75-3.93Z"/><path class="cls-4" d="M200,101.84a8.73,8.73,0,0,1,.71-3.42,3.19,3.19,0,0,1,.35-.68c.05,0,0,.28-.15.6a7.43,7.43,0,0,0-.16,3.5c.28,1.79.4,2,2.31,4,.88.91,1.91,2.07,2.31,2.54l.68.88-.68-.63a24.18,24.18,0,0,0-3.17-2.51c-.28-.15-.32-.15-.52,0s-.2.4-.2,1.55a8.56,8.56,0,0,1-.88,4c-.32.6-.35.48-.08-.2a5.82,5.82,0,0,0,.23-2.46c0-3.45-.4-4.3-2.81-5.68-.6-.36-1.64-.88-2.22-1.16a11.26,11.26,0,0,1-1.08-.52,19,19,0,0,1,3.34,1c1.39.56,1.63.6,1.79.56s.18-.42.23-1.42Z"/><path class="cls-4" d="M172,107.77a14.18,14.18,0,0,1-2.51-8.55l.08-.83.4.08a9.7,9.7,0,0,1,2.54,1c1.59,1,2.31,2.27,3,5.53.2,1,.48,2.06.6,2.42a14.49,14.49,0,0,0,1.59,2.86c.43.63.15,1-.83.88A8.17,8.17,0,0,1,172,107.77Z"/><path class="cls-4" d="M198,125.05c-7.87-3.18-10.64-5.92-10.64-10.57,0-.67,0-1.23,0-1.23a4.42,4.42,0,0,1,.68.52c1.59,1.28,3.37,1.84,8.35,2.55a33.91,33.91,0,0,1,6.08,1.27c4.8,1.59,7.79,4.85,8.5,9.26a16.21,16.21,0,0,1-.23,5,10.11,10.11,0,0,1-1.28,2.86s-.12-.2-.12-.52a6.47,6.47,0,0,0-2.31-4.5c-1.68-1.42-3.82-2.49-9.07-4.6Z"/><path class="cls-4" d="M192.42,126.36a9.12,9.12,0,0,0-.4-1.67l-.2-.6.35.43a7.17,7.17,0,0,1,1.28,2.31,4.92,4.92,0,0,1,.28,2.22,5.19,5.19,0,0,1-.28,2.14,7.42,7.42,0,0,1-1.66,2.67,9.6,9.6,0,0,1-6,2.61c-.48.05-1.84.16-3,.23a23.73,23.73,0,0,0-6.76,1.11,1.45,1.45,0,0,1-.53.13,9.46,9.46,0,0,1,2.14-1.28,21.57,21.57,0,0,1,6-1.59,26,26,0,0,0,3.55-.71C191.11,133.15,193.05,130.1,192.42,126.36Z"/><path class="cls-4" d="M196,132.76a9.13,9.13,0,0,1-.71-6.43c.07-.2.15-.41.23-.41a1.83,1.83,0,0,1,.55.28c.48.33,1.47.88,4,2.27,3.22,1.75,5.05,3.09,6.32,4.65a9.92,9.92,0,0,1,2.11,4.8,16,16,0,0,1-.2,4.73,11.74,11.74,0,0,1-5.76,7.62,6.27,6.27,0,0,1-.84.4,4.19,4.19,0,0,1,.36-.88,7.84,7.84,0,0,0,.35-6.16,25.39,25.39,0,0,0-3.17-5.72,35.53,35.53,0,0,1-3.26-5.15Z"/><path class="cls-4" d="M166.44,144.91a21.82,21.82,0,0,1,9.88-4.77,14.88,14.88,0,0,1,5.13.2,8.8,8.8,0,0,1,5,3.22,12.05,12.05,0,0,1,1.83,5.4c.15,1.08.35,2.19.4,2.42a5.34,5.34,0,0,0,1.76,3.14c1.23.91,3.37,1,5.48.16a2.19,2.19,0,0,1,.68-.2,6.24,6.24,0,0,1-1.71,1.15,5.6,5.6,0,0,1-2.87.68,5.74,5.74,0,0,1-4.85-3,23.88,23.88,0,0,1-1.31-2.62c-1.38-3.22-2.11-4.18-3.74-5.25a4.89,4.89,0,0,0-4.65-.43,3,3,0,0,0-1,4.65,4,4,0,0,0,2.26,1.18,2.42,2.42,0,0,0,2.74-2.42,1.89,1.89,0,0,0-1.31-1.94c-1.27-.55-2.66.08-2.61,1.31a1.09,1.09,0,0,0,.75,1.08c.32.15.32.15.08.12a1.47,1.47,0,0,1-.53-2.58c1.11-1.11,3.45-.63,4.25.91a4,4,0,0,1,.08,2.69,3.7,3.7,0,0,1-4.53,2.14c-1.31-.35-1.86-.71-3.45-2.34-2.78-2.86-3.85-3.42-7.82-4l-.75-.12Z"/><path class="cls-5" d="M145.54,81c9.26,11.24,23.52,28.72,24.24,29.67.6.8.35,1.56-.63,2.11a5.89,5.89,0,0,1-2.27.64,2.91,2.91,0,0,1-1.9-.84c-.36-.35-1.91-2.61-5.41-8.07-2.66-4.17-4.93-7.62-5-7.66s-.15-.08,4.68,8.57c3.07,5.44,4.05,7.39,4.05,7.63,0,.52-.15.8-.8,1.5-1.08,1.19-1.55,2.55-1.91,5.36-.4,3.15-1.46,5.36-4.52,9.14a15.74,15.74,0,0,0-2.51,3.54,6.92,6.92,0,0,0-.81,3.17,9.94,9.94,0,0,0,.53,3.9,13.22,13.22,0,0,0,1.91,3.74,9.39,9.39,0,0,1,1.46,2.89c0,.33.08.33,1.51,0,3.42-.8,6.24-2.14,7.79-3.82a3.55,3.55,0,0,0,1.19-3,3.35,3.35,0,0,0-.28-1.67c-.4-.88-1.15-1.58-2.79-2.69-2.14-1.47-3.06-2.67-3.29-4.25-.2-1.36,0-2.27,1.23-4.78a14.42,14.42,0,0,0,1.76-6.28c.12-1.66.32-2.34.8-2.86a2.91,2.91,0,0,1,2.18-.91,7.33,7.33,0,0,0,4.38-1.79,3.79,3.79,0,0,0,1.35-2.89l0-.91-.53-.56c-1.87-2.14-27.73-30.58-27.85-30.58S144.79,80,145.54,81Zm12.2,56.5a1.64,1.64,0,0,0-.53-2.19c-.67-.43-1.71-.23-1.71.36a.42.42,0,0,0,.33.4c.35.2.4.4.12.83s-.28.83.08,1.11A1.14,1.14,0,0,0,157.74,137.49Z"/><path class="cls-5" d="M173.83,116.59a3.54,3.54,0,0,0-2.14,2.34,3.45,3.45,0,0,0,.2,2.14c.43.56.83.71,1.94.71,2.19,0,4-1,4.25-2.11a3.06,3.06,0,0,0-1.79-2.86A4.08,4.08,0,0,0,173.83,116.59Zm2.54,2a.9.9,0,0,0-.4-1.36c-1.08-.67-2.69-.12-2.69.91,0,.53.83,1.08,1.63,1.08A2.24,2.24,0,0,0,176.37,118.58Z"/></g></g></svg>
