<?xml version="1.0" encoding="UTF-8"?>
<svg xmlns="http://www.w3.org/2000/svg" xmlns:xlink="http://www.w3.org/1999/xlink" width="40pt" height="42pt" viewBox="0 0 40 42" version="1.1">
<g id="surface1">
<path style=" stroke:none;fill-rule:evenodd;fill:rgb(92.54902%,92.941176%,96.078431%);fill-opacity:1;" d="M 0 20.960938 L 0 41.921875 L 40 41.921875 L 40 0 L 0 0 L 0 20.960938 M 22.058594 2.039062 C 34.503906 3.421875 42.460938 15.824219 38.5 27.660156 C 34.59375 39.332031 20.941406 44.488281 10.234375 38.335938 C 6.929688 36.4375 4.023438 33.335938 2.484375 30.058594 C 2.109375 29.269531 2.023438 29.074219 1.828125 28.574219 C -1.855469 19.242188 2.222656 8.570312 11.199219 4.042969 C 11.585938 3.847656 12.015625 3.640625 12.160156 3.582031 C 12.761719 3.328125 12.921875 3.265625 13.339844 3.113281 C 15.019531 2.503906 16.945312 2.09375 18.621094 1.984375 C 19.09375 1.957031 21.667969 1.996094 22.058594 2.039062 M 20.503906 7.011719 C 20.4375 7.117188 18.570312 10.164062 17.949219 11.179688 C 17.707031 11.574219 17.367188 12.125 17.199219 12.398438 C 17.027344 12.675781 16.570312 13.421875 16.179688 14.058594 C 15.789062 14.699219 15.429688 15.28125 15.378906 15.359375 C 15.332031 15.4375 15.089844 15.832031 14.839844 16.238281 C 14.59375 16.648438 14.351562 17.042969 14.300781 17.121094 C 14.25 17.195312 13.90625 17.753906 13.539062 18.359375 C 13.167969 18.964844 12.5625 19.953125 12.191406 20.554688 C 11.824219 21.15625 11.519531 21.664062 11.519531 21.683594 C 11.519531 21.738281 11.609375 21.726562 11.699219 21.667969 C 11.746094 21.636719 11.859375 21.582031 11.960938 21.542969 C 12.210938 21.445312 12.550781 21.292969 12.726562 21.199219 C 12.808594 21.15625 12.894531 21.121094 12.914062 21.121094 C 12.949219 21.121094 13.339844 20.949219 13.820312 20.71875 C 13.90625 20.679688 14.070312 20.605469 14.179688 20.558594 C 14.289062 20.511719 14.488281 20.421875 14.621094 20.359375 C 14.753906 20.296875 15.070312 20.15625 15.328125 20.046875 C 15.585938 19.933594 15.828125 19.824219 15.867188 19.804688 C 15.90625 19.78125 16.03125 19.726562 16.140625 19.679688 C 16.25 19.632812 16.46875 19.53125 16.628906 19.457031 C 16.785156 19.382812 16.925781 19.320312 16.9375 19.320312 C 16.953125 19.320312 17.085938 19.265625 17.230469 19.195312 C 17.636719 19.011719 17.789062 18.941406 18.160156 18.777344 C 18.347656 18.695312 18.609375 18.578125 18.738281 18.519531 C 19.496094 18.179688 19.632812 18.121094 19.675781 18.121094 C 19.699219 18.121094 19.71875 18.105469 19.71875 18.085938 C 19.71875 18.066406 19.800781 18.027344 19.902344 18 C 20 17.972656 20.125 17.917969 20.171875 17.878906 C 20.21875 17.84375 20.3125 17.800781 20.378906 17.785156 C 20.6875 17.710938 20.660156 18.222656 20.648438 12.246094 C 20.644531 8.839844 20.625 6.921875 20.601562 6.921875 C 20.578125 6.921875 20.535156 6.960938 20.503906 7.011719 M 11.683594 23.703125 C 11.765625 23.8125 12.445312 24.753906 13.199219 25.800781 C 13.957031 26.84375 14.871094 28.113281 15.238281 28.621094 C 15.945312 29.59375 16 29.671875 16.71875 30.667969 C 17.675781 31.996094 18.859375 33.632812 19.054688 33.898438 C 19.167969 34.050781 19.285156 34.214844 19.320312 34.265625 C 19.351562 34.3125 19.566406 34.613281 19.796875 34.925781 C 20.027344 35.242188 20.292969 35.613281 20.390625 35.75 C 20.488281 35.886719 20.582031 36 20.601562 36 C 20.625 36 20.640625 34.5625 20.640625 32.371094 L 20.636719 28.738281 L 19.976562 28.359375 C 19.609375 28.152344 19.136719 27.878906 18.925781 27.757812 C 17.285156 26.804688 16.75 26.496094 16.28125 26.222656 C 15.347656 25.683594 13.75 24.757812 13.519531 24.621094 C 12.859375 24.230469 11.6875 23.5625 11.621094 23.535156 C 11.558594 23.511719 11.574219 23.546875 11.683594 23.703125 "/>
<path style=" stroke:none;fill-rule:evenodd;fill:rgb(39.215686%,48.627451%,92.156863%);fill-opacity:1;" d="M 19.300781 2.003906 C 18.714844 2.03125 17.101562 2.179688 16.992188 2.21875 C 16.964844 2.230469 16.695312 2.285156 16.394531 2.339844 C 13.628906 2.84375 11.089844 3.933594 8.601562 5.679688 C 7.800781 6.242188 7.15625 6.800781 6.238281 7.71875 C 4.988281 8.96875 4.464844 9.632812 3.378906 11.320312 C 2.910156 12.050781 2.183594 13.53125 1.828125 14.480469 C 1.5625 15.1875 1.511719 15.335938 1.378906 15.777344 C 0.09375 20.066406 0.289062 24.613281 1.941406 28.703125 C 2.226562 29.410156 2.671875 30.351562 2.949219 30.835938 C 3.332031 31.503906 3.871094 32.355469 4.140625 32.71875 C 4.183594 32.78125 4.253906 32.878906 4.300781 32.945312 C 5.160156 34.207031 7.242188 36.289062 8.496094 37.140625 C 8.558594 37.183594 8.660156 37.257812 8.722656 37.300781 C 9.890625 38.148438 11.648438 39.089844 13.039062 39.609375 C 13.726562 39.867188 13.898438 39.925781 14.421875 40.078125 C 15.320312 40.34375 15.355469 40.351562 15.878906 40.460938 C 16.4375 40.582031 16.539062 40.597656 17.339844 40.714844 C 20.542969 41.175781 24.039062 40.765625 27.078125 39.566406 C 27.246094 39.5 27.480469 39.410156 27.601562 39.359375 C 27.992188 39.207031 29.410156 38.492188 29.878906 38.210938 C 31.339844 37.335938 32.503906 36.4375 33.683594 35.273438 C 34.316406 34.652344 34.527344 34.421875 35.089844 33.738281 C 35.632812 33.078125 36.242188 32.214844 36.726562 31.410156 C 39.398438 26.953125 40.15625 21.523438 38.8125 16.460938 C 38.660156 15.890625 38.480469 15.296875 38.359375 14.96875 C 38.316406 14.855469 38.242188 14.65625 38.195312 14.53125 C 37.835938 13.574219 37.132812 12.132812 36.636719 11.339844 C 35.09375 8.878906 33.234375 6.921875 30.941406 5.355469 C 28.761719 3.867188 26.03125 2.753906 23.503906 2.316406 C 23.238281 2.273438 23.015625 2.230469 23.003906 2.222656 C 22.972656 2.203125 22.359375 2.136719 21.558594 2.0625 C 20.726562 1.988281 20.0625 1.96875 19.300781 2.003906 M 21.542969 8.28125 C 22.019531 9.0625 22.609375 10.023438 22.851562 10.421875 C 23.09375 10.816406 23.332031 11.203125 23.378906 11.28125 C 23.429688 11.355469 23.933594 12.175781 24.5 13.101562 C 25.066406 14.023438 25.675781 15.015625 25.851562 15.300781 C 26.027344 15.585938 26.269531 15.980469 26.390625 16.179688 C 26.511719 16.378906 26.652344 16.601562 26.699219 16.679688 C 26.75 16.757812 26.949219 17.082031 27.140625 17.398438 C 27.332031 17.71875 27.53125 18.042969 27.582031 18.121094 C 27.707031 18.316406 28.078125 18.921875 28.859375 20.199219 C 29.230469 20.804688 29.582031 21.378906 29.644531 21.476562 C 29.785156 21.691406 29.785156 21.703125 29.671875 21.765625 C 29.621094 21.789062 29.371094 21.933594 29.121094 22.082031 C 28.113281 22.671875 27.210938 23.195312 27.058594 23.28125 C 26.972656 23.328125 26.738281 23.464844 26.539062 23.582031 C 26.34375 23.695312 26.117188 23.828125 26.039062 23.871094 C 25.789062 24.011719 21.390625 26.5625 20.984375 26.804688 C 20.644531 27.003906 20.578125 27.03125 20.503906 26.992188 C 20.457031 26.96875 20.042969 26.726562 19.578125 26.460938 C 19.117188 26.191406 18.613281 25.898438 18.460938 25.8125 C 18.304688 25.726562 17.503906 25.261719 16.679688 24.78125 C 15.855469 24.300781 15.019531 23.816406 14.820312 23.699219 C 14.621094 23.585938 14.171875 23.324219 13.820312 23.121094 C 13.46875 22.914062 13.019531 22.65625 12.820312 22.542969 C 12.054688 22.101562 11.484375 21.757812 11.460938 21.722656 C 11.441406 21.691406 11.914062 20.875 12.328125 20.230469 C 12.386719 20.136719 12.472656 19.996094 12.519531 19.921875 C 12.566406 19.84375 12.707031 19.609375 12.835938 19.398438 C 12.964844 19.191406 13.164062 18.867188 13.277344 18.679688 C 13.5 18.3125 14.007812 17.484375 14.382812 16.878906 C 14.636719 16.46875 14.894531 16.050781 15.289062 15.40625 C 15.425781 15.179688 15.589844 14.921875 15.648438 14.828125 C 15.707031 14.734375 15.785156 14.605469 15.824219 14.539062 C 15.882812 14.433594 16.382812 13.613281 16.621094 13.238281 C 16.667969 13.164062 16.765625 13 16.839844 12.878906 C 16.914062 12.757812 17.011719 12.597656 17.058594 12.519531 C 17.109375 12.441406 17.25 12.214844 17.375 12.011719 C 17.734375 11.417969 17.996094 10.996094 18.535156 10.121094 C 18.816406 9.667969 19.058594 9.273438 19.082031 9.238281 C 19.605469 8.371094 19.804688 8.050781 19.925781 7.871094 C 19.96875 7.8125 20 7.753906 20 7.746094 C 20 7.707031 20.535156 6.859375 20.578125 6.832031 C 20.636719 6.792969 20.574219 6.699219 21.542969 8.28125 M 11.933594 23.640625 C 12.488281 23.957031 12.535156 23.984375 12.898438 24.199219 C 13.25 24.402344 13.546875 24.574219 13.921875 24.789062 C 14.019531 24.84375 14.308594 25.011719 14.558594 25.160156 C 14.8125 25.308594 15.074219 25.460938 15.140625 25.496094 C 15.285156 25.574219 15.472656 25.683594 16.101562 26.050781 C 16.363281 26.203125 16.695312 26.398438 16.839844 26.480469 C 16.984375 26.5625 17.316406 26.757812 17.578125 26.910156 C 18.296875 27.328125 18.746094 27.589844 19.5 28.023438 C 19.875 28.238281 20.261719 28.464844 20.359375 28.527344 C 20.570312 28.664062 20.65625 28.667969 20.839844 28.554688 C 20.917969 28.503906 21.148438 28.371094 21.351562 28.253906 C 22.175781 27.777344 23.632812 26.933594 24.101562 26.660156 C 24.296875 26.542969 24.523438 26.414062 24.601562 26.371094 C 24.675781 26.324219 25.027344 26.121094 25.378906 25.917969 C 25.730469 25.714844 26.351562 25.355469 26.761719 25.117188 C 27.167969 24.882812 27.851562 24.488281 28.28125 24.238281 C 29.957031 23.265625 29.890625 23.285156 29.460938 23.878906 C 29.292969 24.109375 28.996094 24.523438 28.800781 24.800781 C 28.28125 25.523438 27.519531 26.574219 27.035156 27.238281 C 26.914062 27.40625 26.222656 28.359375 25.5 29.359375 C 24.777344 30.359375 24.003906 31.429688 23.785156 31.734375 C 23.5625 32.039062 23.324219 32.363281 23.261719 32.457031 C 23.195312 32.550781 22.84375 33.035156 22.480469 33.535156 C 22.117188 34.035156 21.785156 34.496094 21.738281 34.558594 C 20.957031 35.660156 20.65625 36.058594 20.601562 36.058594 C 20.554688 36.058594 20.117188 35.464844 17.949219 32.464844 C 17.570312 31.941406 17.074219 31.257812 16.847656 30.945312 C 16.507812 30.476562 16.078125 29.878906 15.621094 29.238281 C 15.574219 29.179688 15.433594 28.980469 15.300781 28.800781 C 15.167969 28.621094 15.023438 28.421875 14.980469 28.359375 C 14.9375 28.296875 14.734375 28.015625 14.53125 27.734375 C 14.328125 27.453125 13.949219 26.921875 13.683594 26.558594 C 13.421875 26.195312 13.089844 25.742188 12.953125 25.550781 C 12.8125 25.355469 12.644531 25.121094 12.574219 25.027344 C 11.289062 23.28125 11.28125 23.265625 11.933594 23.640625 "/>
<path style=" stroke:none;fill-rule:evenodd;fill:rgb(51.372549%,57.647059%,92.156863%);fill-opacity:1;" d="M 19.570312 1.988281 C 19.628906 1.996094 19.730469 1.996094 19.789062 1.988281 C 19.851562 1.980469 19.800781 1.972656 19.679688 1.972656 C 19.558594 1.972656 19.507812 1.980469 19.570312 1.988281 M 20.210938 1.988281 C 20.269531 1.996094 20.371094 1.996094 20.429688 1.988281 C 20.492188 1.980469 20.441406 1.972656 20.320312 1.972656 C 20.199219 1.972656 20.148438 1.980469 20.210938 1.988281 M 33.71875 7.648438 C 34.109375 8.050781 34.160156 8.097656 34.160156 8.070312 C 34.160156 8.0625 33.964844 7.871094 33.730469 7.640625 L 33.300781 7.21875 L 33.71875 7.648438 M 6.21875 7.691406 L 5.859375 8.058594 L 6.230469 7.699219 C 6.433594 7.503906 6.601562 7.335938 6.601562 7.332031 C 6.601562 7.300781 6.554688 7.347656 6.21875 7.691406 M 20.671875 22.390625 C 20.664062 24.914062 20.660156 26.984375 20.660156 26.988281 C 20.664062 26.992188 20.769531 26.933594 20.902344 26.855469 C 21.125 26.71875 25.738281 24.039062 26.039062 23.871094 C 26.117188 23.828125 26.34375 23.695312 26.539062 23.582031 C 26.738281 23.464844 26.972656 23.328125 27.058594 23.28125 C 27.210938 23.195312 28.113281 22.671875 29.121094 22.082031 C 29.371094 21.933594 29.621094 21.789062 29.671875 21.765625 C 29.71875 21.738281 29.757812 21.695312 29.757812 21.667969 C 29.757812 21.636719 29.746094 21.636719 29.722656 21.675781 C 29.675781 21.75 29.558594 21.71875 29.09375 21.5 C 28.886719 21.398438 28.703125 21.320312 28.691406 21.320312 C 28.679688 21.320312 28.578125 21.277344 28.464844 21.226562 C 28.351562 21.175781 28.078125 21.050781 27.859375 20.949219 C 27.640625 20.847656 27.371094 20.726562 27.261719 20.683594 C 27.148438 20.640625 26.90625 20.535156 26.71875 20.449219 C 26.03125 20.121094 25.117188 19.71875 25.074219 19.71875 C 25.046875 19.71875 24.996094 19.695312 24.964844 19.667969 C 24.929688 19.636719 24.835938 19.589844 24.761719 19.5625 C 24.683594 19.535156 24.492188 19.453125 24.339844 19.378906 C 23.804688 19.128906 23.5 18.992188 23.300781 18.914062 C 23.191406 18.871094 22.992188 18.78125 22.859375 18.722656 C 22.726562 18.660156 22.539062 18.574219 22.441406 18.527344 C 22.339844 18.484375 21.933594 18.304688 21.53125 18.125 C 21.128906 17.945312 20.773438 17.800781 20.742188 17.800781 C 20.6875 17.800781 20.679688 18.328125 20.671875 22.390625 M 39.449219 20.679688 C 39.449219 20.777344 39.457031 20.820312 39.46875 20.769531 C 39.476562 20.71875 39.476562 20.640625 39.46875 20.589844 C 39.457031 20.539062 39.449219 20.582031 39.449219 20.679688 M 0.53125 20.71875 C 0.53125 20.820312 0.539062 20.859375 0.546875 20.808594 C 0.558594 20.761719 0.558594 20.679688 0.546875 20.628906 C 0.539062 20.582031 0.53125 20.621094 0.53125 20.71875 M 0.53125 22.160156 C 0.53125 22.257812 0.539062 22.300781 0.546875 22.25 C 0.558594 22.199219 0.558594 22.121094 0.546875 22.070312 C 0.539062 22.019531 0.53125 22.0625 0.53125 22.160156 M 39.449219 22.199219 C 39.449219 22.300781 39.457031 22.339844 39.46875 22.289062 C 39.476562 22.242188 39.476562 22.160156 39.46875 22.109375 C 39.457031 22.058594 39.449219 22.101562 39.449219 22.199219 M 29.65625 23.519531 C 29.65625 23.5625 29.660156 23.601562 29.667969 23.601562 C 29.671875 23.601562 29.695312 23.5625 29.71875 23.519531 C 29.753906 23.457031 29.75 23.441406 29.710938 23.441406 C 29.679688 23.441406 29.65625 23.476562 29.65625 23.519531 M 5.761719 34.738281 C 5.835938 34.816406 5.90625 34.878906 5.914062 34.878906 C 5.925781 34.878906 5.875 34.816406 5.800781 34.738281 C 5.726562 34.664062 5.65625 34.601562 5.644531 34.601562 C 5.632812 34.601562 5.683594 34.664062 5.761719 34.738281 M 6.558594 35.53125 C 6.558594 35.539062 6.617188 35.597656 6.691406 35.664062 L 6.820312 35.78125 L 6.703125 35.648438 C 6.59375 35.527344 6.558594 35.5 6.558594 35.53125 M 33.238281 35.699219 C 33.144531 35.800781 33.074219 35.878906 33.082031 35.878906 C 33.09375 35.878906 33.183594 35.800781 33.28125 35.699219 C 33.378906 35.601562 33.449219 35.519531 33.4375 35.519531 C 33.425781 35.519531 33.335938 35.601562 33.238281 35.699219 M 19.308594 40.910156 C 19.359375 40.917969 19.433594 40.917969 19.46875 40.90625 C 19.507812 40.898438 19.46875 40.890625 19.378906 40.890625 C 19.292969 40.890625 19.261719 40.898438 19.308594 40.910156 M 20.550781 40.910156 C 20.601562 40.917969 20.671875 40.917969 20.710938 40.90625 C 20.75 40.898438 20.707031 40.890625 20.621094 40.890625 C 20.53125 40.890625 20.5 40.898438 20.550781 40.910156 "/>
<path style=" stroke:none;fill-rule:evenodd;fill:rgb(60.784314%,67.45098%,92.54902%);fill-opacity:1;" d="M 18.949219 1.988281 C 19.023438 1.996094 19.128906 1.996094 19.191406 1.988281 C 19.25 1.980469 19.191406 1.972656 19.058594 1.972656 C 18.929688 1.972656 18.878906 1.980469 18.949219 1.988281 M 20.851562 1.988281 C 20.910156 1.996094 21.007812 1.996094 21.070312 1.988281 C 21.128906 1.980469 21.082031 1.972656 20.960938 1.972656 C 20.839844 1.972656 20.789062 1.980469 20.851562 1.988281 M 18.269531 2.027344 C 18.320312 2.039062 18.402344 2.039062 18.449219 2.027344 C 18.5 2.019531 18.460938 2.011719 18.359375 2.011719 C 18.261719 2.011719 18.21875 2.019531 18.269531 2.027344 M 21.550781 2.027344 C 21.597656 2.039062 21.679688 2.039062 21.730469 2.027344 C 21.78125 2.019531 21.738281 2.011719 21.640625 2.011719 C 21.539062 2.011719 21.5 2.019531 21.550781 2.027344 M 17.871094 2.066406 C 17.917969 2.078125 18 2.078125 18.050781 2.066406 C 18.097656 2.058594 18.058594 2.050781 17.960938 2.050781 C 17.859375 2.050781 17.820312 2.058594 17.871094 2.066406 M 22.261719 2.097656 C 22.652344 2.15625 22.925781 2.171875 22.660156 2.117188 C 22.570312 2.101562 22.363281 2.078125 22.199219 2.066406 L 21.898438 2.042969 L 22.261719 2.097656 M 17.550781 2.109375 C 17.601562 2.117188 17.671875 2.117188 17.710938 2.109375 C 17.75 2.097656 17.707031 2.089844 17.621094 2.089844 C 17.53125 2.089844 17.5 2.097656 17.550781 2.109375 M 17.25 2.148438 C 17.289062 2.15625 17.351562 2.15625 17.390625 2.148438 C 17.429688 2.136719 17.398438 2.128906 17.320312 2.128906 C 17.242188 2.128906 17.210938 2.136719 17.25 2.148438 M 15.960938 2.359375 C 15.878906 2.386719 15.875 2.390625 15.941406 2.390625 C 15.984375 2.390625 16.066406 2.378906 16.121094 2.359375 C 16.199219 2.335938 16.203125 2.328125 16.140625 2.328125 C 16.097656 2.328125 16.015625 2.34375 15.960938 2.359375 M 23.980469 2.382812 C 24.089844 2.410156 24.214844 2.433594 24.261719 2.429688 C 24.304688 2.429688 24.25 2.40625 24.140625 2.378906 C 24.03125 2.351562 23.902344 2.328125 23.859375 2.328125 C 23.816406 2.328125 23.871094 2.351562 23.980469 2.382812 M 24.621094 2.515625 C 24.664062 2.535156 24.761719 2.5625 24.839844 2.574219 C 24.9375 2.59375 24.953125 2.589844 24.898438 2.566406 C 24.855469 2.546875 24.757812 2.519531 24.679688 2.503906 C 24.582031 2.488281 24.566406 2.492188 24.621094 2.515625 M 15.101562 2.558594 C 15 2.605469 15.101562 2.605469 15.238281 2.558594 C 15.320312 2.535156 15.324219 2.527344 15.261719 2.527344 C 15.214844 2.527344 15.144531 2.542969 15.101562 2.558594 M 14.320312 2.78125 C 14.242188 2.808594 14.207031 2.832031 14.238281 2.832031 C 14.273438 2.832031 14.363281 2.808594 14.441406 2.78125 C 14.515625 2.75 14.554688 2.726562 14.519531 2.726562 C 14.488281 2.726562 14.398438 2.75 14.320312 2.78125 M 25.558594 2.78125 C 25.636719 2.808594 25.726562 2.832031 25.761719 2.832031 C 25.792969 2.832031 25.757812 2.808594 25.679688 2.78125 C 25.601562 2.75 25.511719 2.726562 25.480469 2.726562 C 25.445312 2.726562 25.484375 2.75 25.558594 2.78125 M 26.277344 3.003906 C 26.394531 3.046875 26.5 3.074219 26.507812 3.0625 C 26.527344 3.046875 26.164062 2.917969 26.101562 2.921875 C 26.078125 2.925781 26.15625 2.960938 26.277344 3.003906 M 13.007812 3.226562 C 12.914062 3.261719 12.84375 3.296875 12.851562 3.304688 C 12.867188 3.324219 13.238281 3.199219 13.238281 3.175781 C 13.238281 3.152344 13.195312 3.160156 13.007812 3.226562 M 26.921875 3.234375 C 26.953125 3.253906 27.023438 3.28125 27.078125 3.296875 C 27.148438 3.316406 27.160156 3.3125 27.121094 3.285156 C 27.085938 3.265625 27.015625 3.238281 26.960938 3.222656 C 26.890625 3.203125 26.878906 3.207031 26.921875 3.234375 M 12.5 3.4375 C 12.410156 3.480469 12.359375 3.511719 12.378906 3.515625 C 12.433594 3.515625 12.75 3.367188 12.699219 3.363281 C 12.679688 3.363281 12.589844 3.394531 12.5 3.4375 M 27.480469 3.460938 C 27.535156 3.492188 27.597656 3.515625 27.621094 3.515625 C 27.640625 3.515625 27.613281 3.492188 27.558594 3.460938 C 27.503906 3.429688 27.441406 3.402344 27.421875 3.402344 C 27.398438 3.402344 27.425781 3.429688 27.480469 3.460938 M 27.957031 3.664062 C 28.117188 3.738281 28.257812 3.792969 28.265625 3.785156 C 28.285156 3.769531 27.734375 3.519531 27.691406 3.523438 C 27.671875 3.523438 27.792969 3.585938 27.957031 3.664062 M 11.898438 3.699219 C 11.746094 3.773438 11.632812 3.835938 11.644531 3.835938 C 11.660156 3.839844 11.800781 3.777344 11.964844 3.703125 C 12.128906 3.628906 12.242188 3.566406 12.21875 3.5625 C 12.199219 3.5625 12.054688 3.625 11.898438 3.699219 M 28.402344 3.855469 C 28.445312 3.890625 28.679688 4 28.679688 3.980469 C 28.679688 3.960938 28.457031 3.839844 28.414062 3.839844 C 28.398438 3.839844 28.394531 3.847656 28.402344 3.855469 M 11.039062 4.121094 C 10.964844 4.164062 10.914062 4.199219 10.933594 4.199219 C 10.972656 4.199219 11.199219 4.082031 11.199219 4.058594 C 11.199219 4.03125 11.199219 4.035156 11.039062 4.121094 M 10.671875 4.304688 C 10.519531 4.382812 10.53125 4.417969 10.679688 4.339844 C 10.746094 4.304688 10.800781 4.269531 10.800781 4.257812 C 10.800781 4.234375 10.796875 4.234375 10.671875 4.304688 M 29.199219 4.257812 C 29.199219 4.269531 29.253906 4.304688 29.320312 4.339844 C 29.386719 4.375 29.441406 4.394531 29.441406 4.382812 C 29.441406 4.371094 29.386719 4.335938 29.320312 4.300781 C 29.253906 4.265625 29.199219 4.246094 29.199219 4.257812 M 10.210938 4.5625 C 10.09375 4.632812 10 4.695312 10 4.707031 C 10 4.730469 10.355469 4.53125 10.417969 4.476562 C 10.484375 4.414062 10.425781 4.4375 10.210938 4.5625 M 29.558594 4.457031 C 29.558594 4.46875 29.613281 4.507812 29.679688 4.539062 C 29.746094 4.574219 29.800781 4.59375 29.800781 4.582031 C 29.800781 4.570312 29.746094 4.535156 29.679688 4.5 C 29.613281 4.464844 29.558594 4.445312 29.558594 4.457031 M 9.808594 4.804688 C 9.671875 4.890625 9.628906 4.949219 9.75 4.882812 C 9.84375 4.832031 9.984375 4.722656 9.960938 4.722656 C 9.949219 4.722656 9.882812 4.757812 9.808594 4.804688 M 30.316406 4.914062 C 30.371094 4.957031 30.46875 5.023438 30.539062 5.058594 L 30.660156 5.125 L 30.5625 5.046875 C 30.507812 5.003906 30.410156 4.9375 30.34375 4.902344 L 30.21875 4.832031 L 30.316406 4.914062 M 9.488281 5.003906 C 9.355469 5.09375 9.308594 5.152344 9.429688 5.085938 C 9.523438 5.035156 9.664062 4.921875 9.640625 4.921875 C 9.628906 4.921875 9.5625 4.957031 9.488281 5.003906 M 9.195312 5.203125 C 9.105469 5.28125 9.105469 5.28125 9.1875 5.242188 C 9.234375 5.21875 9.285156 5.183594 9.300781 5.160156 C 9.339844 5.097656 9.296875 5.113281 9.195312 5.203125 M 8.75 5.503906 C 8.578125 5.625 8.441406 5.730469 8.441406 5.742188 C 8.441406 5.765625 8.941406 5.421875 9.039062 5.332031 C 9.15625 5.226562 9.054688 5.285156 8.75 5.503906 M 30.941406 5.308594 C 30.960938 5.332031 31.1875 5.5 31.441406 5.675781 C 31.691406 5.855469 31.835938 5.945312 31.761719 5.878906 C 31.613281 5.75 30.871094 5.234375 30.941406 5.308594 M 8.238281 5.882812 L 8.101562 6.007812 L 8.230469 5.921875 C 8.34375 5.847656 8.429688 5.761719 8.390625 5.761719 C 8.382812 5.761719 8.316406 5.816406 8.238281 5.882812 M 7.789062 6.222656 C 7.640625 6.34375 7.519531 6.453125 7.519531 6.464844 C 7.519531 6.472656 7.644531 6.382812 7.800781 6.257812 C 8.042969 6.0625 8.109375 5.996094 8.070312 6 C 8.066406 6 7.9375 6.101562 7.789062 6.222656 M 31.921875 6.011719 C 31.921875 6.023438 32.050781 6.136719 32.210938 6.265625 C 32.371094 6.390625 32.476562 6.46875 32.449219 6.433594 C 32.390625 6.359375 31.921875 5.984375 31.921875 6.011719 M 6.980469 6.914062 C 6.417969 7.421875 5.449219 8.414062 5.085938 8.851562 C 4.699219 9.324219 4.820312 9.21875 5.292969 8.671875 C 5.71875 8.175781 6.644531 7.246094 7.199219 6.75 C 7.363281 6.601562 7.492188 6.480469 7.480469 6.480469 C 7.46875 6.480469 7.242188 6.675781 6.980469 6.914062 M 33.664062 7.578125 C 34.171875 8.085938 34.746094 8.695312 34.9375 8.929688 C 35.132812 9.167969 35.300781 9.359375 35.308594 9.359375 C 35.332031 9.359375 35.121094 9.09375 34.804688 8.71875 C 34.503906 8.371094 33.457031 7.300781 33.0625 6.945312 C 32.886719 6.789062 33.160156 7.074219 33.664062 7.578125 M 20.535156 6.929688 C 20.472656 7.003906 20.472656 7.007812 20.53125 6.964844 C 20.644531 6.875 20.640625 6.691406 20.640625 12.273438 C 20.640625 18.203125 20.664062 17.714844 20.378906 17.78125 C 20.3125 17.800781 20.21875 17.84375 20.171875 17.878906 C 20.125 17.917969 20 17.972656 19.902344 18 C 19.800781 18.027344 19.71875 18.066406 19.71875 18.085938 C 19.71875 18.105469 19.699219 18.121094 19.675781 18.121094 C 19.632812 18.121094 19.496094 18.179688 18.738281 18.519531 C 18.609375 18.578125 18.347656 18.695312 18.160156 18.777344 C 17.789062 18.941406 17.636719 19.011719 17.230469 19.195312 C 17.085938 19.265625 16.953125 19.320312 16.9375 19.320312 C 16.925781 19.320312 16.785156 19.382812 16.628906 19.457031 C 16.46875 19.53125 16.25 19.632812 16.140625 19.679688 C 16.03125 19.726562 15.90625 19.78125 15.867188 19.804688 C 15.828125 19.824219 15.585938 19.933594 15.328125 20.046875 C 15.070312 20.15625 14.753906 20.296875 14.621094 20.359375 C 14.488281 20.421875 14.289062 20.511719 14.179688 20.558594 C 14.070312 20.605469 13.90625 20.679688 13.820312 20.71875 C 13.339844 20.949219 12.949219 21.121094 12.914062 21.121094 C 12.894531 21.121094 12.808594 21.15625 12.726562 21.199219 C 12.546875 21.292969 12.046875 21.519531 12.015625 21.519531 C 12.003906 21.519531 11.894531 21.570312 11.773438 21.628906 C 11.585938 21.71875 11.546875 21.726562 11.515625 21.679688 C 11.480469 21.628906 11.476562 21.628906 11.488281 21.679688 C 11.503906 21.734375 11.925781 21.988281 13.359375 22.816406 C 14.042969 23.214844 16.417969 24.589844 17.78125 25.378906 C 18.394531 25.738281 19.277344 26.25 19.734375 26.515625 C 20.195312 26.78125 20.585938 27 20.605469 27 C 20.625 27 20.640625 24.933594 20.640625 22.339844 C 20.640625 17.921875 20.644531 17.683594 20.710938 17.707031 C 20.773438 17.730469 21.082031 17.867188 23.121094 18.777344 C 23.527344 18.960938 24.183594 19.253906 24.578125 19.429688 C 24.976562 19.609375 25.667969 19.917969 26.121094 20.121094 C 26.570312 20.320312 27.265625 20.632812 27.660156 20.808594 C 28.054688 20.984375 28.65625 21.253906 28.992188 21.40625 C 29.328125 21.554688 29.632812 21.679688 29.667969 21.679688 C 29.738281 21.679688 29.820312 21.828125 28.871094 20.28125 C 28.484375 19.652344 27.925781 18.742188 27.628906 18.253906 C 26.714844 16.765625 25.40625 14.632812 24.179688 12.640625 C 22.898438 10.554688 22.109375 9.269531 21.53125 8.320312 C 21.148438 7.699219 20.957031 7.386719 20.734375 7.027344 L 20.613281 6.839844 L 20.535156 6.929688 M 20.375 7.171875 C 20.238281 7.402344 20.230469 7.421875 20.296875 7.339844 C 20.378906 7.242188 20.449219 7.121094 20.421875 7.121094 C 20.414062 7.121094 20.390625 7.140625 20.375 7.171875 M 20.175781 7.488281 C 20.039062 7.722656 20.027344 7.742188 20.097656 7.660156 C 20.179688 7.5625 20.25 7.441406 20.222656 7.441406 C 20.214844 7.441406 20.191406 7.460938 20.175781 7.488281 M 19.929688 7.890625 C 19.875 7.960938 19.792969 8.121094 19.816406 8.121094 C 19.824219 8.121094 19.871094 8.058594 19.914062 7.980469 C 19.996094 7.839844 20.003906 7.796875 19.929688 7.890625 M 19.09375 9.25 C 18.957031 9.484375 18.949219 9.503906 19.019531 9.421875 C 19.101562 9.324219 19.171875 9.199219 19.144531 9.199219 C 19.132812 9.199219 19.113281 9.222656 19.09375 9.25 M 4.347656 9.789062 C 4.054688 10.179688 3.945312 10.339844 4.03125 10.261719 C 4.097656 10.195312 4.679688 9.398438 4.660156 9.398438 C 4.652344 9.398438 4.511719 9.574219 4.347656 9.789062 M 35.578125 9.734375 C 35.640625 9.8125 35.699219 9.878906 35.707031 9.878906 C 35.734375 9.878906 35.5625 9.644531 35.511719 9.613281 C 35.484375 9.597656 35.515625 9.652344 35.578125 9.734375 M 18.773438 9.769531 C 18.636719 10.003906 18.628906 10.023438 18.699219 9.941406 C 18.78125 9.84375 18.851562 9.71875 18.824219 9.71875 C 18.8125 9.71875 18.792969 9.742188 18.773438 9.769531 M 36 10.320312 C 36.089844 10.453125 36.171875 10.558594 36.183594 10.558594 C 36.195312 10.558594 36.128906 10.453125 36.039062 10.320312 C 35.949219 10.1875 35.867188 10.078125 35.855469 10.078125 C 35.847656 10.078125 35.910156 10.1875 36 10.320312 M 3.730469 10.671875 C 3.46875 11.058594 3.285156 11.359375 3.347656 11.300781 C 3.40625 11.238281 4 10.320312 3.980469 10.320312 C 3.96875 10.320312 3.855469 10.476562 3.730469 10.671875 M 18.335938 10.488281 C 18.199219 10.722656 18.1875 10.742188 18.257812 10.660156 C 18.339844 10.5625 18.410156 10.441406 18.382812 10.441406 C 18.375 10.441406 18.351562 10.460938 18.335938 10.488281 M 36.328125 10.808594 C 36.363281 10.859375 36.445312 10.996094 36.519531 11.109375 C 36.589844 11.226562 36.65625 11.320312 36.664062 11.320312 C 36.6875 11.320312 36.679688 11.308594 36.46875 10.96875 C 36.382812 10.832031 36.304688 10.71875 36.292969 10.71875 C 36.28125 10.71875 36.296875 10.761719 36.328125 10.808594 M 3.230469 11.449219 C 3.144531 11.585938 3.066406 11.746094 3.109375 11.699219 C 3.164062 11.640625 3.328125 11.359375 3.308594 11.359375 C 3.296875 11.359375 3.261719 11.402344 3.230469 11.449219 M 36.761719 11.5 C 36.8125 11.589844 36.871094 11.679688 36.890625 11.699219 C 36.949219 11.761719 36.8125 11.507812 36.738281 11.421875 C 36.703125 11.375 36.714844 11.410156 36.761719 11.5 M 17.695312 11.53125 C 17.558594 11.761719 17.546875 11.785156 17.617188 11.699219 C 17.699219 11.601562 17.769531 11.480469 17.742188 11.480469 C 17.734375 11.480469 17.710938 11.503906 17.695312 11.53125 M 2.980469 11.878906 C 2.945312 11.945312 2.925781 12 2.9375 12 C 2.949219 12 2.984375 11.945312 3.019531 11.878906 C 3.054688 11.8125 3.074219 11.761719 3.0625 11.761719 C 3.050781 11.761719 3.015625 11.8125 2.980469 11.878906 M 36.980469 11.878906 C 37.015625 11.945312 37.050781 12 37.0625 12 C 37.074219 12 37.054688 11.945312 37.019531 11.878906 C 36.984375 11.8125 36.949219 11.761719 36.9375 11.761719 C 36.925781 11.761719 36.945312 11.8125 36.980469 11.878906 M 17.457031 11.929688 C 17.316406 12.164062 17.308594 12.183594 17.378906 12.101562 C 17.460938 12.003906 17.53125 11.878906 17.503906 11.878906 C 17.492188 11.878906 17.472656 11.902344 17.457031 11.929688 M 37.320312 12.519531 C 37.429688 12.738281 37.53125 12.921875 37.539062 12.921875 C 37.550781 12.921875 37.46875 12.738281 37.359375 12.519531 C 37.25 12.300781 37.148438 12.121094 37.140625 12.121094 C 37.128906 12.121094 37.210938 12.300781 37.320312 12.519531 M 2.519531 12.765625 C 2.363281 13.074219 2.242188 13.335938 2.25 13.34375 C 2.257812 13.351562 2.394531 13.097656 2.550781 12.777344 C 2.710938 12.460938 2.832031 12.199219 2.820312 12.199219 C 2.808594 12.199219 2.671875 12.453125 2.519531 12.765625 M 16.816406 12.96875 C 16.675781 13.203125 16.667969 13.222656 16.738281 13.140625 C 16.820312 13.042969 16.890625 12.921875 16.863281 12.921875 C 16.851562 12.921875 16.832031 12.941406 16.816406 12.96875 M 37.5625 12.980469 C 37.5625 13.003906 37.605469 13.101562 37.660156 13.199219 C 37.714844 13.300781 37.757812 13.363281 37.757812 13.339844 C 37.757812 13.316406 37.714844 13.21875 37.660156 13.121094 C 37.605469 13.019531 37.5625 12.957031 37.5625 12.980469 M 16.617188 13.289062 C 16.476562 13.523438 16.46875 13.542969 16.539062 13.460938 C 16.621094 13.363281 16.691406 13.238281 16.664062 13.238281 C 16.652344 13.238281 16.632812 13.261719 16.617188 13.289062 M 2.085938 13.683594 C 2.039062 13.800781 2.003906 13.898438 2.015625 13.90625 C 2.023438 13.914062 2.066406 13.828125 2.113281 13.714844 C 2.160156 13.601562 2.195312 13.5 2.1875 13.492188 C 2.179688 13.484375 2.132812 13.570312 2.085938 13.683594 M 37.804688 13.5 C 37.804688 13.523438 37.828125 13.585938 37.859375 13.640625 C 37.890625 13.695312 37.917969 13.722656 37.917969 13.699219 C 37.917969 13.679688 37.890625 13.613281 37.859375 13.558594 C 37.828125 13.503906 37.804688 13.476562 37.804688 13.5 M 1.84375 14.265625 C 1.796875 14.390625 1.765625 14.5 1.773438 14.507812 C 1.78125 14.515625 1.828125 14.417969 1.875 14.296875 C 1.921875 14.171875 1.953125 14.0625 1.945312 14.054688 C 1.9375 14.046875 1.894531 14.140625 1.84375 14.265625 M 15.949219 14.371094 C 15.863281 14.503906 15.785156 14.664062 15.828125 14.621094 C 15.886719 14.5625 16.050781 14.28125 16.027344 14.28125 C 16.019531 14.28125 15.984375 14.320312 15.949219 14.371094 M 1.644531 14.785156 C 1.597656 14.910156 1.566406 15.019531 1.574219 15.027344 C 1.582031 15.035156 1.628906 14.941406 1.675781 14.816406 C 1.722656 14.691406 1.753906 14.582031 1.746094 14.574219 C 1.738281 14.566406 1.691406 14.660156 1.644531 14.785156 M 38.34375 14.839844 C 38.359375 14.894531 38.386719 14.96875 38.40625 15 C 38.433594 15.042969 38.4375 15.03125 38.417969 14.960938 C 38.402344 14.90625 38.375 14.832031 38.351562 14.800781 C 38.328125 14.757812 38.324219 14.769531 38.34375 14.839844 M 38.484375 15.222656 C 38.480469 15.285156 38.605469 15.648438 38.625 15.628906 C 38.632812 15.621094 38.605469 15.515625 38.5625 15.398438 C 38.519531 15.277344 38.484375 15.199219 38.484375 15.222656 M 1.425781 15.425781 C 1.390625 15.527344 1.359375 15.632812 1.363281 15.65625 C 1.363281 15.679688 1.402344 15.601562 1.441406 15.484375 C 1.484375 15.363281 1.511719 15.257812 1.503906 15.25 C 1.496094 15.242188 1.460938 15.320312 1.425781 15.425781 M 15.214844 15.570312 C 15.078125 15.804688 15.070312 15.824219 15.140625 15.738281 C 15.21875 15.644531 15.289062 15.519531 15.265625 15.519531 C 15.253906 15.519531 15.230469 15.542969 15.214844 15.570312 M 1.261719 15.941406 C 1.25 16 1.242188 16.058594 1.253906 16.066406 C 1.261719 16.074219 1.28125 16.035156 1.296875 15.976562 C 1.3125 15.917969 1.316406 15.863281 1.308594 15.851562 C 1.296875 15.84375 1.277344 15.882812 1.261719 15.941406 M 38.6875 15.878906 C 38.6875 15.914062 38.710938 16.003906 38.738281 16.078125 C 38.769531 16.15625 38.792969 16.191406 38.792969 16.160156 C 38.792969 16.128906 38.769531 16.035156 38.738281 15.960938 C 38.710938 15.882812 38.6875 15.847656 38.6875 15.878906 M 14.871094 16.128906 C 14.839844 16.179688 14.773438 16.292969 14.726562 16.378906 C 14.621094 16.566406 14.734375 16.421875 14.871094 16.195312 C 14.96875 16.03125 14.96875 15.976562 14.871094 16.128906 M 1.183594 16.222656 C 1.167969 16.28125 1.164062 16.335938 1.171875 16.347656 C 1.183594 16.355469 1.203125 16.316406 1.21875 16.257812 C 1.230469 16.199219 1.234375 16.144531 1.226562 16.132812 C 1.21875 16.125 1.199219 16.164062 1.183594 16.222656 M 14.574219 16.609375 C 14.4375 16.84375 14.429688 16.863281 14.5 16.78125 C 14.578125 16.683594 14.648438 16.558594 14.625 16.558594 C 14.613281 16.558594 14.589844 16.582031 14.574219 16.609375 M 38.925781 16.761719 C 38.929688 16.863281 38.992188 17.035156 38.992188 16.941406 C 38.992188 16.894531 38.980469 16.824219 38.960938 16.78125 C 38.9375 16.730469 38.925781 16.722656 38.925781 16.761719 M 0.941406 17.183594 C 0.925781 17.261719 0.921875 17.335938 0.933594 17.347656 C 0.941406 17.355469 0.960938 17.296875 0.976562 17.21875 C 0.992188 17.136719 0.996094 17.0625 0.988281 17.054688 C 0.976562 17.042969 0.957031 17.101562 0.941406 17.183594 M 14.15625 17.289062 C 14.128906 17.339844 14.082031 17.425781 14.050781 17.480469 C 13.992188 17.574219 13.996094 17.578125 14.058594 17.5 C 14.136719 17.40625 14.25 17.199219 14.222656 17.199219 C 14.210938 17.199219 14.179688 17.242188 14.15625 17.289062 M 0.761719 18.121094 C 0.734375 18.277344 0.71875 18.414062 0.730469 18.421875 C 0.738281 18.433594 0.769531 18.3125 0.796875 18.15625 C 0.820312 17.996094 0.835938 17.863281 0.824219 17.851562 C 0.816406 17.84375 0.785156 17.964844 0.761719 18.121094 M 13.695312 18.050781 C 13.558594 18.285156 13.546875 18.304688 13.617188 18.21875 C 13.699219 18.125 13.769531 18 13.742188 18 C 13.734375 18 13.710938 18.023438 13.695312 18.050781 M 13.496094 18.371094 C 13.359375 18.605469 13.347656 18.625 13.417969 18.539062 C 13.5 18.441406 13.570312 18.320312 13.542969 18.320312 C 13.535156 18.320312 13.511719 18.34375 13.496094 18.371094 M 13.269531 18.730469 C 13.183594 18.863281 13.105469 19.027344 13.148438 18.980469 C 13.203125 18.921875 13.371094 18.640625 13.347656 18.640625 C 13.335938 18.640625 13.304688 18.679688 13.269531 18.730469 M 13.054688 19.089844 C 12.917969 19.324219 12.910156 19.34375 12.980469 19.261719 C 13.058594 19.164062 13.128906 19.039062 13.105469 19.039062 C 13.09375 19.039062 13.070312 19.0625 13.054688 19.089844 M 39.371094 19.199219 C 39.371094 19.277344 39.378906 19.308594 39.386719 19.269531 C 39.398438 19.230469 39.398438 19.167969 39.386719 19.128906 C 39.378906 19.089844 39.371094 19.121094 39.371094 19.199219 M 0.609375 19.238281 C 0.609375 19.316406 0.617188 19.347656 0.628906 19.308594 C 0.636719 19.273438 0.636719 19.207031 0.628906 19.171875 C 0.617188 19.132812 0.609375 19.164062 0.609375 19.238281 M 0.570312 19.601562 C 0.570312 19.722656 0.578125 19.769531 0.589844 19.710938 C 0.597656 19.648438 0.597656 19.550781 0.589844 19.488281 C 0.578125 19.429688 0.570312 19.480469 0.570312 19.601562 M 39.410156 19.578125 C 39.410156 19.691406 39.417969 19.730469 39.429688 19.667969 C 39.4375 19.609375 39.4375 19.519531 39.429688 19.46875 C 39.417969 19.421875 39.410156 19.46875 39.410156 19.578125 M 12.617188 19.808594 C 12.476562 20.042969 12.46875 20.0625 12.539062 19.980469 C 12.621094 19.882812 12.691406 19.761719 12.664062 19.761719 C 12.652344 19.761719 12.632812 19.78125 12.617188 19.808594 M 39.453125 20.019531 C 39.453125 20.152344 39.460938 20.203125 39.46875 20.128906 C 39.476562 20.058594 39.476562 19.949219 39.46875 19.890625 C 39.460938 19.828125 39.453125 19.886719 39.453125 20.019531 M 0.53125 20.078125 C 0.53125 20.222656 0.539062 20.28125 0.550781 20.210938 C 0.558594 20.136719 0.558594 20.023438 0.550781 19.949219 C 0.539062 19.878906 0.53125 19.9375 0.53125 20.078125 M 12.390625 20.171875 C 12.359375 20.21875 12.292969 20.332031 12.246094 20.421875 C 12.140625 20.609375 12.253906 20.460938 12.390625 20.234375 C 12.488281 20.070312 12.488281 20.015625 12.390625 20.171875 M 0.496094 21.441406 C 0.496094 22 0.503906 22.230469 0.511719 21.949219 C 0.515625 21.667969 0.515625 21.210938 0.511719 20.929688 C 0.503906 20.648438 0.496094 20.878906 0.496094 21.441406 M 39.496094 20.839844 C 39.496094 21.070312 39.5 21.164062 39.507812 21.050781 C 39.519531 20.933594 39.519531 20.746094 39.507812 20.628906 C 39.5 20.515625 39.496094 20.609375 39.496094 20.839844 M 12.09375 20.648438 C 11.957031 20.882812 11.949219 20.902344 12.019531 20.820312 C 12.101562 20.722656 12.171875 20.601562 12.144531 20.601562 C 12.132812 20.601562 12.113281 20.621094 12.09375 20.648438 M 11.753906 21.210938 C 11.722656 21.257812 11.65625 21.371094 11.605469 21.460938 C 11.5 21.648438 11.613281 21.5 11.753906 21.273438 C 11.851562 21.113281 11.847656 21.054688 11.753906 21.210938 M 39.496094 22.058594 C 39.496094 22.300781 39.5 22.394531 39.507812 22.269531 C 39.519531 22.140625 39.515625 21.941406 39.507812 21.828125 C 39.5 21.714844 39.496094 21.816406 39.496094 22.058594 M 0.523438 22.785156 C 0.527344 22.914062 0.542969 23.128906 0.558594 23.261719 C 0.582031 23.425781 0.585938 23.355469 0.570312 23.039062 C 0.550781 22.554688 0.515625 22.378906 0.523438 22.785156 M 39.453125 22.859375 C 39.453125 22.992188 39.460938 23.042969 39.46875 22.96875 C 39.476562 22.898438 39.476562 22.789062 39.46875 22.730469 C 39.460938 22.667969 39.453125 22.726562 39.453125 22.859375 M 39.410156 23.320312 C 39.410156 23.441406 39.417969 23.492188 39.429688 23.429688 C 39.4375 23.371094 39.4375 23.269531 39.429688 23.210938 C 39.417969 23.148438 39.410156 23.199219 39.410156 23.320312 M 11.519531 23.484375 C 11.519531 23.53125 11.792969 23.921875 11.828125 23.921875 C 11.835938 23.921875 11.78125 23.828125 11.699219 23.71875 C 11.539062 23.503906 11.542969 23.488281 11.722656 23.582031 C 11.785156 23.613281 11.839844 23.632812 11.839844 23.621094 C 11.839844 23.609375 11.769531 23.566406 11.679688 23.519531 C 11.582031 23.46875 11.519531 23.457031 11.519531 23.484375 M 29.539062 23.550781 C 29.472656 23.585938 28.519531 24.132812 27.421875 24.773438 C 25.160156 26.082031 24.777344 26.304688 23.820312 26.855469 C 23.445312 27.074219 22.996094 27.335938 22.820312 27.4375 C 21.796875 28.042969 20.679688 28.679688 20.640625 28.679688 C 20.617188 28.679688 20.539062 28.652344 20.472656 28.617188 C 20.40625 28.582031 20.363281 28.570312 20.375 28.589844 C 20.386719 28.613281 20.453125 28.652344 20.519531 28.679688 L 20.640625 28.730469 L 20.640625 32.363281 C 20.640625 34.363281 20.625 36 20.609375 36 C 20.589844 36 20.554688 35.980469 20.527344 35.960938 C 20.5 35.9375 20.507812 35.953125 20.542969 35.988281 C 20.617188 36.078125 20.449219 36.292969 22.222656 33.835938 C 23.765625 31.703125 24.367188 30.871094 25.203125 29.71875 C 25.496094 29.3125 26.070312 28.519531 26.476562 27.953125 C 28.039062 25.792969 29.273438 24.089844 29.480469 23.808594 C 29.710938 23.492188 29.71875 23.457031 29.539062 23.550781 M 0.609375 23.679688 C 0.609375 23.757812 0.617188 23.789062 0.628906 23.75 C 0.636719 23.710938 0.636719 23.648438 0.628906 23.609375 C 0.617188 23.570312 0.609375 23.601562 0.609375 23.679688 M 39.371094 23.699219 C 39.371094 23.789062 39.378906 23.820312 39.386719 23.769531 C 39.398438 23.71875 39.398438 23.648438 39.386719 23.609375 C 39.378906 23.570312 39.371094 23.613281 39.371094 23.699219 M 11.898438 23.667969 C 11.921875 23.691406 12.011719 23.746094 12.101562 23.796875 C 12.1875 23.847656 12.222656 23.855469 12.179688 23.820312 C 12.089844 23.746094 11.835938 23.609375 11.898438 23.667969 M 11.921875 24.078125 C 11.96875 24.144531 12.015625 24.199219 12.027344 24.199219 C 12.035156 24.199219 12.007812 24.144531 11.960938 24.078125 C 11.914062 24.015625 11.867188 23.960938 11.855469 23.960938 C 11.84375 23.960938 11.871094 24.015625 11.921875 24.078125 M 12.839844 24.21875 C 12.839844 24.230469 12.894531 24.265625 12.960938 24.300781 C 13.027344 24.335938 13.078125 24.351562 13.078125 24.34375 C 13.078125 24.332031 13.027344 24.292969 12.960938 24.261719 C 12.894531 24.226562 12.839844 24.207031 12.839844 24.21875 M 12.121094 24.359375 C 12.167969 24.425781 12.214844 24.480469 12.226562 24.480469 C 12.238281 24.480469 12.207031 24.425781 12.160156 24.359375 C 12.113281 24.292969 12.066406 24.238281 12.054688 24.238281 C 12.042969 24.238281 12.074219 24.292969 12.121094 24.359375 M 0.730469 24.539062 C 0.730469 24.605469 0.742188 24.714844 0.761719 24.78125 C 0.800781 24.945312 0.804688 24.78125 0.761719 24.578125 C 0.734375 24.445312 0.730469 24.4375 0.730469 24.539062 M 39.203125 24.765625 C 39.179688 24.921875 39.164062 25.058594 39.175781 25.066406 C 39.183594 25.078125 39.214844 24.957031 39.238281 24.800781 C 39.265625 24.644531 39.28125 24.507812 39.269531 24.496094 C 39.261719 24.488281 39.230469 24.605469 39.203125 24.765625 M 12.320312 24.640625 C 12.367188 24.703125 12.425781 24.769531 12.449219 24.785156 C 12.472656 24.800781 12.445312 24.746094 12.382812 24.667969 C 12.25 24.492188 12.199219 24.46875 12.320312 24.640625 M 13.460938 24.578125 C 13.550781 24.652344 13.804688 24.789062 13.738281 24.730469 C 13.71875 24.710938 13.628906 24.652344 13.539062 24.601562 C 13.453125 24.554688 13.414062 24.542969 13.460938 24.578125 M 13.878906 24.816406 C 13.878906 24.828125 13.933594 24.867188 14 24.898438 C 14.066406 24.933594 14.121094 24.953125 14.121094 24.941406 C 14.121094 24.929688 14.066406 24.894531 14 24.859375 C 13.933594 24.824219 13.878906 24.808594 13.878906 24.816406 M 12.515625 24.914062 C 12.539062 24.953125 12.585938 25.011719 12.625 25.042969 C 12.667969 25.078125 12.660156 25.050781 12.601562 24.96875 C 12.496094 24.828125 12.457031 24.800781 12.515625 24.914062 M 12.761719 25.238281 C 12.808594 25.304688 12.855469 25.359375 12.867188 25.359375 C 12.875 25.359375 12.847656 25.304688 12.800781 25.238281 C 12.753906 25.175781 12.707031 25.121094 12.695312 25.121094 C 12.683594 25.121094 12.714844 25.175781 12.761719 25.238281 M 14.859375 25.390625 C 14.882812 25.410156 14.988281 25.476562 15.101562 25.535156 C 15.210938 25.597656 15.265625 25.617188 15.21875 25.578125 C 15.128906 25.507812 14.796875 25.328125 14.859375 25.390625 M 12.960938 25.519531 C 13.007812 25.585938 13.054688 25.640625 13.066406 25.640625 C 13.078125 25.640625 13.046875 25.585938 13 25.519531 C 12.953125 25.453125 12.90625 25.398438 12.894531 25.398438 C 12.882812 25.398438 12.914062 25.453125 12.960938 25.519531 M 38.984375 25.863281 C 38.945312 26.03125 38.917969 26.171875 38.929688 26.183594 C 38.9375 26.191406 38.976562 26.0625 39.015625 25.898438 C 39.054688 25.730469 39.082031 25.585938 39.070312 25.578125 C 39.0625 25.570312 39.023438 25.695312 38.984375 25.863281 M 15.320312 25.65625 C 15.320312 25.667969 15.375 25.707031 15.441406 25.738281 C 15.507812 25.773438 15.558594 25.792969 15.558594 25.78125 C 15.558594 25.769531 15.507812 25.734375 15.441406 25.699219 C 15.375 25.664062 15.320312 25.648438 15.320312 25.65625 M 13.203125 25.855469 C 13.277344 25.960938 13.355469 26.058594 13.375 26.070312 C 13.398438 26.082031 13.351562 26.007812 13.277344 25.902344 C 13.203125 25.800781 13.125 25.703125 13.101562 25.691406 C 13.082031 25.675781 13.125 25.75 13.203125 25.855469 M 0.964844 25.78125 C 0.964844 25.863281 1.070312 26.207031 1.074219 26.140625 C 1.078125 26.117188 1.054688 26.011719 1.023438 25.898438 C 0.992188 25.789062 0.96875 25.734375 0.964844 25.78125 M 15.621094 25.828125 C 15.640625 25.851562 15.75 25.917969 15.859375 25.980469 C 15.96875 26.042969 16.042969 26.074219 16.019531 26.050781 C 15.996094 26.027344 15.890625 25.960938 15.78125 25.898438 C 15.671875 25.835938 15.597656 25.804688 15.621094 25.828125 M 13.523438 26.296875 C 13.597656 26.402344 13.675781 26.496094 13.695312 26.511719 C 13.71875 26.523438 13.671875 26.449219 13.597656 26.34375 C 13.523438 26.238281 13.445312 26.144531 13.421875 26.128906 C 13.402344 26.117188 13.445312 26.191406 13.523438 26.296875 M 1.164062 26.578125 C 1.167969 26.664062 1.273438 26.96875 1.277344 26.898438 C 1.277344 26.878906 1.253906 26.777344 1.222656 26.679688 C 1.191406 26.582031 1.164062 26.535156 1.164062 26.578125 M 16.839844 26.539062 C 16.839844 26.550781 16.894531 26.585938 16.960938 26.621094 C 17.027344 26.652344 17.078125 26.671875 17.078125 26.660156 C 17.078125 26.652344 17.027344 26.613281 16.960938 26.578125 C 16.894531 26.546875 16.839844 26.527344 16.839844 26.539062 M 13.839844 26.738281 C 13.90625 26.835938 13.980469 26.925781 14.003906 26.941406 C 14.027344 26.957031 13.980469 26.875 13.898438 26.765625 C 13.71875 26.511719 13.667969 26.492188 13.839844 26.738281 M 38.761719 26.722656 C 38.738281 26.8125 38.722656 26.894531 38.730469 26.902344 C 38.738281 26.914062 38.769531 26.847656 38.796875 26.757812 C 38.824219 26.667969 38.839844 26.585938 38.828125 26.574219 C 38.820312 26.566406 38.789062 26.632812 38.761719 26.722656 M 17.320312 26.816406 C 17.320312 26.828125 17.375 26.867188 17.441406 26.898438 C 17.507812 26.933594 17.558594 26.953125 17.558594 26.941406 C 17.558594 26.929688 17.507812 26.894531 17.441406 26.859375 C 17.375 26.824219 17.320312 26.808594 17.320312 26.816406 M 14.121094 27.121094 C 14.167969 27.1875 14.214844 27.238281 14.226562 27.238281 C 14.238281 27.238281 14.207031 27.1875 14.160156 27.121094 C 14.113281 27.054688 14.066406 27 14.054688 27 C 14.042969 27 14.074219 27.054688 14.121094 27.121094 M 1.367188 27.261719 C 1.367188 27.28125 1.390625 27.363281 1.421875 27.441406 C 1.449219 27.515625 1.472656 27.554688 1.476562 27.519531 C 1.476562 27.488281 1.453125 27.40625 1.421875 27.339844 C 1.390625 27.273438 1.367188 27.238281 1.367188 27.261719 M 14.320312 27.398438 C 14.367188 27.464844 14.414062 27.519531 14.425781 27.519531 C 14.4375 27.519531 14.40625 27.464844 14.359375 27.398438 C 14.3125 27.335938 14.265625 27.28125 14.253906 27.28125 C 14.242188 27.28125 14.273438 27.335938 14.320312 27.398438 M 18.5 27.5 C 18.589844 27.574219 18.84375 27.710938 18.78125 27.652344 C 18.757812 27.628906 18.667969 27.574219 18.578125 27.523438 C 18.492188 27.472656 18.457031 27.464844 18.5 27.5 M 14.519531 27.679688 C 14.566406 27.746094 14.613281 27.800781 14.625 27.800781 C 14.636719 27.800781 14.605469 27.746094 14.558594 27.679688 C 14.511719 27.613281 14.464844 27.558594 14.453125 27.558594 C 14.445312 27.558594 14.472656 27.613281 14.519531 27.679688 M 18.839844 27.699219 C 18.839844 27.707031 18.894531 27.746094 18.960938 27.78125 C 19.027344 27.8125 19.078125 27.832031 19.078125 27.820312 C 19.078125 27.8125 19.027344 27.773438 18.960938 27.738281 C 18.894531 27.707031 18.839844 27.6875 18.839844 27.699219 M 1.585938 27.921875 C 1.597656 27.976562 1.632812 28.074219 1.664062 28.140625 C 1.707031 28.238281 1.714844 28.242188 1.695312 28.160156 C 1.679688 28.105469 1.644531 28.007812 1.617188 27.941406 C 1.570312 27.84375 1.566406 27.839844 1.585938 27.921875 M 19.261719 27.941406 C 19.304688 27.976562 19.375 28.023438 19.421875 28.046875 L 19.5 28.085938 L 19.421875 28.019531 C 19.375 27.984375 19.304688 27.9375 19.261719 27.914062 L 19.179688 27.875 L 19.261719 27.941406 M 38.324219 28.085938 C 38.300781 28.15625 38.285156 28.21875 38.296875 28.226562 C 38.304688 28.238281 38.332031 28.1875 38.355469 28.117188 C 38.378906 28.042969 38.394531 27.980469 38.386719 27.972656 C 38.375 27.964844 38.347656 28.015625 38.324219 28.085938 M 14.839844 28.121094 C 14.886719 28.1875 14.933594 28.238281 14.945312 28.238281 C 14.957031 28.238281 14.925781 28.1875 14.878906 28.121094 C 14.832031 28.054688 14.785156 28 14.773438 28 C 14.761719 28 14.792969 28.054688 14.839844 28.121094 M 19.601562 28.136719 C 19.601562 28.148438 19.652344 28.1875 19.71875 28.21875 C 19.785156 28.253906 19.839844 28.273438 19.839844 28.261719 C 19.839844 28.25 19.785156 28.214844 19.71875 28.179688 C 19.652344 28.144531 19.601562 28.125 19.601562 28.136719 M 15.039062 28.398438 C 15.085938 28.464844 15.132812 28.519531 15.144531 28.519531 C 15.15625 28.519531 15.128906 28.464844 15.078125 28.398438 C 15.03125 28.335938 14.984375 28.28125 14.972656 28.28125 C 14.964844 28.28125 14.992188 28.335938 15.039062 28.398438 M 20.078125 28.417969 C 20.078125 28.429688 20.132812 28.464844 20.199219 28.5 C 20.265625 28.535156 20.320312 28.554688 20.320312 28.542969 C 20.320312 28.53125 20.265625 28.492188 20.199219 28.460938 C 20.132812 28.425781 20.078125 28.40625 20.078125 28.417969 M 1.84375 28.621094 C 1.84375 28.640625 1.878906 28.730469 1.921875 28.820312 C 1.964844 28.90625 1.988281 28.933594 1.976562 28.878906 C 1.945312 28.765625 1.84375 28.558594 1.84375 28.621094 M 15.402344 28.894531 C 15.476562 29 15.554688 29.097656 15.578125 29.109375 C 15.597656 29.125 15.554688 29.046875 15.476562 28.945312 C 15.402344 28.839844 15.324219 28.742188 15.304688 28.730469 C 15.28125 28.714844 15.328125 28.792969 15.402344 28.894531 M 2.042969 29.101562 C 2.042969 29.121094 2.070312 29.183594 2.101562 29.238281 C 2.132812 29.296875 2.15625 29.320312 2.15625 29.300781 C 2.15625 29.277344 2.132812 29.214844 2.101562 29.160156 C 2.070312 29.105469 2.042969 29.078125 2.042969 29.101562 M 37.886719 29.183594 C 37.820312 29.328125 37.832031 29.359375 37.90625 29.226562 C 37.9375 29.164062 37.957031 29.105469 37.949219 29.097656 C 37.941406 29.085938 37.910156 29.125 37.886719 29.183594 M 15.679688 29.28125 C 15.726562 29.347656 15.773438 29.398438 15.785156 29.398438 C 15.796875 29.398438 15.765625 29.347656 15.71875 29.28125 C 15.671875 29.214844 15.625 29.160156 15.613281 29.160156 C 15.605469 29.160156 15.632812 29.214844 15.679688 29.28125 M 37.726562 29.542969 C 37.605469 29.789062 37.621094 29.824219 37.746094 29.585938 C 37.800781 29.480469 37.839844 29.386719 37.832031 29.378906 C 37.820312 29.367188 37.777344 29.441406 37.726562 29.542969 M 15.878906 29.558594 C 15.925781 29.625 15.972656 29.679688 15.984375 29.679688 C 15.996094 29.679688 15.96875 29.625 15.921875 29.558594 C 15.871094 29.492188 15.824219 29.441406 15.816406 29.441406 C 15.804688 29.441406 15.832031 29.492188 15.878906 29.558594 M 2.242188 29.539062 C 2.242188 29.5625 2.277344 29.644531 2.320312 29.71875 C 2.363281 29.796875 2.398438 29.84375 2.398438 29.820312 C 2.398438 29.796875 2.363281 29.71875 2.320312 29.640625 C 2.277344 29.5625 2.242188 29.519531 2.242188 29.539062 M 16.398438 30.269531 C 16.511719 30.429688 16.617188 30.558594 16.625 30.558594 C 16.652344 30.558594 16.367188 30.160156 16.269531 30.058594 C 16.226562 30.015625 16.285156 30.109375 16.398438 30.269531 M 2.480469 30.054688 C 2.480469 30.097656 2.597656 30.320312 2.621094 30.320312 C 2.632812 30.320312 2.613281 30.261719 2.574219 30.191406 C 2.5 30.042969 2.480469 30.011719 2.480469 30.054688 M 37.40625 30.222656 C 37.359375 30.320312 37.328125 30.398438 37.339844 30.398438 C 37.367188 30.398438 37.527344 30.074219 37.511719 30.058594 C 37.5 30.046875 37.457031 30.121094 37.40625 30.222656 M 2.78125 30.640625 C 2.835938 30.75 2.890625 30.839844 2.902344 30.839844 C 2.914062 30.839844 2.875 30.75 2.820312 30.640625 C 2.765625 30.53125 2.710938 30.441406 2.699219 30.441406 C 2.6875 30.441406 2.722656 30.53125 2.78125 30.640625 M 37.160156 30.679688 C 37.113281 30.769531 37.085938 30.839844 37.097656 30.839844 C 37.109375 30.839844 37.15625 30.769531 37.199219 30.679688 C 37.246094 30.59375 37.273438 30.519531 37.261719 30.519531 C 37.25 30.519531 37.203125 30.59375 37.160156 30.679688 M 16.71875 30.71875 C 16.765625 30.785156 16.8125 30.839844 16.824219 30.839844 C 16.835938 30.839844 16.808594 30.785156 16.761719 30.71875 C 16.714844 30.652344 16.664062 30.601562 16.65625 30.601562 C 16.644531 30.601562 16.671875 30.652344 16.71875 30.71875 M 2.921875 30.886719 C 2.917969 30.925781 3.082031 31.199219 3.105469 31.199219 C 3.113281 31.199219 3.09375 31.152344 3.0625 31.089844 C 2.980469 30.941406 2.921875 30.855469 2.921875 30.886719 M 16.960938 31.054688 C 17.035156 31.160156 17.117188 31.257812 17.136719 31.269531 C 17.15625 31.285156 17.113281 31.207031 17.039062 31.105469 C 16.964844 31 16.882812 30.902344 16.863281 30.890625 C 16.84375 30.875 16.886719 30.953125 16.960938 31.054688 M 36.964844 31.039062 C 36.914062 31.128906 36.882812 31.199219 36.894531 31.199219 C 36.921875 31.199219 37.085938 30.914062 37.070312 30.894531 C 37.0625 30.886719 37.015625 30.953125 36.964844 31.039062 M 3.179688 31.359375 C 3.214844 31.425781 3.25 31.480469 3.261719 31.480469 C 3.273438 31.480469 3.253906 31.425781 3.21875 31.359375 C 3.1875 31.292969 3.148438 31.238281 3.136719 31.238281 C 3.125 31.238281 3.144531 31.292969 3.179688 31.359375 M 36.78125 31.359375 C 36.746094 31.425781 36.726562 31.480469 36.738281 31.480469 C 36.75 31.480469 36.785156 31.425781 36.820312 31.359375 C 36.855469 31.292969 36.875 31.238281 36.863281 31.238281 C 36.851562 31.238281 36.8125 31.292969 36.78125 31.359375 M 17.238281 31.441406 C 17.285156 31.507812 17.335938 31.558594 17.34375 31.558594 C 17.355469 31.558594 17.328125 31.507812 17.28125 31.441406 C 17.234375 31.375 17.1875 31.320312 17.175781 31.320312 C 17.164062 31.320312 17.191406 31.375 17.238281 31.441406 M 36.417969 31.949219 C 36.265625 32.1875 36 32.578125 35.828125 32.820312 C 35.660156 33.0625 35.574219 33.195312 35.640625 33.121094 C 35.835938 32.894531 36.753906 31.519531 36.710938 31.519531 C 36.699219 31.519531 36.566406 31.714844 36.417969 31.949219 M 17.441406 31.71875 C 17.488281 31.785156 17.535156 31.839844 17.546875 31.839844 C 17.554688 31.839844 17.527344 31.785156 17.480469 31.71875 C 17.433594 31.652344 17.386719 31.601562 17.375 31.601562 C 17.363281 31.601562 17.394531 31.652344 17.441406 31.71875 M 17.675781 32.039062 C 17.746094 32.140625 17.847656 32.273438 17.902344 32.339844 C 17.984375 32.433594 17.976562 32.417969 17.882812 32.28125 C 17.816406 32.179688 17.714844 32.046875 17.65625 31.980469 C 17.578125 31.886719 17.582031 31.902344 17.675781 32.039062 M 3.585938 32.011719 C 3.667969 32.152344 3.925781 32.519531 3.941406 32.519531 C 3.953125 32.519531 3.875 32.394531 3.773438 32.238281 C 3.671875 32.085938 3.582031 31.960938 3.570312 31.960938 C 3.5625 31.960938 3.570312 31.984375 3.585938 32.011719 M 18.078125 32.601562 C 18.128906 32.664062 18.175781 32.71875 18.183594 32.71875 C 18.195312 32.71875 18.167969 32.664062 18.121094 32.601562 C 18.074219 32.535156 18.027344 32.480469 18.015625 32.480469 C 18.003906 32.480469 18.03125 32.535156 18.078125 32.601562 M 3.996094 32.628906 C 4.019531 32.667969 4.082031 32.753906 4.140625 32.820312 C 4.230469 32.921875 4.226562 32.910156 4.121094 32.75 C 4 32.566406 3.914062 32.484375 3.996094 32.628906 M 18.320312 32.9375 C 18.398438 33.039062 18.476562 33.136719 18.496094 33.148438 C 18.519531 33.164062 18.472656 33.089844 18.398438 32.984375 C 18.324219 32.878906 18.246094 32.78125 18.222656 32.769531 C 18.203125 32.757812 18.246094 32.832031 18.320312 32.9375 M 4.320312 33.078125 C 4.367188 33.144531 4.425781 33.210938 4.449219 33.226562 C 4.472656 33.242188 4.445312 33.1875 4.382812 33.105469 C 4.25 32.929688 4.199219 32.910156 4.320312 33.078125 M 18.65625 33.402344 C 18.882812 33.71875 18.964844 33.785156 18.757812 33.488281 C 18.664062 33.347656 18.566406 33.222656 18.542969 33.210938 C 18.519531 33.195312 18.570312 33.28125 18.65625 33.402344 M 4.519531 33.339844 C 5.210938 34.3125 6.835938 35.945312 8 36.835938 C 8.296875 37.0625 8.085938 36.867188 7.6875 36.546875 C 6.734375 35.777344 5.710938 34.753906 4.882812 33.738281 C 4.566406 33.355469 4.402344 33.171875 4.519531 33.339844 M 35.285156 33.550781 C 35.167969 33.699219 35.140625 33.75 35.222656 33.660156 C 35.375 33.492188 35.535156 33.28125 35.511719 33.28125 C 35.5 33.28125 35.398438 33.402344 35.285156 33.550781 M 19.160156 34.089844 C 19.226562 34.195312 19.292969 34.28125 19.304688 34.28125 C 19.335938 34.28125 19.253906 34.148438 19.140625 34.019531 C 19.050781 33.917969 19.054688 33.929688 19.160156 34.089844 M 34.738281 34.210938 L 34.621094 34.339844 L 34.75 34.222656 C 34.820312 34.15625 34.878906 34.097656 34.878906 34.09375 C 34.878906 34.0625 34.847656 34.089844 34.738281 34.210938 M 19.441406 34.480469 C 19.488281 34.546875 19.535156 34.601562 19.546875 34.601562 C 19.554688 34.601562 19.527344 34.546875 19.480469 34.480469 C 19.433594 34.414062 19.386719 34.359375 19.375 34.359375 C 19.363281 34.359375 19.394531 34.414062 19.441406 34.480469 M 34.382812 34.597656 L 34.183594 34.820312 L 34.398438 34.613281 C 34.519531 34.496094 34.609375 34.398438 34.597656 34.390625 C 34.589844 34.382812 34.492188 34.476562 34.382812 34.597656 M 19.699219 34.84375 C 19.921875 35.15625 20.003906 35.226562 19.796875 34.929688 C 19.703125 34.789062 19.605469 34.664062 19.582031 34.648438 C 19.558594 34.636719 19.613281 34.722656 19.699219 34.84375 M 33.9375 35.082031 C 33.808594 35.21875 33.46875 35.535156 33.183594 35.792969 C 32.445312 36.457031 32.328125 36.574219 32.738281 36.226562 C 33.101562 35.925781 34.238281 34.84375 34.199219 34.84375 C 34.1875 34.839844 34.070312 34.949219 33.9375 35.082031 M 20.023438 35.28125 C 20.070312 35.367188 20.367188 35.761719 20.386719 35.761719 C 20.40625 35.761719 20.210938 35.484375 20.074219 35.320312 C 20.03125 35.265625 20.007812 35.246094 20.023438 35.28125 M 32.160156 36.683594 L 31.980469 36.847656 L 32.148438 36.71875 C 32.296875 36.609375 32.390625 36.519531 32.351562 36.519531 C 32.34375 36.519531 32.257812 36.59375 32.160156 36.683594 M 8.214844 36.992188 C 8.230469 37.019531 8.328125 37.097656 8.429688 37.164062 C 8.667969 37.332031 8.625 37.257812 8.375 37.082031 C 8.273438 37.007812 8.199219 36.964844 8.214844 36.992188 M 31.640625 37.085938 C 31.5 37.207031 31.5 37.207031 31.628906 37.121094 C 31.699219 37.074219 31.769531 37.019531 31.78125 37 C 31.820312 36.9375 31.789062 36.957031 31.640625 37.085938 M 31.289062 37.324219 C 31.195312 37.390625 31.121094 37.453125 31.121094 37.464844 C 31.121094 37.476562 31.199219 37.429688 31.300781 37.359375 C 31.398438 37.292969 31.480469 37.226562 31.480469 37.21875 C 31.480469 37.191406 31.472656 37.195312 31.289062 37.324219 M 8.640625 37.292969 C 8.640625 37.304688 8.695312 37.351562 8.761719 37.398438 C 8.824219 37.445312 8.878906 37.476562 8.878906 37.464844 C 8.878906 37.453125 8.824219 37.40625 8.761719 37.359375 C 8.695312 37.3125 8.640625 37.285156 8.640625 37.292969 M 8.9375 37.515625 C 8.953125 37.539062 9 37.578125 9.046875 37.605469 C 9.105469 37.636719 9.121094 37.636719 9.101562 37.605469 C 9.085938 37.582031 9.039062 37.539062 8.992188 37.515625 C 8.933594 37.484375 8.917969 37.484375 8.9375 37.515625 M 30.808594 37.65625 C 30.566406 37.824219 30.4375 37.925781 30.558594 37.859375 C 30.6875 37.789062 31.078125 37.515625 31.078125 37.5 C 31.078125 37.472656 31.078125 37.472656 30.808594 37.65625 M 9.160156 37.660156 C 9.160156 37.671875 9.28125 37.757812 9.429688 37.851562 C 9.757812 38.0625 9.847656 38.109375 9.730469 38.011719 C 9.605469 37.910156 9.160156 37.636719 9.160156 37.660156 M 9.859375 38.109375 C 9.882812 38.128906 9.972656 38.1875 10.058594 38.238281 C 10.148438 38.285156 10.183594 38.296875 10.140625 38.261719 C 10.050781 38.1875 9.796875 38.050781 9.859375 38.109375 M 10.320312 38.378906 C 10.320312 38.390625 10.375 38.425781 10.441406 38.460938 C 10.507812 38.492188 10.558594 38.511719 10.558594 38.503906 C 10.558594 38.492188 10.507812 38.453125 10.441406 38.421875 C 10.375 38.386719 10.320312 38.367188 10.320312 38.378906 M 29.148438 38.644531 C 29.023438 38.707031 28.921875 38.769531 28.921875 38.78125 C 28.921875 38.792969 29.027344 38.746094 29.160156 38.679688 C 29.292969 38.613281 29.398438 38.550781 29.398438 38.539062 C 29.398438 38.511719 29.40625 38.507812 29.148438 38.644531 M 10.679688 38.578125 C 10.679688 38.589844 10.789062 38.652344 10.921875 38.71875 C 11.050781 38.785156 11.160156 38.832031 11.160156 38.820312 C 11.160156 38.808594 11.050781 38.746094 10.921875 38.679688 C 10.789062 38.613281 10.679688 38.566406 10.679688 38.578125 M 11.203125 38.855469 C 11.246094 38.890625 11.480469 39 11.480469 38.980469 C 11.480469 38.960938 11.257812 38.839844 11.214844 38.839844 C 11.199219 38.839844 11.195312 38.847656 11.203125 38.855469 M 11.71875 39.121094 C 11.796875 39.164062 11.878906 39.195312 11.898438 39.195312 C 11.921875 39.195312 11.878906 39.164062 11.800781 39.121094 C 11.722656 39.078125 11.640625 39.042969 11.621094 39.042969 C 11.597656 39.042969 11.644531 39.078125 11.71875 39.121094 M 28.199219 39.121094 C 28.121094 39.164062 28.078125 39.195312 28.101562 39.195312 C 28.121094 39.195312 28.203125 39.164062 28.28125 39.121094 C 28.355469 39.078125 28.402344 39.042969 28.378906 39.042969 C 28.359375 39.042969 28.277344 39.078125 28.199219 39.121094 M 12.277344 39.363281 C 12.417969 39.429688 12.539062 39.476562 12.546875 39.464844 C 12.5625 39.449219 12.089844 39.238281 12.046875 39.242188 C 12.03125 39.246094 12.136719 39.300781 12.277344 39.363281 M 27.761719 39.320312 C 27.683594 39.363281 27.636719 39.398438 27.660156 39.398438 C 27.683594 39.398438 27.761719 39.363281 27.839844 39.320312 C 27.917969 39.277344 27.960938 39.242188 27.941406 39.242188 C 27.917969 39.242188 27.835938 39.277344 27.761719 39.320312 M 12.738281 39.554688 C 12.828125 39.59375 12.945312 39.640625 13 39.652344 C 13.054688 39.667969 13.027344 39.648438 12.941406 39.605469 C 12.851562 39.566406 12.734375 39.519531 12.679688 39.503906 C 12.625 39.492188 12.652344 39.511719 12.738281 39.554688 M 13.378906 39.800781 C 13.46875 39.84375 13.566406 39.878906 13.601562 39.878906 C 13.632812 39.875 13.570312 39.839844 13.460938 39.796875 C 13.210938 39.699219 13.167969 39.703125 13.378906 39.800781 M 26.5 39.820312 C 26.398438 39.871094 26.398438 39.875 26.480469 39.855469 C 26.59375 39.828125 26.71875 39.761719 26.660156 39.761719 C 26.636719 39.761719 26.566406 39.789062 26.5 39.820312 M 13.898438 39.980469 C 13.964844 40.011719 14.046875 40.035156 14.078125 40.035156 C 14.113281 40.035156 14.078125 40.007812 14 39.980469 C 13.816406 39.910156 13.746094 39.910156 13.898438 39.980469 M 25.941406 40.003906 C 25.828125 40.046875 25.792969 40.070312 25.855469 40.058594 C 25.980469 40.035156 26.246094 39.925781 26.179688 39.925781 C 26.15625 39.925781 26.050781 39.960938 25.941406 40.003906 M 25.246094 40.203125 C 24.933594 40.292969 24.855469 40.328125 25.039062 40.292969 C 25.214844 40.265625 25.640625 40.128906 25.558594 40.128906 C 25.527344 40.128906 25.386719 40.160156 25.246094 40.203125 M 14.738281 40.234375 C 14.785156 40.253906 14.882812 40.28125 14.960938 40.296875 C 15.054688 40.3125 15.074219 40.308594 15.019531 40.285156 C 14.976562 40.265625 14.878906 40.238281 14.800781 40.226562 C 14.703125 40.207031 14.683594 40.210938 14.738281 40.234375 M 15.621094 40.460938 C 15.730469 40.492188 15.855469 40.515625 15.898438 40.515625 C 15.945312 40.515625 15.882812 40.488281 15.761719 40.457031 C 15.472656 40.386719 15.359375 40.390625 15.621094 40.460938 M 24.160156 40.480469 C 24.082031 40.503906 24.078125 40.511719 24.140625 40.511719 C 24.183594 40.511719 24.265625 40.496094 24.320312 40.480469 C 24.398438 40.453125 24.402344 40.449219 24.339844 40.449219 C 24.296875 40.449219 24.214844 40.460938 24.160156 40.480469 M 16.699219 40.679688 C 16.765625 40.695312 16.875 40.710938 16.941406 40.710938 C 17.039062 40.710938 17.035156 40.707031 16.898438 40.675781 C 16.699219 40.636719 16.535156 40.636719 16.699219 40.679688 M 23.078125 40.679688 C 22.972656 40.703125 22.964844 40.710938 23.039062 40.710938 C 23.09375 40.714844 23.210938 40.699219 23.300781 40.683594 C 23.433594 40.65625 23.441406 40.648438 23.339844 40.648438 C 23.273438 40.648438 23.15625 40.664062 23.078125 40.679688 M 17.730469 40.828125 C 17.769531 40.835938 17.832031 40.835938 17.871094 40.828125 C 17.910156 40.816406 17.878906 40.808594 17.800781 40.808594 C 17.722656 40.808594 17.691406 40.816406 17.730469 40.828125 M 22.128906 40.828125 C 22.167969 40.835938 22.230469 40.835938 22.269531 40.828125 C 22.308594 40.816406 22.277344 40.808594 22.199219 40.808594 C 22.121094 40.808594 22.089844 40.816406 22.128906 40.828125 M 18.261719 40.878906 C 18.511719 40.914062 19.023438 40.929688 18.996094 40.90625 C 18.988281 40.898438 18.765625 40.878906 18.5 40.871094 C 18.179688 40.855469 18.097656 40.859375 18.261719 40.878906 M 21.28125 40.878906 L 20.980469 40.90625 L 21.238281 40.910156 C 21.382812 40.910156 21.609375 40.898438 21.738281 40.882812 L 21.980469 40.851562 L 21.78125 40.851562 C 21.671875 40.855469 21.445312 40.867188 21.28125 40.878906 M 19.511719 40.949219 C 19.78125 40.957031 20.21875 40.957031 20.488281 40.949219 C 20.757812 40.941406 20.539062 40.9375 20 40.9375 C 19.460938 40.9375 19.242188 40.941406 19.511719 40.949219 "/>
<path style=" stroke:none;fill-rule:evenodd;fill:rgb(51.764706%,61.176471%,90.980392%);fill-opacity:1;" d="M 20.570312 1.988281 C 20.609375 1.996094 20.671875 1.996094 20.710938 1.988281 C 20.75 1.976562 20.71875 1.96875 20.640625 1.96875 C 20.5625 1.96875 20.53125 1.976562 20.570312 1.988281 M 21.289062 2.027344 C 21.328125 2.039062 21.390625 2.039062 21.429688 2.027344 C 21.46875 2.015625 21.4375 2.007812 21.359375 2.007812 C 21.28125 2.007812 21.25 2.015625 21.289062 2.027344 M 33.078125 7.011719 C 33.078125 7.019531 33.136719 7.078125 33.210938 7.140625 L 33.339844 7.261719 L 33.222656 7.128906 C 33.113281 7.007812 33.078125 6.980469 33.078125 7.011719 M 6.71875 7.191406 L 6.578125 7.339844 L 6.730469 7.203125 C 6.871094 7.074219 6.898438 7.039062 6.867188 7.039062 C 6.859375 7.039062 6.792969 7.109375 6.71875 7.191406 M 5.699219 8.210938 L 5.539062 8.378906 L 5.710938 8.222656 C 5.804688 8.136719 5.878906 8.058594 5.878906 8.050781 C 5.878906 8.023438 5.84375 8.050781 5.699219 8.210938 M 34.28125 8.21875 C 34.355469 8.296875 34.425781 8.359375 34.4375 8.359375 C 34.445312 8.359375 34.394531 8.296875 34.320312 8.21875 C 34.246094 8.144531 34.175781 8.078125 34.164062 8.078125 C 34.152344 8.078125 34.207031 8.144531 34.28125 8.21875 M 20.648438 22.3125 L 20.660156 26.941406 L 20.671875 22.371094 C 20.679688 18.320312 20.6875 17.800781 20.742188 17.800781 C 20.773438 17.800781 21.128906 17.945312 21.53125 18.125 C 21.933594 18.304688 22.339844 18.484375 22.441406 18.527344 C 22.539062 18.574219 22.726562 18.660156 22.859375 18.722656 C 22.992188 18.78125 23.191406 18.871094 23.300781 18.914062 C 23.5 18.992188 23.804688 19.128906 24.339844 19.378906 C 24.492188 19.453125 24.683594 19.535156 24.761719 19.5625 C 24.835938 19.589844 24.929688 19.636719 24.964844 19.667969 C 24.996094 19.695312 25.046875 19.71875 25.074219 19.71875 C 25.117188 19.71875 26.03125 20.121094 26.71875 20.449219 C 26.90625 20.535156 27.148438 20.640625 27.261719 20.683594 C 27.371094 20.726562 27.640625 20.847656 27.859375 20.949219 C 28.078125 21.050781 28.351562 21.175781 28.464844 21.226562 C 28.578125 21.277344 28.679688 21.320312 28.691406 21.320312 C 28.703125 21.320312 28.890625 21.402344 29.101562 21.5 C 29.3125 21.601562 29.542969 21.691406 29.613281 21.703125 C 29.726562 21.71875 29.730469 21.714844 29.640625 21.6875 C 29.585938 21.667969 29.277344 21.535156 28.960938 21.390625 C 28.640625 21.246094 28.054688 20.984375 27.660156 20.808594 C 27.265625 20.632812 26.570312 20.320312 26.121094 20.121094 C 25.667969 19.917969 24.976562 19.609375 24.578125 19.429688 C 24.183594 19.253906 23.527344 18.960938 23.121094 18.777344 C 21.082031 17.867188 20.773438 17.730469 20.710938 17.707031 C 20.644531 17.683594 20.640625 17.917969 20.648438 22.3125 M 39.449219 20.378906 C 39.449219 20.46875 39.457031 20.5 39.46875 20.449219 C 39.476562 20.398438 39.476562 20.328125 39.46875 20.289062 C 39.457031 20.25 39.449219 20.292969 39.449219 20.378906 M 0.53125 20.441406 C 0.53125 20.515625 0.539062 20.546875 0.546875 20.511719 C 0.558594 20.472656 0.558594 20.410156 0.546875 20.371094 C 0.539062 20.332031 0.53125 20.363281 0.53125 20.441406 M 39.492188 21.441406 C 39.492188 21.5625 39.5 21.609375 39.507812 21.550781 C 39.519531 21.488281 39.519531 21.390625 39.507812 21.328125 C 39.5 21.269531 39.492188 21.320312 39.492188 21.441406 M 0.53125 22.441406 C 0.53125 22.515625 0.539062 22.546875 0.546875 22.511719 C 0.558594 22.472656 0.558594 22.410156 0.546875 22.371094 C 0.539062 22.332031 0.53125 22.363281 0.53125 22.441406 M 39.449219 22.5 C 39.449219 22.589844 39.457031 22.621094 39.46875 22.570312 C 39.476562 22.519531 39.476562 22.449219 39.46875 22.410156 C 39.457031 22.371094 39.449219 22.410156 39.449219 22.5 M 33.777344 35.210938 L 33.378906 35.621094 L 33.789062 35.222656 C 34.015625 35 34.199219 34.816406 34.199219 34.8125 C 34.199219 34.78125 34.148438 34.828125 33.777344 35.210938 M 5.921875 34.929688 C 5.921875 34.9375 6.058594 35.078125 6.230469 35.242188 L 6.539062 35.539062 L 6.242188 35.230469 C 5.964844 34.941406 5.921875 34.902344 5.921875 34.929688 M 19.050781 40.90625 C 19.089844 40.917969 19.152344 40.917969 19.191406 40.90625 C 19.226562 40.898438 19.195312 40.890625 19.121094 40.890625 C 19.042969 40.890625 19.011719 40.898438 19.050781 40.90625 M 20.808594 40.90625 C 20.847656 40.917969 20.910156 40.917969 20.949219 40.90625 C 20.988281 40.898438 20.957031 40.890625 20.878906 40.890625 C 20.804688 40.890625 20.773438 40.898438 20.808594 40.90625 "/>
</g>
</svg>
