<svg xmlns="http://www.w3.org/2000/svg" viewBox="0 0 149.39 171.42"><defs><style>.cls-1{fill:#4f6ae6;}</style></defs><g id="Layer_2" data-name="Layer 2"><g id="Layer_1-2" data-name="Layer 1"><path class="cls-1" d="M149.39,27.47h0a.81.81,0,0,0-.22-.45l-.23-.23c0-.23-.23-.23-.45-.45l-.23-.23-.23-.23L112.39.91a3.4,3.4,0,0,0-4.09,0L74.24,24.07,41.32.68a3.4,3.4,0,0,0-4.09,0l-35.64,25c-.23,0-.23.22-.45.22a.23.23,0,0,0-.23.23c-.23.23-.46.68-.68.91v.23A2.82,2.82,0,0,0,0,28.61v114.2a3.88,3.88,0,0,0,1.59,2.95l35.64,25h.23l.23.22h.23a3.21,3.21,0,0,0,1.59.46,4.13,4.13,0,0,0,1.58-.46h.23a.22.22,0,0,0,.23-.22h.23l33.6-23.62L109,170.74h.23l.22.22h.23a3.28,3.28,0,0,0,1.59.46,5.75,5.75,0,0,0,1.59-.46h.23a.22.22,0,0,0,.22-.22h.23l35.65-25,.22-.23V27.47ZM7.27,35.65,32.92,53.58,7.27,71.52Zm28.38,125.1L7.27,141V85.59L25.2,98.08l10.45,7.27Zm71.29.22L78.56,141.22V85.59l28.38,20ZM108.3,56.53l31.33,22-27.7,19.52-1.59,1.14L77,75.6h-.23a.22.22,0,0,1-.23-.22h-.22a.23.23,0,0,1-.23-.23H73.33a.22.22,0,0,0-.22.23h-.23a.22.22,0,0,0-.23.22h-.22L39.28,99.22l-1.59-1.14L10,78.56l31.33-22a3.53,3.53,0,0,0,0-5.9L10,28.61,39.28,8.17,72.2,31.33a3.4,3.4,0,0,0,4.09,0L110.34,8.17l29.29,20.44-31.33,22a3.53,3.53,0,0,0,0,5.9Z"/></g></g></svg>
