<svg xmlns="http://www.w3.org/2000/svg">
    <defs>
        <!-- BARNBRIDGE -->
        <symbol id="icon__barnbridge" viewBox="0 0 174 37" fill="none">
            <path d="m12.232 10.553c3.2469 0 5.3213 1.2627 5.3213 3.8783 0 1.8038-0.9921 2.8861-2.345 3.337 1.5333 0.451 2.8861 1.5333 2.8861 3.7881 0 3.4272-3.337 4.2389-5.9526 4.2389h-6.5839v-15.242h6.6741zm0 8.6584h-3.4273v3.9684h3.2469c1.4431 0 2.796-0.2706 2.796-1.9842 0-1.6234-1.3529-1.9842-2.6156-1.9842zm-0.3608-6.0428h-3.1566v3.5174h3.337c1.2627 0 2.1646-0.5411 2.1646-1.7136 0-1.2627-0.9019-1.8038-2.345-1.8038z"
                  fill="currentColor"/>
            <path d="m20.62 25.795 6.2232-15.242h3.5174l6.2232 15.242h-3.3371l-1.1725-2.8861h-6.9447l-1.1725 2.8861h-3.337zm5.5016-5.5918h4.9605l-2.1645-5.5017c-0.0902-0.2705-0.1804-0.6313-0.3608-1.1725-0.0902 0.6314-0.1804 0.902-0.3608 1.1725l-2.0744 5.5017z"
                  fill="currentColor"/>
            <path d="m40.462 25.795v-15.242h6.3134c2.9763 0 6.0427 1.0823 6.0427 4.9605 0 2.6156-1.443 3.9685-3.337 4.5096l4.6 5.7722h-3.788l-4.149-5.3212h-2.4352v5.3212h-3.2469zm3.2469-8.1172h3.1567c1.3529 0 2.6155-0.6313 2.6155-2.1646 0-1.5332-1.1725-2.1645-2.6155-2.1645h-3.1567v4.3291z"
                  fill="currentColor"/>
            <path d="m58.05 25.795v-15.242h3.067l7.125 9.9211c0-0.6314-0.09-1.3529-0.09-2.0744v-7.8467h3.247v15.242h-3.067l-7.125-9.921c0 0.6314 0.09 1.3529 0.09 2.0744v7.8466h-3.247z"
                  fill="currentColor"/>
            <path d="m83.57 10.553c3.247 0 5.322 1.2627 5.322 3.8783 0 1.8038-0.993 2.8861-2.345 3.337 1.533 0.451 2.886 1.5333 2.886 3.7881 0 3.4272-3.337 4.2389-5.953 4.2389h-6.584v-15.242h6.674zm0 8.6584h-3.427v3.9684h3.247c1.443 0 2.796-0.2706 2.796-1.9842 0-1.6234-1.263-1.9842-2.616-1.9842zm-0.27-6.0428h-3.157v3.5174h3.337c1.263 0 2.165-0.5411 2.165-1.7136-0.09-1.2627-0.902-1.8038-2.345-1.8038z"
                  fill="currentColor"/>
            <path d="m94.04 25.795v-15.242h6.314c2.976 0 6.043 1.0823 6.043 4.9605 0 2.6156-1.443 3.9685-3.337 4.5096l4.599 5.7722h-3.788l-4.149-5.3212h-2.435v5.3212h-3.247zm3.247-8.1172h3.157c1.353 0 2.616-0.6313 2.616-2.1646 0-1.5332-1.173-2.1645-2.616-2.1645h-3.157v4.3291z"
                  fill="currentColor"/>
            <path d="m114.87 10.553v15.242h-3.246v-15.242h3.246z" fill="currentColor"/>
            <path d="m126.05 10.553c5.412 0 8.027 3.2469 8.027 7.6663s-2.615 7.6662-8.027 7.6662h-5.682v-15.332h5.682zm0 2.796h-2.435v9.47h2.435c3.067 0 4.69-1.6234 4.69-4.7801s-1.713-4.6899-4.69-4.6899z"
                  fill="currentColor"/>
            <path d="m146.17 10.192c1.623 0 3.247 0.3608 4.69 0.9921v3.1567c-1.173-0.7215-2.706-1.1725-4.239-1.1725-2.706 0-5.412 1.4431-5.412 5.0507 0 4.0586 2.977 5.0507 5.231 5.0507 0.632 0 1.263-0.0902 1.714-0.2706v-5.4114h3.157v7.576c-1.533 0.6314-3.247 0.9921-4.961 0.9921-4.239 0-8.387-2.3449-8.387-7.9368-0.091-5.5918 3.968-8.027 8.207-8.027z"
                  fill="currentColor"/>
            <path d="m166.91 10.553v2.8862h-7.486v3.2468h6.854v2.8862h-6.854v3.4272h7.576v2.8861h-10.913v-15.332h10.823z"
                  fill="currentColor"/>
        </symbol>
        <!-- BOND TOKEN -->
        <symbol id="icon__bond-token" viewBox="0 0 40 40" fill="none">
            <rect width="40" height="40" rx="20" fill="#FF4339"/>
            <path d="m19.414 19.171h-0.1136c-1.4389 0-2.6128 1.2118-2.6128 2.6886v2.9158l2.6886-2.007 2.6886 2.007v-2.9158c-0.0379-1.4768-1.2118-2.6886-2.6508-2.6886z"
                  fill="#fff"/>
            <path d="m8.0527 9.3252v21.925l6.7783-5.0742v-5.7937l-1.2497-0.9845 5.7938-4.3547 5.7558 4.3547-1.2497 0.9845v5.7937l6.8162 5.0742v-21.925h-22.645z"
                  fill="#fff"/>
        </symbol>
        <!-- XFUND TOKEN -->
        <symbol id="icon__xfund-token" viewBox="0 0 40 40" fill="none">
            <path style=" stroke:none;fill-rule:nonzero;fill:rgb(31%,42%,90%);fill-opacity:1;" d="M 40 7.214844 C 39.992188 7.167969 39.972656 7.128906 39.941406 7.09375 L 39.878906 7.035156 C 39.878906 6.976562 39.816406 6.976562 39.757812 6.917969 L 39.699219 6.855469 L 39.636719 6.796875 L 30.09375 0.242188 C 29.769531 0.00390625 29.320312 0.00390625 28.996094 0.242188 L 19.878906 6.320312 L 11.0625 0.183594 C 10.738281 -0.0585938 10.292969 -0.0585938 9.96875 0.183594 L 0.425781 6.742188 C 0.363281 6.742188 0.363281 6.800781 0.304688 6.800781 C 0.269531 6.800781 0.242188 6.828125 0.242188 6.863281 C 0.183594 6.921875 0.121094 7.039062 0.0625 7.101562 L 0.0625 7.160156 C 0.0117188 7.273438 -0.0078125 7.390625 0 7.511719 L 0 37.488281 C 0.015625 37.796875 0.171875 38.078125 0.425781 38.261719 L 9.96875 44.824219 L 10.03125 44.824219 L 10.089844 44.882812 L 10.152344 44.882812 C 10.28125 44.957031 10.429688 45 10.578125 45 C 10.726562 44.988281 10.871094 44.949219 11.003906 44.882812 L 11.0625 44.882812 C 11.078125 44.882812 11.09375 44.875 11.105469 44.863281 C 11.117188 44.855469 11.125 44.839844 11.125 44.824219 L 11.1875 44.824219 L 20.183594 38.625 L 29.183594 44.816406 L 29.246094 44.816406 L 29.304688 44.875 L 29.367188 44.875 C 29.496094 44.949219 29.644531 44.992188 29.792969 44.996094 C 29.941406 44.976562 30.082031 44.9375 30.21875 44.875 L 30.28125 44.875 C 30.3125 44.875 30.339844 44.851562 30.339844 44.816406 L 30.402344 44.816406 L 39.945312 38.257812 L 40.003906 38.195312 L 40.003906 7.214844 Z M 1.945312 9.359375 L 8.816406 14.066406 L 1.945312 18.777344 Z M 9.546875 42.195312 L 1.945312 37.011719 L 1.945312 22.46875 L 6.746094 25.746094 L 9.546875 27.65625 Z M 28.632812 42.253906 L 21.035156 37.070312 L 21.035156 22.46875 L 28.632812 27.71875 Z M 28.996094 14.839844 L 37.386719 20.617188 L 29.96875 25.738281 L 29.542969 26.039062 L 20.617188 19.847656 L 20.554688 19.847656 C 20.539062 19.847656 20.523438 19.839844 20.511719 19.832031 C 20.5 19.820312 20.492188 19.804688 20.492188 19.789062 L 20.433594 19.789062 C 20.402344 19.789062 20.375 19.761719 20.375 19.726562 L 19.632812 19.726562 C 19.617188 19.726562 19.601562 19.734375 19.59375 19.746094 C 19.582031 19.757812 19.574219 19.773438 19.574219 19.789062 L 19.515625 19.789062 C 19.496094 19.789062 19.480469 19.792969 19.46875 19.804688 C 19.460938 19.816406 19.453125 19.832031 19.453125 19.847656 L 19.394531 19.847656 L 10.515625 26.046875 L 10.089844 25.746094 L 2.675781 20.625 L 11.066406 14.847656 C 11.332031 14.675781 11.492188 14.386719 11.492188 14.074219 C 11.492188 13.761719 11.332031 13.472656 11.066406 13.300781 L 2.675781 7.511719 L 10.515625 2.148438 L 19.332031 8.226562 C 19.65625 8.464844 20.101562 8.464844 20.425781 8.226562 L 29.542969 2.148438 L 37.386719 7.511719 L 28.996094 13.289062 C 28.730469 13.457031 28.570312 13.75 28.570312 14.0625 C 28.570312 14.375 28.730469 14.664062 28.996094 14.835938 Z M 28.996094 14.839844 "/>
        </symbol>
        <!-- BOND SQUARE TOKEN -->
        <symbol id="icon__bond-square-token" viewBox="0 0 37 37" fill="none">
            <path d="m18.85 16.234h-0.1803c-2.4352 0-4.3292 1.9842-4.3292 4.5095v4.8704l4.4193-3.3371 4.4194 3.3371v-4.8704c0-2.4351-1.9842-4.4193-4.3292-4.5095z"
                  fill="#FF4339"/>
            <path d="M0 0V36.2568L11.2739 27.8691V18.3088L9.1995 16.6854L18.7598 9.47007L28.32 16.6854L26.2456 18.3088V27.8691L37.5195 36.2568V0H0Z"
                  fill="#FF4339"/>
        </symbol>
        <!-- DAI TOKEN -->
        <symbol id="icon__dai-token" viewBox="0 0 40 40" fill="none">
            <path d="m20 39.672c10.865 0 19.672-8.8075 19.672-19.672 0-10.865-8.8075-19.672-19.672-19.672-10.865 0-19.672 8.8075-19.672 19.672 0 10.865 8.8075 19.672 19.672 19.672z"
                  fill="#fff" stroke="#FFCE45" stroke-miterlimit="10"/>
            <path d="m20 4.6035 15.069 15.069-15.069 15.07-15.07-15.07 15.07-15.069z" fill="#FFCE45"/>
            <path d="m20 24.59-15.082-4.918 15.082-15.069 15.082 15.069-15.082 4.918z" fill="#FEBE44"/>
            <path d="m10.164 18.688h6.8852l2.9508-3.2787 3.2787 3.2787h6.8852l-10.164-10.983-9.836 10.983z"
                  fill="#fff"/>
            <path d="M20 34.741V4.60254L35.0691 19.6718L20 34.741Z" fill="#D9A547" opacity=".42"/>
        </symbol>
        <!-- SUSD TOKEN -->
        <symbol id="icon__susd-token" viewBox="0 0 40 40" fill="none">
            <path d="m0 20c0 11.046 8.9543 20 20 20 11.046 0 20-8.9543 20-20 0-11.046-8.9543-20-20-20-11.046 0-20 8.9543-20 20z"
                  fill="#1E1A31"/>
            <path d="m20.927 19.047c0.5427 0 0.9826 0.4399 0.9826 0.9824 0 0.5426-0.4399 0.9824-0.9826 0.9824h-2.5506c-2.4702 0-4.4728-2.0021-4.4728-4.4719 0-2.4697 2.0026-4.4718 4.4728-4.4718h6.5778c0.5426 0 0.9826 0.4398 0.9826 0.9824 0 0.5425-0.44 0.9823-0.9826 0.9823h-6.5778c-1.3849 0-2.5076 1.1225-2.5076 2.5071 0 1.3847 1.1227 2.5071 2.5076 2.5071h2.5506z"
                  fill="#fff"/>
            <path d="m18.914 21.012c-0.5426 0-0.9826-0.4399-0.9826-0.9824 0-0.5426 0.44-0.9824 0.9826-0.9824h2.5506c2.4703 0 4.4728 2.0021 4.4728 4.4718 0 2.4698-2.0025 4.4719-4.4728 4.4719h-6.5778c-0.5426 0-0.9826-0.4398-0.9826-0.9824 0-0.5425 0.44-0.9824 0.9826-0.9824h6.5778c1.3849 0 2.5076-1.1224 2.5076-2.5071 0-1.3846-1.1227-2.507-2.5076-2.507h-2.5506z"
                  fill="#fff"/>
            <path d="m15.663 27.594-1.5974-1.1444 10.047-14.018 1.5974 1.1445-10.047 14.018z"
                  fill="#fff" fill-opacity=".5"/>
        </symbol>
        <!-- USDC TOKEN -->
        <symbol id="icon__usdc-token" viewBox="0 0 40 40" fill="none">
            <path d="m20 40c11.082 0 20-8.918 20-20s-8.918-20-20-20-20 8.918-20 20 8.918 20 20 20z" fill="#2775c9"/>
            <path d="m25.5 23.168c0-2.918-1.75-3.918-5.25-4.3359-2.5-0.33203-3-1-3-2.1641 0-1.168 0.83203-1.918 2.5-1.918 1.5 0 2.332 0.5 2.75 1.75 0.082031 0.25 0.33203 0.41797 0.58203 0.41797h1.3359c0.33203 0 0.58203-0.25 0.58203-0.58594v-0.082031c-0.33203-1.832-1.832-3.25-3.75-3.418v-2c0-0.33203-0.25-0.58203-0.66797-0.66406h-1.25c-0.33203 0-0.58203 0.25-0.66406 0.66406v1.918c-2.5 0.33203-4.0859 2-4.0859 4.082 0 2.75 1.668 3.8359 5.168 4.25 2.332 0.41797 3.082 0.91797 3.082 2.25 0 1.3359-1.1641 2.25-2.75 2.25-2.1641 0-2.9141-0.91406-3.1641-2.1641-0.085938-0.33594-0.33594-0.5-0.58594-0.5h-1.4141c-0.33594 0-0.58594 0.25-0.58594 0.58203v0.082031c0.33594 2.0859 1.668 3.5859 4.418 4v2c0 0.33594 0.25 0.58594 0.66797 0.66797h1.25c0.33203 0 0.58203-0.25 0.66406-0.66797v-2c2.5-0.41406 4.168-2.1641 4.168-4.4141z"
                  fill="#fff"/>
            <path d="m15.75 31.918c-6.5-2.3359-9.832-9.5859-7.418-16 1.25-3.5 4-6.168 7.418-7.418 0.33203-0.16797 0.5-0.41797 0.5-0.83203v-1.168c0-0.33203-0.16797-0.58203-0.5-0.66797-0.082031 0-0.25 0-0.33203 0.085938-7.918 2.5-12.25 10.914-9.75 18.832 1.5 4.668 5.082 8.25 9.75 9.75 0.33203 0.16797 0.66406 0 0.75-0.33203 0.082031-0.085938 0.082031-0.16797 0.082031-0.33594v-1.1641c0-0.25-0.25-0.58594-0.5-0.75zm8.832-26c-0.33203-0.16797-0.66406 0-0.75 0.33203-0.082031 0.082031-0.082031 0.16797-0.082031 0.33203v1.168c0 0.33203 0.25 0.66797 0.5 0.83203 6.5 2.3359 9.832 9.5859 7.418 16-1.25 3.5-4 6.168-7.418 7.418-0.33203 0.16797-0.5 0.41797-0.5 0.83203v1.168c0 0.33203 0.16797 0.58203 0.5 0.66797 0.082031 0 0.25 0 0.33203-0.085938 7.918-2.5 12.25-10.914 9.75-18.832-1.5-4.75-5.1641-8.332-9.75-9.832z"
                  fill="#fff"/>
        </symbol>
        <!-- UNISWAP TOKEN -->
        <symbol id="icon__uniswap-token" viewBox="0 0 42 44" fill="none">
            <path style=" stroke:none;fill-rule:nonzero;fill:rgb(31%,42%,90%);fill-opacity:1;" d="M 27.632812 5.128906 C 27.628906 5.097656 27.613281 5.066406 27.59375 5.042969 L 27.550781 5 C 27.550781 4.957031 27.507812 4.957031 27.46875 4.917969 L 27.382812 4.832031 L 20.796875 0.167969 C 20.574219 0 20.265625 0 20.042969 0.167969 L 13.75 4.492188 L 7.667969 0.125 C 7.445312 -0.0429688 7.136719 -0.0429688 6.914062 0.125 L 0.328125 4.792969 C 0.289062 4.792969 0.289062 4.835938 0.246094 4.835938 C 0.222656 4.835938 0.203125 4.855469 0.203125 4.878906 C 0.160156 4.921875 0.121094 5.003906 0.078125 5.046875 L 0.078125 5.089844 C 0.0429688 5.167969 0.03125 5.253906 0.0351562 5.339844 L 0.0351562 26.660156 C 0.046875 26.878906 0.15625 27.082031 0.328125 27.210938 L 6.914062 31.875 L 6.957031 31.875 L 7 31.917969 L 7.042969 31.917969 C 7.128906 31.972656 7.230469 32 7.335938 32.003906 C 7.4375 31.996094 7.535156 31.964844 7.625 31.917969 L 7.667969 31.917969 C 7.679688 31.917969 7.691406 31.914062 7.699219 31.90625 C 7.707031 31.898438 7.710938 31.886719 7.710938 31.875 L 7.753906 31.875 L 13.960938 27.46875 L 20.171875 31.875 L 20.214844 31.875 L 20.253906 31.914062 L 20.296875 31.914062 C 20.386719 31.96875 20.488281 31.996094 20.589844 32 C 20.691406 31.984375 20.792969 31.957031 20.886719 31.914062 L 20.925781 31.914062 C 20.949219 31.914062 20.96875 31.894531 20.96875 31.875 L 21.011719 31.875 L 27.597656 27.207031 L 27.636719 27.164062 L 27.636719 5.128906 Z M 1.378906 6.65625 L 6.117188 10.003906 L 1.378906 13.351562 Z M 6.621094 30.007812 L 1.378906 26.320312 L 1.378906 15.976562 L 4.691406 18.308594 L 6.621094 19.667969 Z M 19.792969 30.050781 L 14.546875 26.363281 L 14.546875 15.976562 L 19.792969 19.710938 Z M 20.042969 10.554688 L 25.832031 14.660156 L 20.714844 18.304688 L 20.417969 18.515625 L 14.261719 14.113281 L 14.21875 14.113281 C 14.207031 14.113281 14.195312 14.109375 14.1875 14.101562 C 14.179688 14.09375 14.175781 14.082031 14.175781 14.070312 L 14.136719 14.070312 C 14.109375 14.070312 14.09375 14.050781 14.09375 14.027344 L 13.582031 14.027344 C 13.570312 14.027344 13.5625 14.035156 13.554688 14.042969 C 13.546875 14.050781 13.542969 14.058594 13.542969 14.070312 L 13.5 14.070312 C 13.488281 14.070312 13.476562 14.074219 13.46875 14.082031 C 13.460938 14.089844 13.457031 14.101562 13.457031 14.113281 L 13.417969 14.113281 L 7.292969 18.523438 L 7 18.308594 L 1.882812 14.664062 L 7.671875 10.558594 C 7.855469 10.4375 7.964844 10.230469 7.964844 10.007812 C 7.964844 9.785156 7.855469 9.578125 7.671875 9.457031 L 1.882812 5.339844 L 7.292969 1.523438 L 13.375 5.847656 C 13.597656 6.019531 13.90625 6.019531 14.128906 5.847656 L 20.417969 1.523438 L 25.832031 5.339844 L 20.042969 9.449219 C 19.859375 9.570312 19.75 9.777344 19.75 10 C 19.75 10.21875 19.859375 10.425781 20.042969 10.550781 Z M 20.042969 10.554688 "/>
<path style="fill-rule:nonzero;fill:rgb(31%,42%,90%);fill-opacity:1;stroke-width:3;stroke-linecap:butt;stroke-linejoin:miter;stroke:rgb(100%,100%,100%);stroke-opacity:1;stroke-miterlimit:10;" d="M 214.643618 44.256995 C 214.643618 64.701006 198.0655 81.252913 177.63889 81.252913 C 157.21228 81.252913 140.634161 64.701006 140.634161 44.256995 C 140.634161 23.833909 157.21228 7.261077 177.63889 7.261077 C 198.0655 7.261077 214.643618 23.833909 214.643618 44.256995 Z M 214.643618 44.256995 " transform="matrix(0.184731,0,0,0.186676,0.0360712,0)"/>
<path style="fill-rule:nonzero;fill:rgb(100%,100%,100%);fill-opacity:1;stroke-width:0.75;stroke-linecap:butt;stroke-linejoin:miter;stroke:rgb(31%,42%,90%);stroke-opacity:1;stroke-miterlimit:10;" d="M 177.63889 6.821646 L 177.131396 8.53752 L 177.131396 58.004912 L 177.63889 58.507119 L 200.624113 44.905679 Z M 177.63889 6.821646 " transform="matrix(0.184731,0,0,0.186676,0.0360712,0)"/>
<path style="fill-rule:nonzero;fill:rgb(100%,100%,100%);fill-opacity:1;stroke-width:0.75;stroke-linecap:butt;stroke-linejoin:miter;stroke:rgb(31%,42%,90%);stroke-opacity:1;stroke-miterlimit:10;" d="M 177.63889 6.821646 L 154.653667 45.010305 L 177.660035 58.59082 L 177.660035 6.821646 Z M 177.63889 6.821646 " transform="matrix(0.184731,0,0,0.186676,0.0360712,0)"/>
<path style="fill-rule:nonzero;fill:rgb(100%,100%,100%);fill-opacity:1;stroke-width:0.75;stroke-linecap:butt;stroke-linejoin:miter;stroke:rgb(31%,42%,90%);stroke-opacity:1;stroke-miterlimit:10;" d="M 177.63889 62.880505 L 177.342852 63.236235 L 177.342852 80.876257 L 177.63889 81.692344 L 200.624113 49.29999 Z M 177.63889 62.880505 " transform="matrix(0.184731,0,0,0.186676,0.0360712,0)"/>
<path style="fill-rule:nonzero;fill:rgb(100%,100%,100%);fill-opacity:1;stroke-width:0.75;stroke-linecap:butt;stroke-linejoin:miter;stroke:rgb(31%,42%,90%);stroke-opacity:1;stroke-miterlimit:10;" d="M 177.63889 81.692344 L 177.63889 62.880505 L 154.632521 49.29999 Z M 177.63889 81.692344 " transform="matrix(0.184731,0,0,0.186676,0.0360712,0)"/>
<path style="fill-rule:nonzero;fill:rgb(100%,100%,100%);fill-opacity:1;stroke-width:0.75;stroke-linecap:butt;stroke-linejoin:miter;stroke:rgb(31%,42%,90%);stroke-opacity:1;stroke-miterlimit:10;" d="M 177.63889 58.54897 L 200.624113 44.947529 L 177.63889 34.505808 Z M 177.63889 58.54897 " transform="matrix(0.184731,0,0,0.186676,0.0360712,0)"/>
<path style="fill-rule:nonzero;fill:rgb(100%,100%,100%);fill-opacity:1;stroke-width:0.75;stroke-linecap:butt;stroke-linejoin:miter;stroke:rgb(31%,42%,90%);stroke-opacity:1;stroke-miterlimit:10;" d="M 154.653667 45.010305 L 177.660035 58.59082 L 177.660035 34.589509 Z M 154.653667 45.010305 " transform="matrix(0.184731,0,0,0.186676,0.0360712,0)"/>
<path style="fill-rule:nonzero;fill:rgb(31%,42%,90%);fill-opacity:1;stroke-width:3;stroke-linecap:butt;stroke-linejoin:miter;stroke:rgb(100%,100%,100%);stroke-opacity:1;stroke-miterlimit:10;" d="M 214.643618 127.581511 C 214.643618 148.025522 198.0655 164.598354 177.63889 164.598354 C 157.21228 164.598354 140.634161 148.025522 140.634161 127.581511 C 140.634161 107.158425 157.21228 90.585593 177.63889 90.585593 C 198.0655 90.585593 214.643618 107.158425 214.643618 127.581511 Z M 214.643618 127.581511 " transform="matrix(0.184731,0,0,0.186676,0.0360712,0)"/>
<path style="fill-rule:nonzero;fill:rgb(100%,100%,100%);fill-opacity:1;stroke-width:0.5;stroke-linecap:butt;stroke-linejoin:miter;stroke:rgb(17.647059%,18.823529%,48.235294%);stroke-opacity:1;stroke-miterlimit:10;" d="M 170.407109 96.800405 C 169.582432 96.674854 169.540141 96.653928 169.920761 96.591152 C 171.189494 96.528376 172.458228 96.633003 173.68467 96.925957 C 176.539321 97.616492 179.119079 99.353291 181.846856 102.408384 L 182.565805 103.245396 L 183.559646 103.098918 C 187.87334 102.366533 192.292762 102.910591 196.289273 104.668315 C 197.283114 105.128672 198.25581 105.693655 199.143924 106.342339 C 199.291942 106.698069 199.376525 107.074724 199.418816 107.451379 C 199.757145 108.895225 199.609126 110.422771 198.995905 111.76199 C 198.699867 112.138645 198.657576 112.640852 198.869031 113.059358 C 199.059341 113.477864 199.482252 113.728967 199.947455 113.728967 C 200.941296 113.728967 201.892846 112.222346 202.379194 110.108892 L 202.569504 109.27188 L 202.928979 109.690386 C 204.895516 111.80384 206.227686 114.440427 206.77747 117.307192 L 206.840907 117.893101 L 206.481433 117.369968 C 205.995085 116.595732 205.339572 115.905198 204.578332 115.382065 C 203.225016 114.461353 201.808264 114.189324 198.023209 113.980071 C 195.549178 113.959146 193.117439 113.58249 190.749137 112.87103 C 187.49272 111.80384 185.822221 110.422771 181.973729 105.296074 C 180.810724 103.684827 179.520845 102.15728 178.125238 100.755286 C 176.052973 98.641831 173.325196 97.260762 170.385963 96.821331 Z M 170.407109 96.800405 " transform="matrix(0.184731,0,0,0.186676,0.0360712,0)"/>
<path style="fill-rule:nonzero;fill:rgb(100%,100%,100%);fill-opacity:1;stroke-width:0.5;stroke-linecap:butt;stroke-linejoin:miter;stroke:rgb(17.647059%,18.823529%,48.235294%);stroke-opacity:1;stroke-miterlimit:10;" d="M 199.989746 101.843401 C 200.010891 100.671584 200.243493 99.499768 200.708695 98.411653 C 200.793277 98.181475 200.92015 97.951296 201.068169 97.742043 C 201.110461 97.742043 201.068169 98.014072 200.92015 98.348877 C 200.581822 99.478843 200.518385 100.671584 200.750986 101.843401 C 201.025878 103.622051 201.152752 103.831304 203.055852 105.840132 C 203.943965 106.739919 204.980098 107.911736 205.360718 108.372092 L 206.058521 109.250955 L 205.360718 108.623196 C 204.388022 107.702483 203.330744 106.865471 202.21003 106.112161 C 201.913992 105.965684 201.871701 105.965684 201.681391 106.112161 C 201.469935 106.279563 201.469935 106.509741 201.469935 107.660632 C 201.512226 109.062627 201.216188 110.422771 200.602967 111.678289 C 200.285784 112.264197 200.243493 112.15957 200.518385 111.469036 C 200.772132 110.673875 200.856714 109.836863 200.750986 108.999851 C 200.750986 105.568103 200.34922 104.710166 197.938627 103.329097 C 197.346551 102.973367 196.310419 102.450234 195.718343 102.178206 C 195.358868 102.010803 194.999394 101.843401 194.639919 101.655073 C 195.78178 101.885251 196.902494 102.220056 197.980918 102.659487 C 199.376525 103.203545 199.609126 103.245396 199.77829 103.203545 C 199.926309 103.161694 199.947455 102.785039 199.989746 101.780625 Z M 199.989746 101.843401 " transform="matrix(0.184731,0,0,0.186676,0.0360712,0)"/>
<path style="fill-rule:nonzero;fill:rgb(100%,100%,100%);fill-opacity:1;stroke-width:0.5;stroke-linecap:butt;stroke-linejoin:miter;stroke:rgb(17.647059%,18.823529%,48.235294%);stroke-opacity:1;stroke-miterlimit:10;" d="M 171.993025 107.765259 C 170.25909 105.254224 169.392122 102.261907 169.49785 99.227739 L 169.561286 98.390728 L 169.963052 98.474429 C 170.851165 98.683682 171.718133 99.018486 172.500519 99.478843 C 174.107581 100.462332 174.82653 101.738774 175.503188 105.00312 C 175.714644 106.007534 175.989536 107.053799 176.11641 107.430454 C 176.539321 108.434868 177.06796 109.397432 177.702326 110.276294 C 178.125238 110.904053 177.850345 111.280708 176.87765 111.155156 C 174.868822 110.673875 173.134886 109.460208 171.993025 107.765259 Z M 171.993025 107.765259 " transform="matrix(0.184731,0,0,0.186676,0.0360712,0)"/>
<path style="fill-rule:nonzero;fill:rgb(100%,100%,100%);fill-opacity:1;stroke-width:0.5;stroke-linecap:butt;stroke-linejoin:miter;stroke:rgb(17.647059%,18.823529%,48.235294%);stroke-opacity:1;stroke-miterlimit:10;" d="M 198.002063 125.049551 C 190.135915 121.868906 187.365847 119.127693 187.365847 114.482278 C 187.365847 113.812668 187.365847 113.247686 187.365847 113.247686 C 187.598448 113.394163 187.831049 113.58249 188.042505 113.770818 C 189.628422 115.047261 191.404649 115.612244 196.395001 116.323704 C 198.44612 116.553882 200.476094 116.972388 202.463776 117.600146 C 207.263818 119.169543 210.266488 122.433889 210.964291 126.849126 C 211.154601 128.523149 211.070019 130.197173 210.73169 131.850271 C 210.456798 132.854685 210.033887 133.838174 209.462956 134.717036 C 209.462956 134.717036 209.336083 134.507783 209.336083 134.193904 C 209.20921 132.436179 208.384533 130.804006 207.031217 129.694966 C 205.339572 128.272046 203.203871 127.204856 197.959772 125.091401 Z M 198.002063 125.049551 " transform="matrix(0.184731,0,0,0.186676,0.0360712,0)"/>
<path style="fill-rule:nonzero;fill:rgb(100%,100%,100%);fill-opacity:1;stroke-width:0.5;stroke-linecap:butt;stroke-linejoin:miter;stroke:rgb(17.647059%,18.823529%,48.235294%);stroke-opacity:1;stroke-miterlimit:10;" d="M 192.419636 126.367844 C 192.335053 125.781936 192.20818 125.237878 192.01787 124.693821 L 191.82756 124.086987 L 192.165889 124.526418 C 192.736819 125.196028 193.15973 125.991189 193.455768 126.828201 C 193.709515 127.539661 193.815243 128.292971 193.73066 129.046282 C 193.794097 129.778667 193.688369 130.511052 193.455768 131.180662 C 193.096294 132.185076 192.525363 133.105789 191.785269 133.859099 C 190.157061 135.407571 188.042505 136.328284 185.77993 136.474761 C 185.314728 136.516611 183.940266 136.621238 182.798406 136.704939 C 180.49354 136.74679 178.20982 137.123445 176.031827 137.813979 C 175.862663 137.876755 175.693498 137.939531 175.503188 137.939531 C 176.158701 137.416399 176.87765 136.997893 177.63889 136.663088 C 179.563136 135.847002 181.571964 135.302944 183.644229 135.072766 C 184.82838 134.926289 186.033677 134.675186 187.196683 134.361306 C 191.108611 133.147639 193.054002 130.092546 192.419636 126.367844 Z M 192.419636 126.367844 " transform="matrix(0.184731,0,0,0.186676,0.0360712,0)"/>
<path style="fill-rule:nonzero;fill:rgb(100%,100%,100%);fill-opacity:1;stroke-width:0.5;stroke-linecap:butt;stroke-linejoin:miter;stroke:rgb(17.647059%,18.823529%,48.235294%);stroke-opacity:1;stroke-miterlimit:10;" d="M 195.993235 132.750059 C 194.978248 130.783081 194.724502 128.481299 195.295432 126.325994 C 195.358868 126.137666 195.443451 125.928413 195.528033 125.928413 C 195.718343 125.991189 195.908653 126.07489 196.077817 126.200442 C 196.54302 126.535247 197.536861 127.079304 200.074328 128.460374 C 203.288453 130.218098 205.128117 131.557317 206.39685 133.126714 C 207.517565 134.507783 208.236514 136.160881 208.490261 137.918606 C 208.659425 139.488003 208.595988 141.09925 208.299951 142.647722 C 207.538711 145.891143 205.4453 148.653281 202.548359 150.264529 C 202.273466 150.431931 201.998574 150.557483 201.702536 150.662109 C 201.787118 150.369155 201.913992 150.076201 202.062011 149.783247 C 203.013561 147.879045 203.140434 145.640039 202.40034 143.631211 C 201.596808 141.601458 200.53953 139.676331 199.249651 137.918606 C 198.002063 136.286433 196.92364 134.570559 195.97209 132.750059 Z M 195.993235 132.750059 " transform="matrix(0.184731,0,0,0.186676,0.0360712,0)"/>
<path style="fill-rule:nonzero;fill:rgb(100%,100%,100%);fill-opacity:1;stroke-width:0.5;stroke-linecap:butt;stroke-linejoin:miter;stroke:rgb(17.647059%,18.823529%,48.235294%);stroke-opacity:1;stroke-miterlimit:10;" d="M 166.431743 144.907654 C 169.265248 142.501245 172.669683 140.869072 176.327865 140.136687 C 178.01951 139.906509 179.774591 139.969285 181.44509 140.34594 C 183.432773 140.806296 185.209 141.936262 186.456588 143.568435 C 187.49272 145.179683 188.105942 147.042034 188.275106 148.967161 C 188.423125 150.034351 188.634581 151.143391 188.676872 151.373569 C 188.888327 152.608162 189.501549 153.717202 190.431953 154.512363 C 191.679541 155.433076 193.815243 155.516777 195.929799 154.679766 C 196.141254 154.575139 196.373855 154.512363 196.606456 154.470513 C 196.098963 154.951794 195.528033 155.349375 194.893666 155.621404 C 194.005553 156.102686 193.011711 156.353789 192.01787 156.311938 C 189.987896 156.249163 188.148233 155.098271 187.175537 153.319622 C 186.689189 152.461685 186.245132 151.582822 185.864512 150.683035 C 184.490051 147.46054 183.749956 146.518901 182.121748 145.430786 C 180.747287 144.510073 178.992206 144.363596 177.469725 145.01228 C 176.623903 145.409861 176.010682 146.184097 175.820372 147.083884 C 175.630062 148.004597 175.862663 148.946235 176.475884 149.657695 C 177.06796 150.285454 177.871491 150.70396 178.738459 150.850437 C 179.415117 150.934138 180.134066 150.724885 180.641559 150.264529 C 181.170198 149.783247 181.466236 149.113638 181.466236 148.423103 C 181.529673 147.544241 181.001034 146.74908 180.155211 146.477051 C 178.886478 145.932993 177.490871 146.560752 177.554308 147.795344 C 177.533162 148.276626 177.8292 148.716057 178.294402 148.862534 C 178.611586 149.029937 178.611586 149.029937 178.378984 148.988086 C 177.850345 148.841609 177.427434 148.402178 177.321706 147.85812 C 177.194833 147.314062 177.406289 146.74908 177.850345 146.414275 C 178.949914 145.305234 181.297072 145.786516 182.100603 147.314062 C 182.438932 148.172 182.460077 149.134563 182.185185 150.013425 C 181.466236 151.792075 179.478553 152.712788 177.660035 152.147805 C 176.349011 151.792075 175.799226 151.436345 174.192164 149.804172 C 171.422095 146.958333 170.343672 146.39335 166.389452 145.807441 L 165.628212 145.68189 Z M 166.431743 144.907654 " transform="matrix(0.184731,0,0,0.186676,0.0360712,0)"/>
<path style="fill-rule:evenodd;fill:rgb(100%,100%,100%);fill-opacity:1;stroke-width:0.5;stroke-linecap:butt;stroke-linejoin:miter;stroke:rgb(17.647059%,18.823529%,48.235294%);stroke-opacity:1;stroke-miterlimit:10;" d="M 145.539931 81.001809 C 154.801686 92.238691 169.053793 109.711311 169.772742 110.673875 C 170.385963 111.469036 170.132216 112.222346 169.159521 112.787329 C 168.440572 113.143059 167.679331 113.352312 166.8758 113.415088 C 166.156851 113.373237 165.480193 113.080283 164.9727 112.578076 C 164.613225 112.222346 163.0696 109.962415 159.559437 104.500913 C 156.916242 100.33678 154.632521 96.884106 154.569085 96.842256 C 154.505648 96.800405 154.421066 96.77948 159.242253 105.421626 C 162.329505 110.862202 163.302201 112.808254 163.302201 113.059358 C 163.302201 113.561565 163.154182 113.854519 162.498669 114.545054 C 161.420246 115.737795 160.955044 117.097939 160.595569 119.901929 C 160.193803 123.061648 159.136525 125.279729 156.070419 129.046282 C 155.076578 130.113472 154.230756 131.306213 153.554098 132.582656 C 153.046604 133.566145 152.771712 134.65426 152.750567 135.763301 C 152.665984 137.081594 152.835149 138.399888 153.279206 139.655405 C 153.723262 140.994624 154.357629 142.271067 155.182306 143.401033 C 155.837818 144.279895 156.324166 145.242458 156.64135 146.288723 C 156.64135 146.623528 156.725932 146.623528 158.16383 146.288723 C 161.58941 145.493562 164.40177 144.154343 165.945396 142.48032 C 166.812363 141.727009 167.25642 140.597043 167.129547 139.467078 C 167.192984 138.902095 167.087256 138.316187 166.854655 137.793054 C 166.452889 136.914192 165.712794 136.223657 164.063441 135.114617 C 161.927739 133.649846 161.01848 132.436179 160.785879 130.866782 C 160.574424 129.506638 160.785879 128.585925 162.012322 126.07489 C 163.0696 124.149763 163.661675 121.994458 163.767403 119.797302 C 163.894276 118.144204 164.084586 117.453669 164.570934 116.930537 C 165.141864 116.344629 165.92425 116.009824 166.748927 116.03075 C 168.377135 115.926123 169.899615 115.298364 171.126058 114.231174 C 171.993025 113.519714 172.479373 112.47345 172.479373 111.343484 L 172.479373 110.443696 L 171.950734 109.878713 C 170.089925 107.744333 144.228906 79.30686 144.102033 79.30686 C 143.97516 79.30686 144.799836 79.997395 145.539931 81.001809 Z M 157.740919 137.5001 C 158.16383 136.74679 157.931229 135.784226 157.21228 135.302944 C 156.535622 134.884438 155.499489 135.072766 155.499489 135.6796 C 155.499489 135.867927 155.647508 136.03533 155.837818 136.07718 C 156.176147 136.265508 156.239584 136.474761 155.943546 136.893267 C 155.668654 137.332698 155.668654 137.730278 156.028128 138.002307 C 156.324166 138.21156 156.683641 138.274336 157.000824 138.169709 C 157.339153 138.065083 157.614045 137.813979 157.740919 137.5001 Z M 157.740919 137.5001 " transform="matrix(0.184731,0,0,0.186676,0.0360712,0)"/>
<path style="fill-rule:evenodd;fill:rgb(100%,100%,100%);fill-opacity:1;stroke-width:0.5;stroke-linecap:butt;stroke-linejoin:miter;stroke:rgb(17.647059%,18.823529%,48.235294%);stroke-opacity:1;stroke-miterlimit:10;" d="M 173.832689 116.595732 C 172.796557 116.993313 171.993025 117.85125 171.696988 118.939365 C 171.527823 119.650825 171.59126 120.404136 171.887298 121.073745 C 172.310209 121.638728 172.711975 121.785205 173.832689 121.785205 C 176.010682 121.785205 177.8292 120.780791 178.082947 119.67175 C 178.104092 118.437158 177.406289 117.328118 176.285574 116.804985 C 175.503188 116.491106 174.657366 116.407405 173.832689 116.595732 Z M 176.370156 118.583635 C 176.539321 118.374382 176.581612 118.081428 176.49703 117.809399 C 176.433593 117.537371 176.222137 117.328118 175.968391 117.223491 C 174.889967 116.553882 173.282905 117.118865 173.282905 118.144204 C 173.282905 118.667336 174.107581 119.211394 174.911113 119.211394 C 175.460897 119.190469 175.968391 118.960291 176.370156 118.583635 Z M 176.370156 118.583635 " transform="matrix(0.184731,0,0,0.186676,0.0360712,0)"/>
        </symbol>
        <!-- RIGHT ARROW CIRCLE OUTLINED -->
        <symbol id="icon__right-arrow-circle-outlined" viewBox="0 0 24 24" fill="none">
            <path d="M12.9066 6.47135C12.6146 6.17753 12.1397 6.17603 11.8459 6.46799C11.5521 6.75996 11.5506 7.23483 11.8426 7.52865L12.9066 6.47135ZM16.7575 11.4107L16.2255 11.9394L16.7575 11.4107ZM16.7575 12.5893L16.2255 12.0606L16.7575 12.5893ZM11.8426 16.4714C11.5506 16.7652 11.5521 17.24 11.8459 17.532C12.1397 17.824 12.6146 17.8225 12.9066 17.5286L11.8426 16.4714ZM16.5149 12.75C16.9291 12.75 17.2649 12.4142 17.2649 12C17.2649 11.5858 16.9291 11.25 16.5149 11.25V12.75ZM7 11.25C6.58579 11.25 6.25 11.5858 6.25 12C6.25 12.4142 6.58579 12.75 7 12.75L7 11.25ZM11.8426 7.52865L16.2255 11.9394L17.2895 10.8821L12.9066 6.47135L11.8426 7.52865ZM16.2255 12.0606L11.8426 16.4714L12.9066 17.5286L17.2895 13.1179L16.2255 12.0606ZM16.2255 11.9394C16.2582 11.9723 16.2582 12.0277 16.2255 12.0606L17.2895 13.1179C17.9035 12.5 17.9035 11.5 17.2895 10.8821L16.2255 11.9394ZM16.5149 11.25L7 11.25L7 12.75L16.5149 12.75V11.25Z"
                  fill="currentColor"/>
            <path d="M21.25 12C21.25 17.1086 17.1086 21.25 12 21.25V22.75C17.9371 22.75 22.75 17.9371 22.75 12H21.25ZM12 21.25C6.89137 21.25 2.75 17.1086 2.75 12H1.25C1.25 17.9371 6.06294 22.75 12 22.75V21.25ZM2.75 12C2.75 6.89137 6.89137 2.75 12 2.75V1.25C6.06294 1.25 1.25 6.06294 1.25 12H2.75ZM12 2.75C17.1086 2.75 21.25 6.89137 21.25 12H22.75C22.75 6.06294 17.9371 1.25 12 1.25V2.75Z"
                  fill="currentColor"/>
        </symbol>
        <!-- LEFT ARROW -->
        <symbol id="icon__left-arrow" viewBox="0 0 21 24" fill="none">
            <path d="M12.0709 20.8637L11.0303 21.9043C10.5897 22.3449 9.8772 22.3449 9.44126 21.9043L0.32876 12.7965C-0.111865 12.3559 -0.111865 11.6434 0.32876 11.2074L9.44126 2.09493C9.88188 1.65431 10.5944 1.65431 11.0303 2.09493L12.0709 3.13556C12.5163 3.58087 12.5069 4.30743 12.0522 4.74337L6.40376 10.1246H19.8756C20.4991 10.1246 21.0006 10.6262 21.0006 11.2496V12.7496C21.0006 13.3731 20.4991 13.8746 19.8756 13.8746H6.40376L12.0522 19.2559C12.5116 19.6918 12.5209 20.4184 12.0709 20.8637Z"
                  fill="currentColor"/>
        </symbol>
        <!-- BELL -->
        <symbol id="icon__bell" viewBox="0 0 21 24" fill="none">
            <path d="m10.499 24c1.6556 0 2.9986-1.343 2.9986-3h-5.9972c0 1.657 1.343 3 2.9986 3zm10.096-7.0177c-0.9056-0.9731-2.6002-2.437-2.6002-7.2323 0-3.6422-2.5537-6.5578-5.9972-7.2731v-0.97688c0-0.82828-0.6712-1.5-1.499-1.5-0.82783 0-1.4991 0.67172-1.4991 1.5v0.97688c-3.4434 0.71531-5.9972 3.6309-5.9972 7.2731 0 4.7953-1.6945 6.2592-2.6002 7.2323-0.28125 0.3024-0.40594 0.6638-0.40359 1.0177 0.0051562 0.7687 0.60844 1.5 1.5047 1.5h17.991c0.8962 0 1.5-0.7313 1.5047-1.5 0.0023-0.3539-0.1224-0.7158-0.4036-1.0177z"
                  fill="currentColor"/>
        </symbol>
        <!-- CHEVRON RIGHT -->
        <symbol id="icon__chevron-right" viewBox="0 0 16 14" fill="none">
            <path d="m11.921 7.5303-6.0732 6.0733c-0.29291 0.2929-0.76778 0.2929-1.0607 0l-0.70834-0.7084c-0.29241-0.2924-0.29297-0.7663-0.00125-1.0594l4.8132-4.8358-4.8132-4.8358c-0.29172-0.2931-0.29116-0.767 0.00125-1.0594l0.70834-0.70834c0.29291-0.29291 0.76778-0.29291 1.0607 0l6.0732 6.0732c0.2929 0.2929 0.2929 0.76778 0 1.0607z"
                  fill="currentColor"/>
        </symbol>
        <!-- CLOSE CIRCLE OUTLINED -->
        <symbol id="icon__close-circle-outlined" viewBox="0 0 40 40" fill="none">
            <path d="m20 40c11.046 0 20-8.9543 20-20 0-11.046-8.9543-20-20-20-11.046 0-20 8.9543-20 20 0 11.046 8.9543 20 20 20z"
                  fill="currentColor" fill-opacity=".08"/>
            <path d="m26.222 13.778-3.8225 3.8225" stroke="currentColor" stroke-linecap="round" stroke-width="2"/>
            <path d="m24.675 15.323-10.899 10.899" stroke="currentColor" stroke-linecap="round" stroke-width="2"/>
            <path d="m26.223 26.222-12.445-12.445" stroke="currentColor" stroke-linecap="round" stroke-width="2"/>
        </symbol>
        <!-- CHECK CIRCLE OUTLINED -->
        <symbol id="icon__check-circle-outlined" viewBox="0 0 40 40" fill="none">
            <path d="m20 40c11.046 0 20-8.9543 20-20 0-11.046-8.9543-20-20-20-11.046 0-20 8.9543-20 20 0 11.046 8.9543 20 20 20z"
                  fill="currentColor" fill-opacity=".08"/>
            <path d="m27 15.667-8.6262 8.6263c-0.3906 0.3905-1.0237 0.3905-1.4142 0l-3.9596-3.9596"
                  stroke="currentColor" stroke-linecap="round" stroke-linejoin="round" stroke-width="1.5"/>
        </symbol>
        <!-- HISTORY CIRCLE OUTLINED -->
        <symbol id="icon__history-circle-outlined" viewBox="0 0 40 40" fill="none">
            <path d="m20 40c11.046 0 20-8.9543 20-20 0-11.046-8.9543-20-20-20-11.046 0-20 8.9543-20 20 0 11.046 8.9543 20 20 20z"
                  fill="currentColor" fill-opacity=".08"/>
            <path d="m25 13h-10m10 14h-10m5.2026-7.0507c-0.133 0.0333-0.2722 0.0333-0.4052 0-2.2318-0.5579-3.7974-2.5631-3.7974-4.8635v-1.0858c0-0.5523 0.4477-1 1-1h6c0.5523 0 1 0.4477 1 1v1.0858c0 2.3004-1.5656 4.3056-3.7974 4.8635zm0 0.1014c-0.133-0.0333-0.2722-0.0333-0.4052 0-2.2318 0.5579-3.7974 2.5631-3.7974 4.8635v1.0858c0 0.5523 0.4477 1 1 1h6c0.5523 0 1-0.4477 1-1v-1.0858c0-2.3004-1.5656-4.3056-3.7974-4.8635z"
                  stroke="currentColor" stroke-linecap="round" stroke-linejoin="round" stroke-width="1.5"/>
        </symbol>
        <!-- CLOSE -->
        <symbol id="icon__close" viewBox="0 0 12 16" fill="none">
            <path d="m8.2518 8 3.1272-3.1272c0.3838-0.38375 0.3838-1.0059 0-1.39l-0.695-0.695c-0.3837-0.38375-1.0059-0.38375-1.39 0l-3.1272 3.1272-3.1272-3.1272c-0.38375-0.38375-1.0059-0.38375-1.39 0l-0.695 0.695c-0.38375 0.38375-0.38375 1.0059 0 1.39l3.1272 3.1272-3.1272 3.1272c-0.38375 0.3837-0.38375 1.0059 0 1.39l0.695 0.695c0.38375 0.3837 1.0062 0.3837 1.39 0l3.1272-3.1272 3.1272 3.1272c0.38375 0.3837 1.0063 0.3837 1.39 0l0.695-0.695c0.3838-0.3838 0.3838-1.0059 0-1.39l-3.1272-3.1272z"
                  fill="currentColor"/>
        </symbol>
        <!-- DROPDOWN ARROW -->
        <symbol id="icon__dropdown-arrow" viewBox="0 0 24 24" fill="none">
            <path d="M11.2947 14.2929L7.70896 10.7071C7.079 10.0771 7.52516 9 8.41607 9H15.5876C16.4785 9 16.9247 10.0771 16.2947 10.7071L12.709 14.2929C12.3184 14.6834 11.6853 14.6834 11.2947 14.2929Z"
                  fill="currentColor"/>
        </symbol>
        <!-- WARNING OUTLINED -->
        <symbol id="icon__warning-outlined" viewBox="0 0 39 34" fill="none">
            <path d="m37.744 28.98c1.2017 2.0829-0.3067 4.6866-2.7069 4.6866h-31.243c-2.4048 0-3.9062-2.6077-2.7068-4.6866l15.622-27.085c1.2023-2.0839 4.2135-2.0801 5.4137 0l15.621 27.085zm-18.328-5.5998c-1.6539 0-2.9948 1.3408-2.9948 2.9948 0 1.6539 1.3409 2.9948 2.9948 2.9948 1.654 0 2.9948-1.3409 2.9948-2.9948 0-1.654-1.3408-2.9948-2.9948-2.9948zm-2.8433-10.765 0.483 8.8541c0.0226 0.4143 0.3651 0.7387 0.78 0.7387h3.1606c0.4149 0 0.7575-0.3244 0.7801-0.7387l0.4829-8.8541c0.0244-0.4476-0.3319-0.8239-0.7801-0.8239h-4.1265c-0.4481 0-0.8044 0.3763-0.78 0.8239z"
                  fill="currentColor"/>
        </symbol>
        <!-- GEAR -->
        <symbol id="icon__gear" viewBox="0 0 24 24" fill="none">
            <path d="m9.5996 3.5312v-0.33125c0-0.88366 0.71639-1.6 1.6-1.6h1.6c0.8837 0 1.6 0.71634 1.6 1.6v0.33125c0.6657 0.18827 1.2993 0.45292 1.8908 0.78387l0.2347-0.23472c0.6248-0.62484 1.6379-0.62484 2.2627 0l1.1314 1.1314c0.6248 0.62484 0.6248 1.6379 0 2.2627l-0.2347 0.23473c0.3309 0.59148 0.5956 1.2251 0.7839 1.8908h0.3312c0.8837 0 1.6 0.71632 1.6 1.6v1.6c0 0.8836-0.7163 1.6-1.6 1.6h-0.3312c-0.1883 0.6656-0.453 1.2993-0.7839 1.8907l0.2347 0.2348c0.6248 0.6248 0.6248 1.6379 0 2.2627l-1.1314 1.1314c-0.6248 0.6248-1.6379 0.6248-2.2627 0l-0.2347-0.2348c-0.5915 0.331-1.2251 0.5956-1.8908 0.7839v0.3313c0 0.8836-0.7163 1.6-1.6 1.6h-1.6c-0.8836 0-1.6-0.7164-1.6-1.6v-0.3313c-0.66567-0.1883-1.2993-0.4529-1.8908-0.7839l-0.23472 0.2348c-0.62484 0.6248-1.6379 0.6248-2.2628 0l-1.1314-1.1314c-0.62484-0.6248-0.62484-1.6379 0-2.2627l0.23473-0.2348c-0.33096-0.5914-0.5956-1.2251-0.78388-1.8907h-0.33125c-0.88366 0-1.6-0.7164-1.6-1.6v-1.6c0-0.8837 0.71634-1.6 1.6-1.6h0.33125c0.18828-0.66568 0.45292-1.2993 0.78388-1.8908l-0.23473-0.23473c-0.62484-0.62484-0.62484-1.6379 0-2.2627l1.1314-1.1314c0.62484-0.62484 1.6379-0.62484 2.2628 0l0.23472 0.23472c0.59148-0.33095 1.2251-0.5956 1.8908-0.78387zm2.4 11.669c1.7673 0 3.2-1.4327 3.2-3.2s-1.4327-3.2-3.2-3.2-3.2 1.4327-3.2 3.2 1.4327 3.2 3.2 3.2z"
                  stroke="currentColor" stroke-linecap="round" stroke-width="1.5"/>
        </symbol>
        <!-- EARTH -->
        <symbol id="icon__earth" viewBox="0 0 24 24" fill="none">
            <path d="m11.625 0.375c-6.4205 0-11.625 5.2045-11.625 11.625s5.2045 11.625 11.625 11.625 11.625-5.2045 11.625-11.625-5.2045-11.625-11.625-11.625zm3.8573 16.762c-0.1828 0.1819-0.3745 0.3727-0.5301 0.5288-0.1402 0.1406-0.2391 0.314-0.2892 0.502-0.0708 0.2653-0.128 0.5334-0.2236 0.7908l-0.8152 2.1961c-0.645 0.1406-1.3125 0.2198-1.9992 0.2198v-1.2834c0.0792-0.5916-0.3581-1.6997-1.0608-2.4024-0.2812-0.2812-0.4392-0.6628-0.4392-1.0608v-1.5004c0-0.5457-0.29391-1.0472-0.77156-1.3111-0.6736-0.3727-1.6317-0.8935-2.288-1.2239-0.53813-0.271-1.0359-0.616-1.4836-1.0196l-0.0375-0.0337c-0.32012-0.289-0.60435-0.6154-0.84656-0.9722-0.43969-0.64547-1.1559-1.7072-1.6214-2.3972 0.95953-2.1328 2.6888-3.8456 4.8375-4.7761l1.1255 0.56297c0.49875 0.24937 1.0856-0.11297 1.0856-0.67078v-0.52969c0.3745-0.06047 0.7556-0.09891 1.1433-0.11344l1.3265 1.3266c0.293 0.29297 0.293 0.76782 0 1.0608l-0.2198 0.21938-0.4847 0.48469c-0.1462 0.14625-0.1462 0.3839 0 0.53015l0.2199 0.21985c0.1462 0.14625 0.1462 0.3839 0 0.53015l-0.375 0.375c-0.0705 0.07028-0.1659 0.10973-0.2654 0.10969h-0.4214c-0.0975 0-0.1912 0.03797-0.2615 0.10641l-0.465 0.45234c-0.057 0.05551-0.0949 0.12769-0.1082 0.20613-0.0133 0.07843-0.0014 0.15907 0.0341 0.23028l0.7308 1.462c0.1247 0.24938-0.0567 0.54278-0.3352 0.54278h-0.2643c-0.0905 0-0.1777-0.0328-0.2457-0.0918l-0.43496-0.3779c-0.09844-0.08535-0.21741-0.14366-0.34521-0.16914-0.12781-0.02547-0.26004-0.01725-0.3837 0.02387l-1.4611 0.48707c-0.11155 0.0372-0.20857 0.1085-0.2773 0.2039-0.06874 0.0954-0.10571 0.21-0.10567 0.3276 0 0.2124 0.12 0.406 0.30984 0.5011l0.51938 0.2597c0.44109 0.2208 0.92765 0.3356 1.4208 0.3356 0.49312 0 1.0589 1.2792 1.5 1.5h3.1289c0.3979 0 0.779 0.158 1.0608 0.4392l0.6417 0.6418c0.2681 0.2682 0.4186 0.6319 0.4186 1.0111-1e-4 0.2873-0.057 0.5718-0.1674 0.8371-0.1103 0.2653-0.272 0.5062-0.4758 0.7088zm4.0646-4.282c-0.2714-0.068-0.5082-0.2344-0.6633-0.4674l-0.8428-1.2642c-0.1233-0.1847-0.1892-0.4018-0.1892-0.6239s0.0659-0.4392 0.1892-0.62391l0.9183-1.3772c0.1087-0.16266 0.2578-0.29485 0.4331-0.38203l0.6084-0.30422c0.6338 1.2619 0.9994 2.6812 0.9994 4.1873 0 0.4064-0.0347 0.8044-0.0853 1.1972l-1.3678-0.3417z"
                  fill="currentColor"/>
        </symbol>
        <!-- INFO OUTLINED -->
        <symbol id="icon__info-outlined" viewBox="0 0 24 24" fill="none">
            <path d="m10.312 16.5h0.5625v-5.625h-0.5625c-0.3106 0-0.5625-0.2519-0.5625-0.5625v-0.375c0-0.31064 0.2519-0.5625 0.5625-0.5625h2.25c0.3106 0 0.5625 0.25186 0.5625 0.5625v6.5625h0.5625c0.3106 0 0.5625 0.2519 0.5625 0.5625v0.375c0 0.3106-0.2519 0.5625-0.5625 0.5625h-3.375c-0.3106 0-0.5625-0.2519-0.5625-0.5625v-0.375c0-0.3106 0.2519-0.5625 0.5625-0.5625zm1.6875-11.25c-0.8284 0-1.5 0.67158-1.5 1.5s0.6716 1.5 1.5 1.5 1.5-0.67158 1.5-1.5-0.6716-1.5-1.5-1.5z"
                  fill="currentColor"/>
            <path d="m12.001 23.2c6.1856 0 11.2-5.0144 11.2-11.2s-5.0144-11.2-11.2-11.2c-6.1856 0-11.2 5.0144-11.2 11.2s5.0144 11.2 11.2 11.2z"
                  stroke="currentColor" stroke-linecap="round" stroke-width="1.5"/>
        </symbol>
        <!-- PAPER BILL OUTLINED -->
        <symbol id="icon__paper-bill-outlined" viewBox="0 0 20 24" fill="none">
            <path d="m18.8 13.2v-9.4c0-1.6568-1.3432-3-3-3h-11.6c-1.6569 0-3 1.3431-3 3v16.4c0 1.6568 1.3431 2.9999 3 2.9999h7"
                  stroke="currentColor" stroke-linecap="round" stroke-width="1.5"/>
            <path d="m6.7998 8.8h6.4" stroke="currentColor" stroke-linecap="round" stroke-width="1.5"/>
            <path d="m6.7998 12h2.4" stroke="currentColor" stroke-linecap="round" stroke-width="1.5"/>
            <path d="m19.232 20.403c0 0.4992-0.1584 0.9264-0.4752 1.2816s-0.7568 0.5936-1.32 0.7152v1.084c0 0.2761-0.2239 0.5-0.5 0.5h-0.296c-0.2761 0-0.5-0.2239-0.5-0.5v-1.0168c-0.864-0.0768-1.5776-0.3904-2.1408-0.9408l0.9216-1.008c0.48 0.4096 1.0016 0.6144 1.5648 0.6144 0.2624 0 0.4592-0.0512 0.5904-0.1536s0.1968-0.24 0.1968-0.4128c0-0.128-0.0288-0.2352-0.0864-0.3216s-0.1584-0.1648-0.3024-0.2352-0.3568-0.1504-0.6384-0.24c-0.736-0.2304-1.2496-0.5088-1.5408-0.8352s-0.4368-0.7328-0.4368-1.2192c0-0.5056 0.1712-0.9248 0.5136-1.2576s0.7952-0.544 1.3584-0.6336v-0.9304c0-0.2762 0.2239-0.5 0.5-0.5h0.296c0.2761 0 0.5 0.2238 0.5 0.5v0.94c0.6528 0.1024 1.1968 0.3712 1.632 0.8064l-0.8256 0.9792c-0.4288-0.3392-0.8832-0.5088-1.3632-0.5088-0.224 0-0.3936 0.04-0.5088 0.12s-0.1728 0.1904-0.1728 0.3312c0 0.1088 0.032 0.1984 0.096 0.2688s0.1712 0.1376 0.3216 0.2016 0.392 0.1472 0.7248 0.2496c0.6656 0.2176 1.1472 0.4864 1.4448 0.8064s0.4464 0.7584 0.4464 1.3152z"
                  fill="currentColor"/>
        </symbol>
        <!-- CHATS OUTLINED -->
        <symbol id="icon__chats-outlined" viewBox="0 0 24 24" fill="none">
            <path d="m4.8006 6.3997h-0.2c-1.6569 0-3 1.3431-3 3v7c0 1.5464 1.2536 2.8 2.8 2.8v0" stroke="currentColor"
                  stroke-linecap="round" stroke-width="1.5"/>
            <path d="m14.4 19.2h-4.5459c-1.1363 0-2.1751 0.642-2.6833 1.6584l-0.77082 1.5416-2-3.2"
                  stroke="currentColor" stroke-linecap="round" stroke-linejoin="round" stroke-width="1.5"/>
            <path d="m17.601 19.2-0.6708 0.3354c0.1213 0.2426 0.3642 0.4009 0.6352 0.4137 0.271 0.0129 0.5278-0.1216 0.6716-0.3516l-0.636-0.3975zm1.7686-2.8298-0.636-0.3975 0.636 0.3975zm-2.5394 1.2881 0.6708-0.3354-0.6708 0.3354zm1.4416 1.2063-0.7708-1.5417-1.3417 0.6708 0.7709 1.5417 1.3416-0.6708zm-4.1249-3.6146h-6.3459v1.5h6.3459v-1.5zm-8.5959-2.25v-8.4h-1.5v8.4h1.5zm2.25-10.65h11.6v-1.5h-11.6v1.5zm13.85 2.25v9.0366h1.5v-9.0366h-1.5zm-3.414 14.998 1.7686-2.8298-1.272-0.795-1.7686 2.8298 1.272 0.795zm1.8006-4.3475c-0.5302 0-1.023 0.2731-1.304 0.7227l1.272 0.795c0.0069-0.011 0.019-0.0177 0.032-0.0177v-1.5zm1.6134-1.6134c0 0.891-0.7223 1.6134-1.6134 1.6134v1.5c1.7195 0 3.1134-1.3939 3.1134-3.1134h-1.5zm-2.25-11.287c1.2426 0 2.25 1.0074 2.25 2.25h1.5c0-2.0711-1.679-3.75-3.75-3.75v1.5zm-13.85 2.25c0-1.2426 1.0074-2.25 2.25-2.25v-1.5c-2.0711 0-3.75 1.6789-3.75 3.75h1.5zm2.25 10.65c-1.2426 0-2.25-1.0074-2.25-2.25h-1.5c0 2.071 1.6789 3.75 3.75 3.75v-1.5zm9.7 2.0729c-0.6352-1.2704-1.9337-2.0729-3.3541-2.0729v1.5c0.8522 0 1.6313 0.4815 2.0124 1.2437l1.3417-0.6708z"
                  fill="currentColor"/>
            <path d="m10.4 7.1999h6.4" stroke="currentColor" stroke-linecap="round" stroke-width="1.5"/>
            <path d="m10.4 10.4h6.4" stroke="currentColor" stroke-linecap="round" stroke-width="1.5"/>
        </symbol>
        <!-- BAR CHARTS OUTLINED -->
        <symbol id="icon__bar-charts-outlined" viewBox="0 0 24 24" fill="none">
            <rect x="1.5996" y="1.6" width="20.8" height="20.8" rx="3" stroke="currentColor" stroke-linecap="round"
                  stroke-width="1.5"/>
            <path d="m7.1998 6.4v11.2" stroke="currentColor" stroke-linecap="round" stroke-width="1.5"/>
            <path d="m12 12.8v4.8" stroke="currentColor" stroke-linecap="round" stroke-width="1.5"/>
            <path d="m16.799 9.6v8" stroke="currentColor" stroke-linecap="round" stroke-width="1.5"/>
        </symbol>
        <!-- SAVINGS OUTLINED -->
        <symbol id="icon__savings-outlined" viewBox="0 0 24 24" fill="none">
            <path d="m3.5998 11.2s1.2896-2.233 2-2.8c0.57795-0.46133-0.08695-2.5036 0.4-2.8 0.44101-0.26839 2.3793 1.1194 2.7457 0.98635 1.3855-0.50328 2.8703-0.69872 4.4543-0.58635 5.6381 0.4 10.8 5.8239 6.3836 11.682 0.3737 1.019 0.7014 3.7097 0.7918 4.4981 0.0135 0.1181-0.0791 0.2201-0.1979 0.2201h-3.6954c-0.0526 0-0.1031-0.0208-0.1405-0.0577l-1.5613-1.5423s-2.4082 0.4-3.9803 0c-0.94427 0.9442-1.3932 1.3932-1.5416 1.5416-0.0375 0.0375-0.08816 0.0584-0.14121 0.0584h-3.2866c-0.12171 0-0.21521-0.1078-0.19799-0.2283l0.36738-2.5717s-2-1.2-2.4-2.8c-1.2763-0.3444-2.2981-0.6484-2.6593-0.7573-0.084111-0.0254-0.1407-0.1027-0.1407-0.1905v-3.7014c0-0.0893 0.059195-0.1677 0.14506-0.1923l2.6549-0.7585z"
                  stroke="currentColor" stroke-linecap="round" stroke-width="1.5"/>
            <path d="m19.99 8.8077c0.9772-0.72929 1.6099-1.8946 1.6099-3.2077 0-2.2091-1.7909-4-4-4s-4 1.7909-4 4"
                  stroke="currentColor" stroke-linecap="round" stroke-width="1.5"/>
            <path d="m7.5994 13.6c0.66275 0 1.2-0.5373 1.2-1.2 0-0.6628-0.53725-1.2-1.2-1.2-0.66274 0-1.2 0.5372-1.2 1.2 0 0.6627 0.53726 1.2 1.2 1.2z"
                  fill="currentColor"/>
            <path d="m23.166 12.8s-0.2609 1.2-1.5669 1.2" stroke="currentColor" stroke-linecap="round"
                  stroke-width="1.5"/>
        </symbol>
        <!-- PROPOSAL OUTLINED -->
        <symbol id="icon__proposal-outlined" viewBox="0 0 24 24" fill="none">
            <path d="m20.134 22.4h-16.134c-1.3255 0-2.4-1.0745-2.4-2.4v0c0-1.3255 1.0745-2.4 2.4-2.4h12c0.8837 0 1.6 0.7163 1.6 1.6v0.9846c0 1.2235 0.9919 2.2154 2.2154 2.2154v0c1.4274 0 2.5846-1.1572 2.5846-2.5846v-15.215c0-1.6569-1.3431-3-3-3h-11.6c-1.6568 0-3 1.3431-3 3v13"
                  stroke="currentColor" stroke-linecap="round" stroke-width="1.5"/>
            <path d="m9.5996 8h8" stroke="currentColor" stroke-linecap="round" stroke-width="1.5"/>
            <path d="m9.5996 11.2h4.8" stroke="currentColor" stroke-linecap="round" stroke-width="1.5"/>
        </symbol>
        <!-- BANK OUTLINED -->
        <symbol id="icon__bank-outlined" viewBox="0 0 24 23" fill="none">
            <path d="m10.395 1.2166c0.9801-0.62072 2.2303-0.62072 3.2104 0l8.9384 5.661c0.423 0.26795 0.2332 0.92241-0.2676 0.92241h-20.552c-0.50078 0-0.6906-0.65446-0.26752-0.92241l8.9384-5.661z"
                  stroke="currentColor" stroke-linecap="round"
                  stroke-width="1.5"/>
            <rect x="1.5996" y="19" width="20.8" height="2.4" rx="1.2" stroke="currentColor" stroke-linecap="round"
                  stroke-width="1.5"/>
            <path d="m9.6002 7.8v11.2" stroke="currentColor" stroke-linecap="round" stroke-width="1.5"/>
            <path d="m14.4 7.8v11.2" stroke="currentColor" stroke-linecap="round" stroke-width="1.5"/>
            <path d="m19.2 7.8v11.2" stroke="currentColor" stroke-linecap="round" stroke-width="1.5"/>
            <path d="m4.8 7.8v11.2" stroke="currentColor" stroke-linecap="round" stroke-width="1.5"/>
        </symbol>
        <!-- WALLET OUTLINED -->
        <symbol id="icon__wallet-outlined" viewBox="0 0 24 24" fill="none">
            <path d="m22.4 16.8v2.6c0 1.6568-1.3431 3-3 3h-14.8c-1.6568 0-3-1.3432-3-3v-14.8c0-1.6569 1.3432-3 3-3h14.8c1.6569 0 3 1.3431 3 3v5.8"
                  stroke="currentColor" stroke-linecap="round" stroke-width="1.5"/>
            <path d="m12.8 13.4c0-1.6568 1.3432-3 3-3h6.6v6.4h-6.6c-1.6569 0-3-1.3431-3-3v-0.4z"
                  stroke="currentColor" stroke-linecap="round" stroke-width="1.5"/>
            <path d="m15.999 14.4c0.4418 0 0.8-0.3581 0.8-0.8 0-0.4418-0.3582-0.8-0.8-0.8s-0.8 0.3582-0.8 0.8c0 0.4419 0.3582 0.8 0.8 0.8z"
                  fill="currentColor"/>
            <path d="m2.3994 4.8h20" stroke="currentColor" stroke-linecap="round" stroke-width="1.5"/>
        </symbol>
        <!-- NETWORK -->
        <symbol id="icon__network" viewBox="0 0 24 20" fill="none">
            <path d="m24 9.9v-0.6c0-0.3315-0.2685-0.6-0.6-0.6h-10.5v-1.5h2.7c0.6626 0 1.2-0.53737 1.2-1.2v-4.8c0-0.66262-0.5374-1.2-1.2-1.2h-7.2c-0.66262 0-1.2 0.53738-1.2 1.2v4.8c0 0.66263 0.53738 1.2 1.2 1.2h2.7v1.5h-10.5c-0.3315 0-0.6 0.2685-0.6 0.6v0.6c0 0.3315 0.2685 0.6 0.6 0.6h3.9v1.5h-2.1c-0.66262 0-1.2 0.5374-1.2 1.2v4.8c0 0.6626 0.53738 1.2 1.2 1.2h6c0.66262 0 1.2-0.5374 1.2-1.2v-4.8c0-0.6626-0.53738-1.2-1.2-1.2h-2.1v-1.5h11.4v1.5h-2.1c-0.6626 0-1.2 0.5374-1.2 1.2v4.8c0 0.6626 0.5374 1.2 1.2 1.2h6c0.6626 0 1.2-0.5374 1.2-1.2v-4.8c0-0.6626-0.5374-1.2-1.2-1.2h-2.1v-1.5h3.9c0.3315 0 0.6-0.2685 0.6-0.6zm-14.4-5.1v-2.4h4.8v2.4h-4.8zm-2.4 12h-3.6v-2.4h3.6v2.4zm13.2 0h-3.6v-2.4h3.6v2.4z"
                  fill="currentColor"/>
        </symbol>
        <!-- PENCIL OUTLINED -->
        <symbol id="icon__pencil-outlined" viewBox="0 0 24 24" fill="none">
            <path d="M13.0003 7.84725L15.3045 10.1515L7.30231 18.8142L4.99805 18.8142L4.99805 16.5099L13.0003 7.84725Z"
                  stroke="currentColor" stroke-width="1.5"/>
            <path d="M17.9965 5.8964L17.0832 5.00702C16.6738 4.60841 16.0143 4.63321 15.636 5.06143L14.5003 6.34725L16.8482 8.63357L18.0483 7.27486C18.4015 6.87509 18.3787 6.26853 17.9965 5.8964Z"
                  stroke="currentColor" stroke-width="1.5"/>
        </symbol>
        <!-- RATE OUTLINED -->
        <symbol id="icon__rate-outlined" viewBox="0 0 24 24" fill="none">
            <path d="m12.828 21.376c-0.5258-0.2389-1.1292-0.2389-1.655 0l-1.8162 0.8255c-1.0541 0.479-2.2935-0.0343-2.7002-1.1185l-0.86014-2.2934c-0.10141-0.2704-0.31476-0.4837-0.58515-0.5851l-2.2934-0.8602c-1.0841-0.4066-1.5975-1.646-1.1184-2.7001l1.0135-2.2299c0.11948-0.2629 0.11948-0.5647 0-0.8276l-1.0135-2.2299c-0.47909-1.0541 0.0343-2.2935 1.1184-2.7002l2.2934-0.86014c0.27039-0.10141 0.48374-0.31476 0.58515-0.58515l0.86014-2.2934c0.40661-1.0841 1.646-1.5975 2.7002-1.1184l2.2299 1.0135c0.2629 0.11948 0.5647 0.11948 0.8276 0l2.2299-1.0135c1.0541-0.47909 2.2935 0.0343 2.7001 1.1184l0.8602 2.2934c0.1014 0.27039 0.3147 0.48374 0.5851 0.58515l2.2934 0.86014c1.0842 0.40661 1.5975 1.646 1.1185 2.7002l-1.0135 2.2299c-0.1195 0.2629-0.1195 0.5647 0 0.8276l1.0135 2.2299c0.479 1.0541-0.0343 2.2935-1.1185 2.7001l-2.2934 0.8602c-0.2704 0.1014-0.4837 0.3147-0.5851 0.5851l-0.8602 2.2934c-0.4066 1.0842-1.646 1.5975-2.7001 1.1185l-1.8162-0.8255z"
                  stroke="currentColor" stroke-linecap="round" stroke-width="1.5"/>
            <path d="m9.6 11.2c0.8837 0 1.6-0.7163 1.6-1.6 0-0.88366-0.7163-1.6-1.6-1.6-0.88366 0-1.6 0.71634-1.6 1.6 0 0.8837 0.71634 1.6 1.6 1.6zm4.8 4.8c0.8837 0 1.6-0.7163 1.6-1.6s-0.7163-1.6-1.6-1.6-1.6 0.7163-1.6 1.6 0.7163 1.6 1.6 1.6zm0.5657-6.9657c-0.3124-0.31241-0.819-0.31241-1.1314 0l-4.8 4.8c-0.31241 0.3124-0.31241 0.819 0 1.1314 0.31242 0.3124 0.81896 0.3124 1.1314 0l4.8-4.8c0.3124-0.31243 0.3124-0.81897 0-1.1314z"
                  fill="currentColor"/>
        </symbol>
        <!-- PLUS CIRCLE OUTLINED -->
        <symbol id="icon__plus-circle-outlined" viewBox="0 0 24 24" fill="none">
            <path d="m12.002 8.8v6.4" stroke="currentColor" stroke-linecap="round" stroke-width="1.5"/>
            <path d="m15.201 12h-6.4" stroke="currentColor" stroke-linecap="round" stroke-width="1.5"/>
            <path d="m12.001 23.2c6.1856 0 11.2-5.0144 11.2-11.2s-5.0144-11.2-11.2-11.2c-6.1856 0-11.2 5.0144-11.2 11.2s5.0144 11.2 11.2 11.2z"
                  stroke="currentColor" stroke-linecap="round" stroke-width="1.5"/>
        </symbol>
        <!-- PLUS SQUARE OUTLINED -->
        <symbol id="icon__plus-square-outlined" viewBox="0 0 16 16" fill="none">
            <path d="M8 5V11" stroke="currentColor" stroke-width="1.5" stroke-linecap="round"/>
            <path d="M11 8H5" stroke="currentColor" stroke-width="1.5" stroke-linecap="round"/>
            <rect x="1.06641" y="1.06689" width="13.8667" height="13.8667" rx="3" stroke="currentColor"
                  stroke-width="1.5" stroke-linecap="round"/>
        </symbol>
        <!-- RIBBON OUTLINED -->
        <symbol id="icon__ribbon-outlined" viewBox="0 0 24 24" fill="none">
            <path d="m13.507 18.572c-0.9318-0.5415-2.0825-0.5415-3.0144 0l-1.3394 0.7782c-0.57051 0.3315-1.3 0.0294-1.469-0.6085l-0.39679-1.4974c-0.27605-1.0418-1.0897-1.8554-2.1315-2.1315l-1.4974-0.3968c-0.63782-0.169-0.93999-0.8985-0.6085-1.469l0.77827-1.3394c0.54145-0.9319 0.54145-2.0825 0-3.0144l-0.77827-1.3394c-0.33149-0.57051-0.02932-1.3 0.6085-1.469l1.4974-0.39679c1.0418-0.27605 1.8554-1.0897 2.1315-2.1315l0.39679-1.4974c0.16901-0.63782 0.89853-0.93999 1.469-0.6085l1.3394 0.77827c0.9319 0.54145 2.0826 0.54145 3.0144 0l1.3394-0.77827c0.5705-0.33149 1.3-0.02932 1.469 0.6085l0.3968 1.4974c0.2761 1.0418 1.0897 1.8554 2.1315 2.1315l1.4974 0.39679c0.6379 0.16901 0.94 0.89853 0.6085 1.469l-0.7782 1.3394c-0.5415 0.93186-0.5415 2.0825 0 3.0144l0.7782 1.3394c0.3315 0.5705 0.0294 1.3-0.6084 1.469l-1.4975 0.3968c-1.0418 0.2761-1.8554 1.0897-2.1315 2.1315l-0.3968 1.4974c-0.169 0.6379-0.8985 0.94-1.469 0.6085l-1.3394-0.7782z"
                  stroke="currentColor" stroke-linecap="round"
                  stroke-width="2"/>
            <path d="m12 13.6c1.7673 0 3.2-1.4327 3.2-3.2s-1.4327-3.2-3.2-3.2-3.2 1.4327-3.2 3.2 1.4327 3.2 3.2 3.2z"
                  stroke="currentColor" stroke-linecap="round"
                  stroke-width="2"/>
            <path d="m10.4 18.8-1.9011 3.4853c-0.27218 0.499-0.905 0.6711-1.3924 0.3787l-2.2262-1.3358c-0.48241-0.2894-0.6312-0.9197-0.32916-1.3943l2.2488-3.5339"
                  stroke="currentColor" stroke-linecap="round" stroke-width="2"/>
            <path d="m13.6 18.8 1.9011 3.4853c0.2721 0.499 0.905 0.6711 1.3924 0.3787l2.2261-1.3358c0.4825-0.2894 0.6312-0.9197 0.3292-1.3943l-2.2488-3.5339"
                  stroke="currentColor" stroke-linecap="round" stroke-width="2"/>
        </symbol>
        <!-- MOON -->
        <symbol id="icon__moon" viewBox="0 0 24 24" fill="none">
            <path d="M22 12C22 17.5228 17.5228 22 12 22C6.47715 22 2 17.5228 2 12C2 6.47715 6.47715 2 12 2C14.6029 2 8 7.72522 12.6667 12C17.3333 16.2748 22 9.08007 22 12Z"
                  stroke="currentColor" stroke-width="1.5"/>
        </symbol>
        <!-- SUN -->
        <symbol id="icon__sun" viewBox="0 0 24 24" fill="none">
            <path d="M11.7297 2V3.62162M11.7297 20.3784V22M22 12H20.3784M3.62162 12H2M19.0711 19.0711L17.9244 17.9244M6.07559 6.07559L4.92893 4.92893M4.92894 19.0711L6.0756 17.9244M17.9244 6.0756L19.0711 4.92894M17.4054 12C17.4054 14.9853 14.9853 17.4054 12 17.4054C9.01468 17.4054 6.59459 14.9853 6.59459 12C6.59459 9.01468 9.01468 6.59459 12 6.59459C14.9853 6.59459 17.4054 9.01468 17.4054 12Z"
                  stroke="currentColor" stroke-width="1.5" stroke-linecap="round" stroke-linejoin="round"/>
        </symbol>
        <!-- BIN OUTLINED -->
        <symbol id="icon__bin-outlined" viewBox="0 0 24 24" fill="none">
            <path d="M5.91344 10.0959C5.85759 9.36988 6.43162 8.75 7.15975 8.75H15.8402C16.5684 8.75 17.1424 9.36988 17.0866 10.0959L16.5363 17.2493C16.4061 18.9425 14.9941 20.25 13.2959 20.25H9.70412C8.00588 20.25 6.59395 18.9425 6.4637 17.2493L5.91344 10.0959Z"
                  stroke="currentColor" stroke-width="1.5"/>
            <path d="M13 13L10 16M10 13L13 16" stroke="currentColor" stroke-width="1.5" stroke-linecap="round"
                  stroke-linejoin="round"/>
            <line x1="5.75" y1="6.25" x2="17.25" y2="6.25" stroke="currentColor" stroke-width="1.5"
                  stroke-linecap="round" stroke-linejoin="round"/>
            <path d="M9 5C9 4.44772 9.44772 4 10 4H13C13.5523 4 14 4.44772 14 5V6H9V5Z" stroke="currentColor"
                  stroke-width="1.5"/>
        </symbol>
        <!-- ADD USER -->
        <symbol id="icon__add-user" viewBox="0 0 20 16" fill="none">
            <path d="m19.5 6.5h-2v-2c0-0.275-0.225-0.5-0.5-0.5h-1c-0.275 0-0.5 0.225-0.5 0.5v2h-2c-0.275 0-0.5 0.225-0.5 0.5v1c0 0.275 0.225 0.5 0.5 0.5h2v2c0 0.275 0.225 0.5 0.5 0.5h1c0.275 0 0.5-0.225 0.5-0.5v-2h2c0.275 0 0.5-0.225 0.5-0.5v-1c0-0.275-0.225-0.5-0.5-0.5zm-12.5 1.5c2.2094 0 4-1.7906 4-4s-1.7906-4-4-4c-2.2094 0-4 1.7906-4 4s1.7906 4 4 4zm2.8 1h-0.52188c-0.69375 0.31875-1.4656 0.5-2.2781 0.5s-1.5812-0.18125-2.2781-0.5h-0.52188c-2.3188 0-4.2 1.8813-4.2 4.2v1.3c0 0.8281 0.67188 1.5 1.5 1.5h11c0.8281 0 1.5-0.6719 1.5-1.5v-1.3c0-2.3187-1.8813-4.2-4.2-4.2z"
                  fill="currentColor"/>
        </symbol>
        <!-- SEARCH OUTLINED -->
        <symbol id="icon__search-outlined" viewBox="0 0 16 16" fill="none">
            <path d="M7.46641 13.8669C11.001 13.8669 13.8664 11.0015 13.8664 7.46689C13.8664 3.93227 11.001 1.06689 7.46641 1.06689C3.93178 1.06689 1.06641 3.93227 1.06641 7.46689C1.06641 11.0015 3.93178 13.8669 7.46641 13.8669Z"
                  stroke="currentColor" stroke-width="1.5" stroke-linecap="round"/>
            <path d="M14.4 14.4L12 12" stroke="currentColor" stroke-width="1.5" stroke-linecap="round"/>
        </symbol>
        <!-- LINK OUTLINED -->
        <symbol id="icon__link-outlined" viewBox="0 0 16 16" fill="none">
            <path d="M14.6673 8.99992V11.6666C14.6673 13.3234 13.3242 14.6666 11.6673 14.6666H4.33398C2.67713 14.6666 1.33398 13.3234 1.33398 11.6666V4.33325C1.33398 2.6764 2.67713 1.33325 4.33398 1.33325H7.00065"
                  stroke="currentColor" stroke-width="1.5" stroke-linecap="round"/>
            <path d="M11.334 1.33325L14.534 1.33325V4.53325" stroke="currentColor" stroke-width="1.5"
                  stroke-linecap="round"/>
            <path d="M14.534 1.33325L11.334 4.53325" stroke="currentColor" stroke-width="1.5" stroke-linecap="round"/>
        </symbol>
        <!-- ARROW TOP RIGHT -->
        <symbol id="icon__arrow-top-right" viewBox="0 0 7 7" fill="none">
            <path d="M2.73242 1.06671L5.93242 1.06671V4.26671" stroke="currentColor" stroke-width="1.5"
                  stroke-linecap="round"/>
            <path d="M5.93339 1.06671L1 6.00011" stroke="currentColor" stroke-width="1.5" stroke-linecap="round"/>
        </symbol>
        <!-- HANDSHAKE OUTLINED -->
        <symbol id="icon__handshake-outlined" viewBox="0 0 25 24" fill="none">
            <path d="M23.2647 13.5998V7.21013C23.2647 6.46886 22.8561 5.78974 22.1802 5.48534C20.2042 4.59538 15.8642 2.9026 12.0009 3.19977C8.46378 3.47186 6.59235 5.96494 5.75718 7.53157C5.36565 8.26599 5.64612 9.1322 6.31297 9.63017V9.63017C6.93917 10.0978 7.78264 10.1508 8.46248 9.76531L12.5496 7.44774C12.6978 7.36368 12.884 7.38981 13.0034 7.51142L21.8237 16.4963C22.4345 17.1186 22.4622 18.1066 21.887 18.7621V18.7621C21.2852 19.4479 20.2435 19.522 19.5507 18.9281L15.2009 15.1998"
                  stroke="currentColor" stroke-width="1.5" stroke-linecap="round"/>
            <path d="M8.04098 4.39968L1.91061 3.72231C1.31844 3.65688 0.800781 4.12049 0.800781 4.71626V14.1519C0.800781 15.0874 1.12425 15.9932 1.76553 16.6742C3.82142 18.8576 8.6952 23.4547 11.7498 21.5997"
                  stroke="currentColor" stroke-width="1.5" stroke-linecap="round"/>
            <path d="M15.2008 15.2L18.1886 17.8201C18.8125 18.3672 18.8924 19.3096 18.3695 19.9539V19.9539C17.8174 20.6341 16.8106 20.7193 16.1521 20.1414L12.8008 17.2"
                  stroke="currentColor" stroke-width="1.5" stroke-linecap="round"/>
            <path d="M12.801 17.2L14.8278 18.9734C15.4803 19.5443 15.558 20.5315 15.003 21.1975V21.1975C14.4464 21.8654 13.4577 21.9653 12.7787 21.4221L10.001 19.2"
                  stroke="currentColor" stroke-width="1.5" stroke-linecap="round"/>
        </symbol>
        <!-- STAMP OUTLINED -->
        <symbol id="icon__stamp-outlined" viewBox="0 0 24 24" fill="none">
            <path d="M3.2002 18.2416C3.2002 17.3807 3.75106 16.6164 4.56774 16.3442L6.31924 15.7604C7.41645 15.3946 8.40663 14.719 8.84256 13.6477C9.22795 12.7007 9.6002 11.3365 9.6002 9.60005C9.6002 8.07352 9.31251 6.25931 8.98111 4.67587C8.57394 2.73035 10.0125 0.800049 12.0002 0.800049V0.800049C13.9879 0.800049 15.4265 2.73035 15.0193 4.67587C14.6879 6.25931 14.4002 8.07352 14.4002 9.60005C14.4002 11.3365 14.7724 12.7007 15.1578 13.6477C15.5938 14.719 16.5839 15.3946 17.6812 15.7604L19.4327 16.3442C20.2493 16.6164 20.8002 17.3807 20.8002 18.2416V20.2C20.8002 21.8569 19.457 23.2 17.8002 23.2H6.2002C4.54334 23.2 3.2002 21.8569 3.2002 20.2V18.2416Z"
                  stroke="currentColor" stroke-width="1.5" stroke-linecap="round"/>
            <path d="M3.20117 20.4002H20.8012" stroke="currentColor" stroke-width="1.5" stroke-linecap="round"/>
        </symbol>
        <!-- CIRCLE PLUS OUTLINED -->
        <symbol id="icon__circle-plus-outlined" viewBox="0 0 18 18" fill="none">
            <path d="M9.00007 6.8667V11.1334" stroke="currentColor" stroke-width="1.5" stroke-linecap="round"/>
            <path d="M11.1338 8.99994H6.86712" stroke="currentColor" stroke-width="1.5" stroke-linecap="round"/>
            <path d="M8.99987 16.4667C13.1236 16.4667 16.4665 13.1237 16.4665 8.99999C16.4665 4.87627 13.1236 1.53333 8.99987 1.53333C4.87614 1.53333 1.5332 4.87627 1.5332 8.99999C1.5332 13.1237 4.87614 16.4667 8.99987 16.4667Z"
                  stroke="currentColor" stroke-width="1.5" stroke-linecap="round"/>
        </symbol>
        <!-- CIRCLE MINUS OUTLINED -->
        <symbol id="icon__circle-minus-outlined" viewBox="0 0 18 18" fill="none">
            <path d="M11.1338 8.99994H6.86712" stroke="currentColor" stroke-width="1.5" stroke-linecap="round"/>
            <path d="M8.99987 16.4667C13.1236 16.4667 16.4665 13.1237 16.4665 8.99999C16.4665 4.87627 13.1236 1.53333 8.99987 1.53333C4.87614 1.53333 1.5332 4.87627 1.5332 8.99999C1.5332 13.1237 4.87614 16.4667 8.99987 16.4667Z"
                  stroke="currentColor" stroke-width="1.5" stroke-linecap="round"/>
        </symbol>
    </defs>
</svg>
